<svg width="180" height="161" fill="none" xmlns="http://www.w3.org/2000/svg"><g clip-path="url(#clip0_540_54517)" fill="#fff"><path d="M27.427 105.642c-1.15-19.522-2.192-39.058-2.126-58.62 0-4.855.106-9.709.277-14.59 0-1.047.08-2.095.132-3.143 0-.623 0-1.326.093-1.883a5.566 5.566 0 010-1.697c.818-1.327 3.393-1.168 4.634-1.18 9.506-.094 18.986-.903 28.492-1.194 2.337-.08 4.673 0 6.997-.12 2.561-.12 5.136-.437 7.684-.636 4.872-.385 9.73-.73 14.603-.982 9.638-.517 19.289-.716 28.927-.371 9.813.31 19.592 1.294 29.271 2.944 2.35.416 4.696.858 7.037 1.326 1.017.213 1.677.146 2.284 1.008a3.7 3.7 0 01.674 2.268c.092 4.868 0 9.735 0 14.59v58.355a11.56 11.56 0 010 3.302c-.357 1.021-1.822 1.724-2.641 2.228a1.653 1.653 0 00.405 3.02c.421.112.869.051 1.245-.168a8.812 8.812 0 003.961-3.741c.306-.88.423-1.816.344-2.745V28.825a7.187 7.187 0 00-1.888-4.933c-1.4-1.46-3.526-1.552-5.414-1.923a192.448 192.448 0 00-8.304-1.486 207.828 207.828 0 00-14.999-1.817 273.238 273.238 0 00-31.383-.703c-10.39.319-20.715 1.326-31.093 1.963-5.004.332-10.06.239-15.078.49-5.017.253-10.245.584-15.368.757-2.535.08-5.096 0-7.631.132-1.716.1-3.354.75-4.674 1.857-1.32 1.207-1.32 2.653-1.32 4.324a420.98 420.98 0 00-.317 8.183c-.66 23.355.568 46.71 1.954 70.026.132 2.109 3.42 2.122 3.288 0l-.066-.053z"/><path d="M53.37 108.149a21.061 21.061 0 00-5.28.477 1.655 1.655 0 00-.377 3.027c.379.216.828.272 1.248.156a21.18 21.18 0 011.32-.252h-.436a22.898 22.898 0 013.433-.172 1.66 1.66 0 000-3.302l.093.066z"/><path d="M25.116 25.31a238.537 238.537 0 0031.239-1.14c5.188-.464 10.324-.968 15.54-1.167 5.215-.199 10.813-.371 16.226-.504 21.494-.477 42.993-.265 64.496.637.977 0 2.931-.279 3.617.623.528.703.238 2.148.225 2.997a41.315 41.315 0 01-.555 7.215c-.198 1.035-.581 2.016-.805 3.05a24.283 24.283 0 00-.37 3.528 89.282 89.282 0 00-.29 7.958c0 9.947 1.505 19.814 2.456 29.695.53 5.036.803 10.095.818 15.16 0 2.453-.119 4.906-.33 7.347-.119 1.326-.251 2.652-.449 3.885a6.563 6.563 0 01-.29 1.857 2.964 2.964 0 01-1.215.902 15.78 15.78 0 01-7.09 1.247 446.44 446.44 0 01-8.384.159c-5.373 0-10.747 0-16.12-.106-24.201-.491-48.429-1.976-72.616 0-2.1.172-2.113 3.488 0 3.302 22.445-1.857 44.89-.716 67.427-.146 5.703.146 11.407.252 17.164.252 5.508.202 11.023.078 16.516-.371a13.17 13.17 0 006.192-2.387c1.888-1.406 1.717-4.271 1.981-6.459a96.907 96.907 0 00.383-15.915c-.515-10.53-2.232-20.942-2.865-31.46-.369-5.3-.33-10.62.119-15.914.224-2.414 1.043-4.709 1.32-7.122.248-2.344.359-4.7.33-7.056 0-2.149-.489-3.979-2.522-5.013a7.77 7.77 0 00-3.314-.57l-4.251-.173c-5.624-.212-11.249-.38-16.873-.504a975.368 975.368 0 00-33.734-.186c-5.589.071-11.178.182-16.767.332-5.612.16-11.302.146-16.9.65-10.72.981-21.415 2.069-32.202 2.148-2.693 0-5.387-.044-8.08-.132-2.113-.08-2.113 3.223 0 3.302l-.027.08z"/><path d="M25.036 22.207a20.838 20.838 0 00-1.663 9.788c.092 3.86.092 7.732.092 11.605v47.546c0 3.449-.264 6.923-.224 10.372a6.55 6.55 0 00.804 3.568 6.509 6.509 0 002.589 2.572 24.683 24.683 0 003.42 1.658 10.17 10.17 0 002.865 1.035c.844.079 1.69-.106 2.521 0 .832.106 1.413.397 2.14.517 1.88.201 3.776.236 5.663.106 3.763 0 7.486.623 11.249.623h16.754c1.757 0 3.776.451 5.678.544 3.789.199 7.631 0 11.42 0 7.671 0 15.276-.292 22.934-.544 4.396-.146 8.793-.066 13.203-.066a106.16 106.16 0 0012.793-1.021c2.113-.252 4.238-.61 6.364-.783 2.126-.172 3.961.146 6.02-.159a22.215 22.215 0 014.687-.424 2.818 2.818 0 001.947-.358 2.837 2.837 0 001.235-1.552c.687-2.016-2.495-2.878-3.168-.875.343-1.022.515-.292 0-.518a2.629 2.629 0 00-.74-.066 10.02 10.02 0 00-1.888.08c-1.636.32-3.297.501-4.964.543a69.432 69.432 0 00-10.721.969 88.48 88.48 0 01-10.562.862h-10.945c-7.13 0-14.233.623-21.362.61H82.35c-3.538 0-6.931-.226-10.443-.518-6.998-.57-14.075.345-21.125-.172-3.486-.265-6.852-.491-10.338-.477a32.46 32.46 0 01-4.687-.637 10.86 10.86 0 01-3.485-.411c-1.624-.743-4.648-1.446-5.493-3.21a8.817 8.817 0 01-.158-3.978c.105-1.685.132-3.356.132-5.04V35.152c0-3.78-.555-7.759 1.122-11.274.924-1.91-1.914-3.58-2.839-1.67z"/><path d="M24.813 100.695c.087 1.191.281 2.372.58 3.528.225 1.194-.132 2.295.529 3.448 1.056 1.831 3.247 2.268 5.149 2.653 2.64.57 5.28.703 7.921 1.114 2.748.263 5.511.307 8.265.133.41-.037.793-.227 1.07-.533a1.664 1.664 0 000-2.237 1.646 1.646 0 00-1.07-.533c-2.31 0-4.62.239-6.931 0-1.149-.106-2.284-.345-3.433-.464-1.149-.119-2.469-.199-3.697-.424a54.787 54.787 0 01-2.535-.544c-.528-.133-1.439-.279-1.795-.756-.357-.478-.106-1.883-.264-2.653a13.497 13.497 0 01-.502-2.811 1.66 1.66 0 00-.53-1.076 1.646 1.646 0 00-2.227 0 1.66 1.66 0 00-.53 1.076v.079zm14.404-1.313c-.964-16.14-1.822-32.294-1.77-48.461 0-3.979.08-8.064.225-12.096 0-.941 0-1.896.106-2.838a12.97 12.97 0 01.066-2.785c.66-1.233 3.261-.902 4.278-.915 7.921-.106 15.843-.796 23.765-1.008 7.921-.212 16.08-1.035 24.003-1.459 7.921-.424 15.843-.57 23.765-.279a177.92 177.92 0 0124.029 2.428c1.915.331 3.829.69 5.73 1.087.805.172 1.426.133 1.928.756a2.77 2.77 0 01.528 1.857v59.96a10.482 10.482 0 010 3.143c-.33.81-1.439 1.327-2.126 1.738a1.657 1.657 0 00-.478 2.197 1.649 1.649 0 002.142.654 7.934 7.934 0 003.393-3.103c.805-1.685.356-4.059.356-5.889v-58.7a6.3 6.3 0 00-1.465-4.191c-1.083-1.326-2.496-1.42-4.04-1.738-2.324-.477-4.652-.92-6.985-1.326a185.75 185.75 0 00-12.384-1.565c-17.335-1.565-34.75-.61-52.046.875-4.145.359-8.37.24-12.542.438-4.172.2-8.582.478-12.873.637-2.1.08-4.199.106-6.311.132a7.41 7.41 0 00-4.238 1.247 3.9 3.9 0 00-1.69 3.554 366.143 366.143 0 00-.264 6.632c-.608 19.668.422 39.337 1.597 58.965.119 2.109 3.407 2.122 3.288 0l.013.053z"/><path d="M37.078 32.923c8.73.242 17.466-.082 26.154-.968 4.133-.371 8.24-.782 12.385-.941a767.5 767.5 0 0113.599-.425 813.773 813.773 0 0153.366.504c.766 0 2.548-.252 3.103.305.554.557.264 1.433.25 2.07a38.433 38.433 0 01-.369 5.782c-.291 1.817-.845 3.488-1.017 5.305a82.519 82.519 0 00-.304 6.737c0 8.29 1.189 16.512 1.994 24.735.409 4.217.726 8.448.726 12.679 0 2.03 0 4.058-.224 6.087a58.97 58.97 0 01-.317 3.064c-.159 1.234 0 2.109-1.215 2.719a13.153 13.153 0 01-5.849.995c-2.257.066-4.515.106-6.773.132-4.515 0-9.03 0-13.546-.093-20.081-.411-40.203-1.63-60.258 0-2.1.173-2.112 3.475 0 3.303 18.88-1.565 37.8-.571 56.773-.106 4.621.119 9.242.199 13.876.185h7.09c2.266.052 4.533-.05 6.786-.305a10.65 10.65 0 005.03-2.135c1.492-1.233 1.387-4.045 1.585-5.875.446-4.447.53-8.922.25-13.382-.475-8.66-1.874-17.242-2.376-25.889a69.032 69.032 0 01.172-13.422c.264-1.896.871-3.713 1.082-5.636.222-2.03.306-4.073.251-6.114a4.177 4.177 0 00-.536-2.11 4.155 4.155 0 00-1.524-1.55c-1.742-1.088-4.396-.73-6.35-.81a959.619 959.619 0 00-13.929-.424 856.014 856.014 0 00-28.188-.173c-10.43.12-20.98.12-31.357 1.141a221.834 221.834 0 01-30.367 1.326c-2.112-.08-2.112 3.223 0 3.316l.027-.027z"/><path d="M36.708 29.9a17.483 17.483 0 00-1.426 8.13c.07 3.245.101 6.485.093 9.721v44.39c0 1.538-.251 2.825-.172 4.244 0 1.07.299 2.12.864 3.027a5.687 5.687 0 002.331 2.106 14.23 14.23 0 005.281 2.122c.73-.04 1.462-.04 2.192 0a18.07 18.07 0 002.046.424c1.466.159 2.945 0 4.41 0 3.116 0 6.205.517 9.334.517h10.14c3.024 0 5.968.438 8.978.491 3.01.053 6.39 0 9.572 0 6.523 0 13.005-.345 19.514-.477 3.671-.08 7.354 0 11.025 0a94.502 94.502 0 0010.034-.929c1.663-.199 3.327-.504 5.017-.597 1.634.04 3.27-.013 4.898-.159a26.658 26.658 0 013.961-.278 2.526 2.526 0 001.527-.491c.443-.325.769-.786.929-1.313.726-2.003-2.443-2.865-3.182-.889.211-.557 1.096-.331.383-.623a1.75 1.75 0 00-.528 0 11.18 11.18 0 00-1.637 0c-1.308.25-2.632.41-3.961.478a58.22 58.22 0 00-8.318.689 79.167 79.167 0 01-8.49.809h-9.057c-5.875 0-11.737.518-17.626.504-5.845.228-11.699.131-17.533-.292-5.915-.663-11.883 0-17.877-.225-2.878-.119-5.69-.53-8.568-.477a15.469 15.469 0 01-3.83-.279c-1.135-.252-2.429 0-3.485-.318-1.32-.398-3.96-1.326-4.766-2.573a6.193 6.193 0 01-.238-3.369c.093-1.326.12-2.652.12-3.979V41c0-3.13-.49-6.432.884-9.363.91-1.91-1.928-3.58-2.839-1.658v-.08z"/><path d="M36.483 95.27c.083 1.011.246 2.014.489 2.998.185 1.035-.093 1.963.475 2.931.911 1.605 2.786 2.003 4.436 2.361 2.179.477 4.384.584 6.602.928a43.12 43.12 0 006.931.12 1.66 1.66 0 000-3.303c-1.913.1-3.83.1-5.743 0-.964-.093-1.901-.291-2.865-.384-.964-.093-2.007-.159-2.997-.345a54.47 54.47 0 01-2.1-.451 3.045 3.045 0 01-1.32-.557s-.131-.265-.079-.093c.053.172 0-.49 0-.517a5.873 5.873 0 00-.092-1.446 10.92 10.92 0 01-.41-2.268 1.661 1.661 0 00-.53-1.075 1.646 1.646 0 00-2.227 0 1.66 1.66 0 00-.53 1.075l-.04.027zm53.961 15.903v-.371h-3.288a42.236 42.236 0 01-.422 5.769 47.327 47.327 0 00-.198 5.809v5.305a3.009 3.009 0 001.214 3.117 6.582 6.582 0 001.994.61c.895.226 1.803.395 2.72.504a8.526 8.526 0 004.436-.796c2.918-1.406 2.97-4.828 2.825-7.653-.211-4.244.106-8.488-.092-12.745l-2.813 1.167c.251.279.304.279.159 0-.145-.278-.106-.225 0 .066.017.291.061.58.132.862.119.571.224 1.141.29 1.725.146 1.326.199 2.559.251 3.846.093 2.891 0 5.796 0 8.7v3.05c0 .093 0 .133 0 0 0-.132.251-.702.33-.384a2.717 2.717 0 01-.475.146c-.613.026-1.227 0-1.835-.08a26.283 26.283 0 01-3.393-.358 11.878 11.878 0 00-2.06-.225c-.698.072-1.401.072-2.1 0l1.15 1.153a21.318 21.318 0 010-4.098 32.657 32.657 0 00-.502-4.536 33.68 33.68 0 01-.132-4.615v-5.013a1.659 1.659 0 00-1.65-1.658 1.659 1.659 0 00-1.65 1.658v.915c-.001.44.173.861.482 1.172a1.647 1.647 0 002.334 0 1.66 1.66 0 00.484-1.172v-.915h-3.301a75.674 75.674 0 00.198 10.093c.26 1.484.392 2.988.396 4.496a20.979 20.979 0 00.093 4.642 1.63 1.63 0 001.148 1.153c1.65.332 3.314.146 4.978.425a38.78 38.78 0 004.45.398 4.37 4.37 0 003.656-1.22c.57-.99.789-2.145.621-3.276 0-3.541.119-7.096 0-10.61a42.4 42.4 0 00-.423-4.775c-.185-1.326-.264-2.971-1.32-3.886a1.677 1.677 0 00-1.777-.319 1.682 1.682 0 00-1.035 1.486c.198 4.059-.119 8.104 0 12.162a10.08 10.08 0 01-.251 4.615c-.462.969-2.033 1.154-2.984 1.154a13.43 13.43 0 01-2.707-.464s-.937-.239-.95-.212c-.013.026.317.544.277.544a50.48 50.48 0 00.08-5.305 57.206 57.206 0 01.118-6.022 49.13 49.13 0 00.489-6.366 1.66 1.66 0 00-.53-1.075 1.648 1.648 0 00-2.758 1.075v.372c-.079 2.135 3.209 2.122 3.288 0l.052-.04z"/><path d="M86.087 130.775c0-.159 0-.332-.106-.504a1.624 1.624 0 00-1.149-1.154 17.358 17.358 0 00-7.208-.079c-3.182.424-6.232 1.525-9.427 1.87-2.14.225-4.635.371-6.43 1.697-1.796 1.326-2.443 4.072-2.64 6.021-.212 2.547 2.64 3.117 4.62 3.435a45.38 45.38 0 009.678.093c3.294-.062 6.59.098 9.863.478 3.538.291 7.103.159 10.641.159h26.67a6.99 6.99 0 003.34-.531c1.941-1.047 2.126-3.329 2.139-5.305.013-1.976-.488-3.979-2.64-4.92a9.854 9.854 0 00-3.961-.57c-1.598 0-3.129-.571-4.74-.597-3.631-.067-7.248.119-10.879.106-1.677 0-3.38 0-5.057-.133-1.677-.132-3.46-.504-5.281-.583-4.093-.173-8.226 0-12.319 0-4.092 0-8.172-.159-12.238 0-1.611 0-3.17.477-4.78.543a4.134 4.134 0 00-3.472 1.433c-1.585 2.135-1.32 5.61-1.215 8.103a1.648 1.648 0 003.287 0v-.424a1.648 1.648 0 00-3.287 0v.424h3.287c0-1.127-.105-2.268 0-3.395 0-.584.093-2.241.515-2.652.423-.412 1.704-.199 2.337-.279a33.43 33.43 0 014.608-.451h17.798a61.24 61.24 0 018.542.345c2.823.316 5.663.44 8.503.371 2.983 0 5.967-.079 8.951-.093 1.287.037 2.568.188 3.829.451 1.32.226 2.825-.146 4.066.358 1.242.504 1.083 2.878.647 3.886-.237.531-.396.557-1.016.61-1.426.12-2.918 0-4.357 0H99.672c-5.862 0-11.79.279-17.639-.252a57.834 57.834 0 00-8.014-.358c-2.705.226-5.42.292-8.133.199a15.245 15.245 0 01-2.337-.358 7.524 7.524 0 00-1.439-.424l.29.782.08-.318a2.3 2.3 0 00.224-.743c.172-.583.29-1.18.489-1.75.686-1.884 3.472-1.817 5.175-2.003 2.839-.318 5.559-1.114 8.358-1.671a15.908 15.908 0 017.235-.226l-1.149-1.153.106.517c.422 2.082 3.604 1.193 3.169-.889v-.066z"/><path d="M98.009 131.637c5.915 0 11.882.584 17.731.623 1.321 0 4.489-.384 4.885 1.459.225 1.075.317 2.122.647 3.183.31 1.37.391 2.782.238 4.178.037.412.226.796.53 1.075a1.643 1.643 0 002.227 0c.304-.279.494-.663.53-1.075a15.794 15.794 0 00-.237-4.668 18.88 18.88 0 01-.542-1.91c-.105-.597-.105-1.234-.25-1.83-.687-2.653-3.314-3.502-5.717-3.687-3.129-.239-6.311-.12-9.454-.266-3.538-.172-7.063-.371-10.562-.384a1.65 1.65 0 00-1.503 1.651c0 .414.154.813.433 1.119.278.305.66.495 1.07.532h-.026z"/></g><defs><clipPath id="clip0_540_54517"><path fill="#fff" transform="translate(22 17.764)" d="M0 0h139v125H0z"/></clipPath></defs></svg>