<svg width="180" height="161" fill="none" xmlns="http://www.w3.org/2000/svg"><path d="M139.612 71.758c-1.246-10.354-5.865-19.411-14.173-27.461a38.027 38.027 0 00-12.254-7.366 26.526 26.526 0 00-3.115-1.007h-.148c-5.568-2.495-11.868-3.14-17.95-3.773h-.278a34.995 34.995 0 00-3.728-.191 36.389 36.389 0 00-5.074.352h-.079a46.082 46.082 0 00-17.377 4.538c-7.054 3.215-13.117 8.317-17.545 14.762a42.284 42.284 0 00-5.934 12.076 24.47 24.47 0 00-.613 3.733c-.08.725-.168 1.47-.287 2.204v.191a27.022 27.022 0 00-1.306 12.076v.15a31.801 31.801 0 00.07 5.455c.524 4.82 1.414 11.069 3.659 16.603a14.887 14.887 0 003.462 5.032l.059.06.05.071a118.456 118.456 0 002.531 3.461c2.127 2.788 4.817 4.388 7.665 6.038a79.35 79.35 0 012.858 1.761l.485.312c4.094 2.667 7.328 4.77 12.155 6.098a87.21 87.21 0 0014.291 2.898c.89.091 1.78.131 2.67.131a40.248 40.248 0 0011.532-2.012c.702-.212 1.454-.383 2.245-.564a18.957 18.957 0 004.698-1.489l.129-.071h.138a.738.738 0 00.346-.171l.089-.08.05-.051.138-.181.208-.08 3.145-1.399-.208.292.574-.252 1.226-.523a15.048 15.048 0 005.361-3.774l.91-.905.059-.051h.049a65.242 65.242 0 003.106-2.546 42.591 42.591 0 007.774-9.056 40.784 40.784 0 007.368-16.654 57.206 57.206 0 00.969-18.637zm-39.739-35.38l.989.26c1.286.333 2.542.715 3.719 1.088h.069c.256.107.521.191.792.251h.098l2.216.684.395.121.178.373c.119.251.267.503.416.754a28.87 28.87 0 013.491 4.579 40.93 40.93 0 012.384 4.81 42.588 42.588 0 011.711 4.025l.939 2.586-2.304-1.449-.346-.221-1.464-.906c-3.66-2.194-7.635-2.918-11.868-3.673l-1.523-.282-1.197-.21-.623-.102-1.039-.18.297-1.007a86.782 86.782 0 002.473-10.475l.197-1.027zM85.87 83.672a128.515 128.515 0 011.83-5.163l.277-.744.771.15.989.212 1.82.372.85.192c3.55.764 7.23 1.56 10.781 2.515a136.576 136.576 0 0112.946 5.756l.099.05h.089l.652.323-.148.724c0 .171-.069.332-.099.503-.128.594-.247 1.208-.395 1.822a72.72 72.72 0 01-1.909 6.52v.143c-2.295 4.317-5.034 8.463-7.675 12.468l-1.216 1.842-.208.312-.327.05a56.215 56.215 0 01-12.323 1.369h-1.76a50.678 50.678 0 01-10.938-2.184l-.742-.242.099-.784a89.74 89.74 0 00.316-2.959 32.97 32.97 0 011.227-7.235 410.692 410.692 0 002.086-6.752c.91-2.898 1.959-6.169 2.878-9.288l.03.03zm-.208-9.329c-2.898-.483-5.855-.885-8.713-1.267-3.58-.483-7.27-1.007-10.928-1.66l-2.542-.474-.772-.14-.94-.172.199-.956c1.048-5.031 2.462-10.868 5.123-15.849.346-.634.613-1.117.88-1.57.257-.422.534-.835.801-1.227l.227-.322.13-.181.227-.322.385-.06.475-.071h.188c2.186-.252 3.877-.383 5.47-.423h2.58c4.89.016 9.772.352 14.618 1.006l1.038.131-.257 1.007a51.573 51.573 0 01-1.552 5.232c-2.028 5.545-3.956 11.16-5.648 16.715l-.247.785-.742-.181zm30.828 9.45a80.496 80.496 0 00-2.552-1.188 69.216 69.216 0 00-10.563-3.592h-.089a91.56 91.56 0 00-9.702-3.02 101.212 101.212 0 00-3.382-.784l-1.088-.221.406-1.007a150.563 150.563 0 004.717-15.386 234.638 234.638 0 011.87-6.712l.227-.785.8.12.752.122h.287l.475.1a49.188 49.188 0 0118.455 7.719l.356.231.049.423v.332c0 .11.05.302.07.453a84.362 84.362 0 01.138 22.47l-.168 1.278-1.058-.553zM90.052 35.491l.248-.111h.415c.396.06.772.12.99.13.612 0 1.245.071 1.859.091.989 0 2.067.08 3.105.192l1.256.13-.494 1.188a29.122 29.122 0 00-1.454 5.373c-.159.765-.317 1.55-.505 2.305a224.88 224.88 0 00-.633 2.747l-.198.886-.87-.162a69.732 69.732 0 00-12.788-1.318 50.039 50.039 0 00-5.934.342l-.85.111-.554.07h-.109l-2.344.172 1.592-1.751a44.215 44.215 0 016.073-5.646h.119a46.783 46.783 0 014.559-2.123c.83-.352 1.72-.694 2.571-1.006 1.326-.584 2.67-1.107 3.917-1.67l.03.05zm-36.02 13.303a47.515 47.515 0 0112.215-9.057 42.353 42.353 0 0111.75-3.542l6.052-1.006-5.489 2.777A20.06 20.06 0 0072.052 43a60.344 60.344 0 00-3.58 4.709l-.247.342-.405.05a102.88 102.88 0 00-10.573 1.792l-.91.2-1.454.323-3.283.765 2.433-2.385zM43.956 67.41a40.041 40.041 0 013.679-10.425l.208-.392.425-.081c.219-.06.413-.191.554-.372l.158-.212.237-.09a106.676 106.676 0 0115.191-4.7l2.048-.463-1.019 1.862a56.377 56.377 0 00-5.39 13.283 96.028 96.028 0 00-.82 3.422l-.189.865-.87-.14a77.087 77.087 0 00-3.482-.514c-.731-.09-1.493-.211-2.304-.332a44.238 44.238 0 00-6.34-.644h-1.097l-1.246.08.257-1.147zM42.46 85.394c-1.355-4.126-1.73-9.178.703-12.84.072-.1.159-.188.257-.262l.099-.493.81.06c4.313.292 8.724.674 13.125 1.157l.989.1-.168 1.007A85.804 85.804 0 0056.97 87.99c0 3.944 1.632 8.865.99 12.649-3.087-.855-4.471-3.834-7.072-5.253a19.726 19.726 0 01-8.031-8.825 23.054 23.054 0 01-.425-1.218l.03.05zm19.019 32.523c-3.748-1.942-7.358-5.112-10.543-7.91l-1.157-1.006a15.802 15.802 0 01-1.919-2.013v-.05a31.175 31.175 0 01-2.581-5.172 38.625 38.625 0 01-1.85-7.567l-.494-3.02 2.087 2.235c1.622 1.75 3.451 3.37 5.212 4.94l.712.624a41.141 41.141 0 007.912 5.444l.356.192.109.382c0 .151.08.292.129.433.049.141 0 .171.069.261v-.01a52.942 52.942 0 003.214 11.07l.989 2.415-2.245-1.248zm13.915-5.625c-.099.473-.188.925-.276 1.388v.051c-.09.523-.198 1.006-.297 1.559a77.987 77.987 0 00-.782 5.706c0 .352.09.715.159 1.067.067.265.03.547-.102.785a1.043 1.043 0 01-.61.493c-3.017.795-7.17-1.319-7.3-4.649a91.843 91.843 0 01-.988-2.697c-.99-2.687-2.087-5.464-2.967-8.252l-.673-2.012 1.929.855c2.462 1.097 5.053 2.113 7.546 3.099 1.266.493 2.571 1.007 3.857 1.53l.732.302-.228.775zm.633-2.878l-.989-.473-3.046-1.449-.336-.171c-1.573-.755-3.185-1.5-4.737-2.214a256.17 256.17 0 01-5.351-2.506l-.465-.221-.06-.524a59.132 59.132 0 01-.345-3.954c0-.775-.07-1.55-.11-2.335-.355-7.044-.711-14.35.505-21.303l.158-.886.87.111a325.878 325.878 0 0122.5 3.532l.99.191-.297 1.007-.118.412c-.07.222-.13.443-.198.664a66.632 66.632 0 00-2.68 8.725c-.11.403-.208.805-.317 1.218v.05c-.297.936-.603 1.872-.9 2.818-.396 1.247-.801 2.495-1.197 3.753a53.806 53.806 0 00-1.7 5.555v.241a150.912 150.912 0 00-1.84 6.702l-.337 1.057zm12.254 17.7a34.826 34.826 0 01-6.132-.684c-1.681-.352-3.61-.865-4.826-2.174a.937.937 0 01-.267-.835 1.104 1.104 0 010-.402c.435-2.456.653-4.951.88-7.437a1.3 1.3 0 01.06-.282c-.04-.374-.06-.75-.06-1.127.158-.509.425-.977.782-1.368a.982.982 0 011.206-.222 32.844 32.844 0 006.656 2.385c1.903.281 3.824.415 5.746.403h3.521a59.31 59.31 0 005.014-.221l2.473-.212-1.721 1.812-.554.593-1.365 1.419a.993.993 0 01-.108.382c-2.275 4.227-6.32 8.141-11.325 7.97h.02zm33.172-12.236l-2.404 2.445a41.72 41.72 0 01-7.17 4.357h-.119a14.204 14.204 0 00-3.145 1.309h-.059l-.099.06h-.099a45.776 45.776 0 01-7.764 2.133l-2.571.473 1.691-2.012a62.202 62.202 0 004.658-6.662v-.05c.712-.856 1.336-1.58 1.909-2.234l.238-.272h.365a74.386 74.386 0 009.772-1.419c2.908-.714 5.934-.805 8.683-2.173l-3.886 4.045zm11.7-15.82a4.51 4.51 0 01-.989 2.014 9.305 9.305 0 01-1.917 3.087 9.104 9.104 0 01-2.939 2.095 15.432 15.432 0 01-5.351 3.351 23.902 23.902 0 01-7.17 2.113 12.373 12.373 0 01-4.035.161 1.283 1.283 0 01-.69-.432 1.318 1.318 0 01-.299-.765 1.145 1.145 0 01.138-.624.945.945 0 01.366-.373.926.926 0 01.297-.322l.722-1.137a48.376 48.376 0 004.45-8.825v-.13a47.315 47.315 0 004.045-9.057l.06-.212.059-.221.316-1.006.989.453c3.956 1.8 7.982 3.813 11.018 6.873l.504.513-.079.13a2.957 2.957 0 01.485 2.315h.02zm3.896-12.668v.382c0 1.51-1.493 9.54-4.312 6.662a8.305 8.305 0 01-1.79-1.107c-1.325-1.006-2.532-2.164-3.956-3.1a26.496 26.496 0 00-4.411-2.404 1.11 1.11 0 01-.208-.141l-.83-.413-.633-.312.118-.704c1.246-7.578.564-15.729-.227-21.243l-.356-2.496 1.879 1.64c2.294 2.013 4.47 4.146 6.498 6.18l.079.08.049.08.198.312c.574.916 1.157 1.842 1.78 2.717a39.612 39.612 0 013.333 4.488 17.842 17.842 0 012.77 9.379h.019zm-1.73-12.559a15.746 15.746 0 00-1.415-2.294 47.77 47.77 0 00-4.154-4.64l-.049-.06v-.06a27.213 27.213 0 00-5.776-6.138 129.85 129.85 0 00-3.956-2.848l-.297-.211-.079-.352a49.726 49.726 0 00-.751-2.929v-.08a37.767 37.767 0 00-.989-4.026 39.716 39.716 0 00-2.325-5.363c-.31-.56-.657-1.097-1.038-1.61l-.425-.614-1.78-2.606 2.898 1.187a26.675 26.675 0 016.716 3.764 53.717 53.717 0 016.567 6.802l1.394 1.61a27.185 27.185 0 015.123 9.288 45.776 45.776 0 012.156 10.647l.426 4.7-2.245-4.167z" fill="#fff"/></svg>