<svg width="61" height="60" fill="none" xmlns="http://www.w3.org/2000/svg"><path d="M31 8C18.573 8 8.5 18.073 8.5 30.5S18.573 53 31 53s22.5-10.073 22.5-22.5S43.427 8 31 8zm12.092 31.038c-.96.6-4.862.78-5.806.094-.519-.377-.992-.848-1.442-1.296-.315-.313-.672-.466-.943-.806-.22-.278-.373-.607-.605-.882-.392-.46-.996-.853-1.474-.29-.72.848.113 2.513-.846 3.146-.322.212-.646.274-1.049.244l-.89.04c-.523.01-1.352.015-1.947-.092-.664-.12-1.212-.483-1.813-.749-1.14-.505-2.225-1.194-3.051-2.148-2.249-2.598-5.269-6.17-6.442-9.437-.241-.671-.879-2-.274-2.576.821-.597 4.855-.766 5.484.158.256.375.417.924.598 1.35.225.53.347 1.03.699 1.499.311.416.54.835.782 1.29.27.513.526 1.005.854 1.476.224.32.814.959 1.187 1.006.91.116.854-2.096.786-2.636a10.446 10.446 0 01-.064-1.6c.015-.451.055-1.086-.212-1.453-.434-.6-1.403-.152-1.479-.957.16-.229.127-.432 1.195-.784.84-.276 1.384-.267 1.94-.223 1.13.09 2.33-.215 3.42.151 1.044.352.883 1.834.848 2.722-.048 1.212.003 2.396 0 3.627-.002.56-.024 1.105.66 1.06.64-.043.705-.582 1.01-1.027.426-.62.816-1.248 1.249-1.866.583-.835.76-1.773 1.31-2.629.195-.305.365-.957.667-1.198.23-.184.665-.088.942-.088h.66c.504 0 1.019-.004 1.538.014.746.026 1.583-.146 2.323-.041 3.195.45-4.016 7.281-3.64 8.5.259.843 1.904 1.784 2.497 2.474.789.919 3.215 2.745 1.328 3.927z" fill="#fff"/></svg>