<svg width="61" height="60" fill="none" xmlns="http://www.w3.org/2000/svg"><path fill-rule="evenodd" clip-rule="evenodd" d="M22.416 48.566l-10.682 3.403L8.5 53l4.544-13.437a21.28 21.28 0 01-2.583-10.168 21.27 21.27 0 016.312-15.134A21.53 21.53 0 0131.987 8a21.51 21.51 0 0115.206 6.264A21.286 21.286 0 0153.5 29.402a21.27 21.27 0 01-6.31 15.133 21.522 21.522 0 01-15.21 6.261 21.65 21.65 0 01-5.372-.674 21.419 21.419 0 01-4.192-1.556z" fill="#fff"/><path fill-rule="evenodd" clip-rule="evenodd" d="M27.373 24.096c-.099-.2-.67-1.578-1.195-2.85-.336-.812-.656-1.587-.72-1.736-.591-1.413-1.245-1.37-1.747-1.338a1.481 1.481 0 01-.107.004c-.175 0-.347-.01-.526-.022a10.808 10.808 0 00-.673-.029c-.29 0-.686.06-1.103.256a2.89 2.89 0 00-.92.684l-.11.117c-.695.73-2.21 2.325-2.21 5.386 0 3.21 2.313 6.264 2.653 6.713h-.001l.003.005.004.004c.013.017.062.089.135.195.854 1.25 4.78 7 10.75 9.335 5.415 2.115 6.395 1.878 7.27 1.666.149-.036.294-.071.452-.086.709-.067 1.868-.553 2.844-1.235.81-.566 1.516-1.28 1.786-2.034a8.53 8.53 0 00.441-1.813c.092-.748.02-1.337-.116-1.564l-.002-.002c-.207-.34-.564-.51-1.1-.763a29.672 29.672 0 01-.293-.14 148.2 148.2 0 00-2.742-1.332c-.707-.335-1.335-.622-1.583-.712-.35-.125-.655-.22-.982-.184-.37.042-.693.233-.992.688l-.001-.001c-.15.226-.416.565-.705.92a57.91 57.91 0 01-1.24 1.46v.002c-.099.113-.185.175-.27.185-.116.015-.277-.033-.499-.143a8.545 8.545 0 00-.452-.205c-.864-.373-2.549-1.1-4.468-2.802a15.928 15.928 0 01-1.796-1.898 18.695 18.695 0 01-1.588-2.29c-.173-.296.02-.49.197-.667v-.001c.195-.197.418-.464.64-.732.102-.123.204-.245.328-.387l.002-.002c.3-.35.425-.606.593-.95l.091-.184.002-.002c.148-.299.186-.583.158-.849a1.891 1.891 0 00-.209-.667z" fill="#0A0A0A"/></svg>