<svg width="96" height="69" fill="none" xmlns="http://www.w3.org/2000/svg"><path opacity=".937" fill-rule="evenodd" clip-rule="evenodd" d="M26.208.012c15.417-.032 30.833 0 46.249.096a682.625 682.625 0 00-10.213 15.898c3.402.161 6.807.257 10.213.29a10606.42 10606.42 0 01-23.22 36.131 710.161 710.161 0 01-8.48-13.296 357.54 357.54 0 01-23.413.385v-2.698c7.26.065 14.518 0 21.775-.192a3355.56 3355.56 0 00-13.104-20.33l10.406-.193A1187.955 1187.955 0 0126.208.012zm5.01 2.698c12.077-.032 24.153 0 36.229.096a891.296 891.296 0 00-8.48 13.2c-6.422.225-12.845.257-19.27.097-2.854-4.46-5.68-8.923-8.479-13.393zm0 16.187c2.314-.032 4.626 0 6.938.096l11.08 17.247a2410.456 2410.456 0 0011.08-17.247 66.038 66.038 0 017.13 0l-18.21 28.231a1649.495 1649.495 0 01-18.018-28.327zm10.214.193a211.35 211.35 0 0115.609-.097 393.555 393.555 0 01-7.805 12.044 555.234 555.234 0 00-7.804-11.947z" fill="#fff"/><path opacity=".93" fill-rule="evenodd" clip-rule="evenodd" d="M68.603 26.605H71.3V49.73h-2.697V26.605z" fill="#fff"/><path opacity=".821" fill-rule="evenodd" clip-rule="evenodd" d="M9.827 58.209c.518-.032 1.032 0 1.542.096.554.588.49 1.102-.193 1.541-1.445.197-1.895-.35-1.349-1.637z" fill="#FEFFFE"/><path opacity=".831" fill-rule="evenodd" clip-rule="evenodd" d="M21.39 58.209c.518-.032 1.032 0 1.541.096.32 1.485-.259 1.934-1.734 1.349-.273-.529-.209-1.01.193-1.446z" fill="#FEFFFE"/><path opacity=".881" fill-rule="evenodd" clip-rule="evenodd" d="M38.733 58.401h1.735v8.48h-1.735V58.4z" fill="#FEFFFE"/><path opacity=".902" fill-rule="evenodd" clip-rule="evenodd" d="M0 58.594a36.487 36.487 0 016.167.289c1.703.706 2.602 1.99 2.697 3.854-.092 1.857-.991 3.141-2.697 3.854a35.45 35.45 0 01-6.167.29v-8.287zm1.734 1.349a10.351 10.351 0 014.047.482c1.788 1.548 1.788 3.09 0 4.624a4.425 4.425 0 01-.963.386 24.754 24.754 0 01-3.084.096v-5.588zm42.973-1.349a36.486 36.486 0 016.166.289c1.704.706 2.603 1.99 2.698 3.854-.092 1.857-.991 3.141-2.697 3.854a35.45 35.45 0 01-6.167.29v-8.287zm1.734 1.349a10.351 10.351 0 014.047.482c1.788 1.548 1.788 3.09 0 4.624a4.425 4.425 0 01-.963.386 24.752 24.752 0 01-3.084.096v-5.588z" fill="#FEFFFE"/><path opacity=".875" fill-rule="evenodd" clip-rule="evenodd" d="M25.437 58.98h1.156v1.541h2.89v1.349h-2.89a16.722 16.722 0 00.193 3.469c.822.5 1.657.5 2.505 0 .246.488.246.97 0 1.445a5.347 5.347 0 01-3.468 0l-.675-.675a16.78 16.78 0 01-.29-4.239H23.51c-.03-.264.002-.522.096-.77.425-.175.842-.367 1.253-.579l.578-1.541z" fill="#FEFFFE"/><path opacity=".941" fill-rule="evenodd" clip-rule="evenodd" d="M9.635 60.714c.614.002 1.257-.03 1.927-.097a51.826 51.826 0 00-.193 6.263H9.827a49.448 49.448 0 00-.192-6.166z" fill="#FEFFFE"/><path opacity=".873" fill-rule="evenodd" clip-rule="evenodd" d="M14.26 60.521c.837-.032 1.672 0 2.505.096a5.02 5.02 0 011.445.867c.095-.314.127-.636.097-.963h1.734a39.842 39.842 0 01-.29 6.552c-.91 1.274-2.162 1.917-3.757 1.927a7.132 7.132 0 01-2.89-.867c-.246-.475-.246-.957 0-1.445 1.117.745 2.337 1.034 3.661.867 1.068-.32 1.517-.994 1.349-2.024-1.673 1.271-3.344 1.271-5.01 0-1.3-2.083-.914-3.753 1.156-5.01zm.963 1.156c1.53-.23 2.558.38 3.084 1.83-.69 1.405-1.781 1.92-3.276 1.542-1.293-1.21-1.229-2.334.192-3.372z" fill="#FEFFFE"/><path opacity=".866" fill-rule="evenodd" clip-rule="evenodd" d="M21.197 60.521a2.048 2.048 0 001.735 0v6.36h-1.735v-6.36z" fill="#FEFFFE"/><path opacity=".879" fill-rule="evenodd" clip-rule="evenodd" d="M31.796 60.521c.837-.032 1.672 0 2.505.097.59.204 1.072.557 1.445 1.06.095-.38.127-.766.096-1.157h1.735a27.293 27.293 0 000 6.36h-1.735a2.493 2.493 0 00-.096-.964c-1.249 1.172-2.694 1.461-4.336.867-1.125-.706-1.703-1.734-1.734-3.083.112-1.482.818-2.541 2.12-3.18zm1.156 1.157c1.407.094 2.371.8 2.89 2.12-.614 1.483-1.706 2.093-3.276 1.83-.896-.73-1.185-1.662-.867-2.794a2.459 2.459 0 011.253-1.157zm21.198-1.157h1.734c.036.398.132.783.289 1.156a2.13 2.13 0 011.06-1.06c.703-.096 1.41-.128 2.12-.096v1.35c-1.515-.403-2.51.111-2.988 1.54a31.32 31.32 0 00-.096 3.47h-1.734a31.418 31.418 0 00-.386-6.36z" fill="#FEFFFE"/><path opacity=".875" fill-rule="evenodd" clip-rule="evenodd" d="M61.665 60.521c3.205-.645 4.875.64 5.01 3.854-1.8-.032-3.598 0-5.395.097.489.92 1.26 1.4 2.312 1.445a5.977 5.977 0 002.698-.964c.298.658.17 1.204-.385 1.638-1.769.695-3.503.63-5.203-.192-1.489-1.384-1.713-2.958-.675-4.722a8.061 8.061 0 011.638-1.156zm.964 1.156c.968-.062 1.674.323 2.12 1.157a10.528 10.528 0 01-3.47.096c.31-.599.76-1.016 1.35-1.253z" fill="#FEFFFE"/><path opacity=".876" fill-rule="evenodd" clip-rule="evenodd" d="M69.18 60.521c.838-.032 1.673 0 2.506.096.59.205 1.072.559 1.445 1.06a3.87 3.87 0 00.289-1.156h1.734a47.301 47.301 0 01-.385 3.276c.17 1.023.3 2.05.385 3.083a4.072 4.072 0 01-1.734-.192 5.58 5.58 0 01-.289-.771c-1.025 1.092-2.278 1.445-3.758 1.06-1.774-.82-2.449-2.202-2.023-4.144.23-1.094.84-1.865 1.83-2.312zm1.35 1.156c1.554.174 2.42 1.009 2.601 2.505-.897 1.628-2.117 1.95-3.661.964-.823-1.545-.47-2.7 1.06-3.469z" fill="#FEFFFE"/><path opacity=".877" fill-rule="evenodd" clip-rule="evenodd" d="M75.925 60.52h1.735c-.002.35.094.67.289.964.542-.768 1.28-1.09 2.216-.963 1.058-.081 1.893.304 2.505 1.156a2.235 2.235 0 011.35-1.06c2.09-.61 3.342.128 3.757 2.216.096 1.348.128 2.697.096 4.047H86.14a19.93 19.93 0 00-.29-4.432c-.56-.558-1.234-.718-2.023-.482a2.223 2.223 0 00-.674.867 16.094 16.094 0 00-.29 4.047H81.13c.031-1.415 0-2.828-.097-4.24-.484-.715-1.158-.94-2.023-.674a2.145 2.145 0 00-.867 1.253 34.665 34.665 0 00-.097 3.661h-1.734a32.478 32.478 0 00-.386-6.36z" fill="#FEFFFE"/><path opacity=".894" fill-rule="evenodd" clip-rule="evenodd" d="M90.378 60.521c1.094-.032 2.186 0 3.276.096.994.256 1.636.866 1.927 1.831l-.867.193a10.98 10.98 0 00-2.794-.964c-.616-.03-1.13.162-1.542.578.092.189.22.35.385.482.952.21 1.915.338 2.891.386 1.693.203 2.303 1.135 1.83 2.794-.404.571-.95.925-1.637 1.06a9.089 9.089 0 01-4.24-.386 2.971 2.971 0 01-1.156-1.638l.964-.193a8.775 8.775 0 002.986 1.157c.74.035 1.285-.255 1.639-.868a1.406 1.406 0 00-.579-.385c-.957-.17-1.92-.299-2.89-.385-1.66-.3-2.207-1.231-1.638-2.794a3.63 3.63 0 011.445-.964z" fill="#FEFFFE"/></svg>