<svg width="121" height="80" fill="none" xmlns="http://www.w3.org/2000/svg"><path d="M25.214 48.927c-.866-7.222-.722-14.522-.671-21.794 0-3.61.151-7.171.072-10.76a45.227 45.227 0 00-.39-5.228c-.123-.888-.296-1.77-.368-2.658a1.877 1.877 0 00-.578-1.444c-.86-.78-2.166.491-1.278 1.271.094.087.086.578.1.722.051.42.116.838.181 1.25.13.83.253 1.646.333 2.476.159 1.726.209 3.46.216 5.192 0 3.409-.072 6.825-.094 10.24 0 6.918-.144 13.865.68 20.747.136 1.141 1.942 1.155 1.797 0v-.014z" fill="#fff"/><path d="M25.213 48.594v-6.188c0-1.979-.202-3.928-.296-5.9-.21-4.26-.036-8.572-.036-12.84 0-4.137 0-8.167-.888-12.225a20.817 20.817 0 01-.137-5.445v-1.3c.024-.24.024-.482 0-.722V3.86c.065-.361-.138-.224-.607.418.21.08.65-.115.852-.173.491-.137.968-.318 1.444-.477 1.936-.62 4.001-.563 6.023-.628 2.022-.065 4.217-.108 6.326-.123 2.108-.014 4.138-.1 6.203-.057.99 0 1.957.202 2.939.31.982.109 2.03.072 3.04.123 2.044.108 4.066.282 6.117.282 2.05 0 4.137-.058 6.203.05 2.065.108 4.123.224 6.188.31 2.066.087 3.972.318 5.98.311h6.253c2 .1 4.003.046 5.994-.159a43.573 43.573 0 016.217-.173h2.701c.703-.077 1.41-.103 2.116-.08.802.066 1.127.333 1.112 1.156-.014.823-.058 1.813-.05 2.73 0 2.101 0 4.195.108 6.297.274 4.145 1.134 8.246 1.3 12.391.166 4.145-.065 8.276-.058 12.406a53.576 53.576 0 00.144 6.182c.163.998.235 2.008.217 3.019 0 .476-.173.599-.628.772a10.635 10.635 0 01-3.243.368c-1.762.08-3.51.304-5.278.318-4.232.043-8.435-.498-12.666-.455-4.232.044-8.406.361-12.616.426-4.21.065-8.5.065-12.746.087h-6.39a50.284 50.284 0 01-6.247-.549c-1.993-.274-3.993-.188-5.994-.282-1.032-.043-2.058-.187-3.09-.238-1.033-.05-2.08 0-3.12 0a21.18 21.18 0 01-2.708-.332 3.34 3.34 0 00-.657 0h-.556c-.318-.05-.267.043.166.282-.238-1.134-1.971-.657-1.74.476.296 1.444 2.115.874 3.126 1.112 2.073.491 4.246.072 6.355.275 2.109.202 4.333.166 6.5.274 2.166.108 4.245.657 6.405.722 8.99.188 18.053.145 27.029-.252 4.438-.244 8.887-.227 13.323.05 2.232.173 4.471.231 6.709.173 1.646-.05 3.271-.252 4.91-.317a9.032 9.032 0 003.56-.621c1.372-.665 1.488-1.914 1.445-3.3-.065-1.07-.253-2.13-.325-3.192-.073-1.062 0-2.167 0-3.272v-6.737c0-2.246.122-4.333.072-6.543a59.462 59.462 0 00-.607-6.499c-.281-2.245-.563-4.491-.722-6.744-.159-2.253-.108-4.434-.108-6.651 0-1.51.476-3.568-.83-4.672-1.113-.94-2.817-.658-4.146-.578-2.072.13-4.18.043-6.253 0-2.073-.043-4.153.404-6.261.347-4.333-.109-8.666.115-12.955-.224-2.166-.166-4.333-.16-6.456-.318-2.123-.159-4.333-.144-6.55-.144-2.217 0-4.42-.109-6.636-.253-1.018-.065-2.044 0-3.055-.109-1.01-.108-2.166-.317-3.278-.353-2.166-.065-4.333.043-6.543.057a229.6 229.6 0 00-6.672.138 22.098 22.098 0 00-6.275.78c-.629.202-1.33.317-1.943.541-.614.224-.722.809-.794 1.444-.065.867 0 1.755 0 2.636-.058 1.011-.13 2.03-.094 3.04.08 2.022.722 3.98.96 5.987a60.95 60.95 0 01.188 6.607v6.832c0 2.26-.05 4.527 0 6.788.05 2.072.325 4.13.325 6.21v6.535a.902.902 0 001.798 0l-.094-.022z" fill="#fff"/><path d="M98.907 4.638c.065 3.611.679 7.222.83 10.832.152 3.611.253 7.178.174 10.767-.08 3.59-.354 7.12-.368 10.688-.015 3.567 0 7.279.036 10.918a.902.902 0 001.798 0v-.902a.904.904 0 00-1.798 0v.902h1.798c0-3.61-.051-7.279-.036-10.918.014-3.64.296-7.12.375-10.688.08-3.567 0-7.185-.173-10.767-.173-3.581-.773-7.22-.838-10.832a.9.9 0 00-.899-.822.903.903 0 00-.899.822z" fill="#fff"/><path d="M22.73 48.595c0 2.614-1.517 4.787-2.629 7.07a68.4 68.4 0 01-4.275 6.924c-1.444 2.239-2.823 4.521-4.332 6.716-1.062 1.538-2.225 4.333-.925 6.03 1.206 1.567 3.546 1.9 5.373 2.08 2.455.245 4.94.34 7.409.354 2.816 0 5.633 0 8.434.245 2.889.275 5.835.498 8.76.722 5.69.405 11.38 1.22 17.093 1.264 2.946 0 5.863-.318 8.803-.426 2.816-.101 5.654 0 8.47-.21 1.336-.1 2.665-.317 4.015-.346h4.571c2.759 0 5.524.058 8.283 0a34.543 34.543 0 004.044-.397 32.4 32.4 0 014.578-.275c1.3 0 2.542-.281 3.827-.34 1.127-.057 2.282.181 3.337-.331 2.022-.997 2.693-3.61 2.621-5.655-.087-2.664-1.553-4.975-2.304-7.48-.433-1.445-.96-2.89-1.444-4.283a28.104 28.104 0 00-1.588-3.965 19.448 19.448 0 01-1.719-4.13c-.376-1.444-.672-2.889-1.119-4.254a.907.907 0 00-.988-.642.904.904 0 00-.782.88c.052 1.143.297 2.269.722 3.33.434 1.278.672 2.585.983 3.892.35 1.234.789 2.44 1.314 3.61.534 1.337 1.076 2.673 1.581 4.016.441 1.184.722 2.412 1.293 3.553.57 1.14 1.228 2.065 1.849 3.112a3.762 3.762 0 01.31 3.026 4.016 4.016 0 01-2.26 2.383c-2.311 1.155-4.759 1.199-7.286 1.148a23.28 23.28 0 00-3.683.202c-1.54.16-3.088.23-4.636.21-1.372.036-2.708.274-4.073.346-1.365.072-2.932 0-4.39-.043a60.667 60.667 0 00-8.341.072 74.636 74.636 0 01-8.529.217 25.005 25.005 0 00-4.03.123 34.876 34.876 0 01-4.332.325c-5.596.13-11.106-1.098-16.71-1.113-1.365 0-2.737 0-4.102-.108a30.455 30.455 0 01-4.333-.686c-2.722-.578-5.538-.123-8.29-.238-2.462-.108-4.888-.556-7.344-.722-.996-.08-4.57-.231-4.166-1.957.198-.503.49-.964.859-1.358.368-.491.65-1.01.982-1.524a40.17 40.17 0 002.217-3.704c.664-1.322 1.329-2.614 1.943-3.95a18.167 18.167 0 012.216-3.214 12.102 12.102 0 002.13-3.841c.217-.83.441-1.625.723-2.427a25.22 25.22 0 01.939-2.325 8.13 8.13 0 01.549-1.061c.063-.076.119-.159.166-.246.137-.31.144 0-.16 0 1.156.058 1.156-1.748 0-1.798-1.357-.065-2.057 2.058-2.462 3.026-.31.722-.592 1.444-.866 2.217-.275.772-.448 1.639-.722 2.447-.838 2.564-3.235 4.333-4.29 6.817a52.084 52.084 0 01-4.037 7.301c-1.047 1.668-2.982 3.61-1.444 5.553 1.228 1.546 3.445 1.719 5.272 1.856 2.6.195 5.163.672 7.777.758 1.524.051 3.047-.043 4.571-.05 1.46.018 2.913.197 4.333.534 2.997.621 6.059.47 9.099.55 3.098.12 6.187.398 9.257.83 2.855.333 5.736.389 8.601.166 1.553-.109 3.026-.39 4.593-.369 1.567.022 3.011 0 4.513 0 2.982 0 5.922-.34 8.897-.332 2.975.007 5.943.238 8.896.08 1.538-.08 3.048-.333 4.593-.354 1.535.008 3.07-.08 4.593-.267 2.809-.39 5.654.18 8.442-.477 2.166-.506 4.628-1.444 5.675-3.61a5.883 5.883 0 00.557-3.344 6.637 6.637 0 00-1.351-3.011 14.54 14.54 0 01-1.747-3.654c-.448-1.373-1.026-2.687-1.539-4.037-.512-1.35-1.184-2.694-1.61-4.08-.426-1.387-.606-2.78-1.004-4.138-.353-1.206-.931-2.39-.917-3.668l-1.762.238c.758 2.361 1.083 4.853 2.116 7.127.491 1.076 1.134 2.066 1.567 3.17.433 1.105.831 2.347 1.264 3.517.433 1.17.765 2.297 1.126 3.452.361 1.155.939 2.397 1.445 3.61.722 1.741.989 4.008 0 5.72a2.34 2.34 0 01-2.391 1.25 29.07 29.07 0 00-3.61.28c-1.25.116-2.513 0-3.77.066-1.394.094-2.766.347-4.152.498-5.394.6-10.883-.274-16.284.188-2.657.224-5.279.354-7.944.404-2.664.05-5.43.217-8.145.39-5.495.361-10.919-.34-16.378-.801-2.686-.224-5.38-.397-8.066-.6-2.802-.21-5.604-.563-8.413-.65-2.694-.086-5.387 0-8.08-.1a35.768 35.768 0 01-6.146-.535c-.845-.188-2.42-.549-2.592-1.596a4.476 4.476 0 01.346-1.776 5.935 5.935 0 01.722-1.56c1.575-2.405 3.127-4.824 4.687-7.221a69.214 69.214 0 004.333-7.222c1.184-2.433 2.563-4.629 2.6-7.423a.903.903 0 00-1.799 0l.022.029zm3.358-41.949c-.036 6.355.535 12.688.946 19.021.203 3.17.369 6.34.39 9.518-.033 3.08.228 6.155.78 9.185a.91.91 0 001.51.397c1.14-1.148.52-3.545.52-5.004V35.43a31.784 31.784 0 00-.066-4.145c-.159-1.329-.498-2.636-.671-3.964-.202-1.445-.498-2.889-.585-4.405-.166-2.853.137-5.727-.108-8.58a25.037 25.037 0 00-.824-4.498c-.288-1.025-.202-2.166-.953-3.04a.91.91 0 00-1.502.397l-.087.231c-.397 1.083 1.344 1.56 1.74.477l.08-.231-1.502.397c.303.34.231 1.162.318 1.596.137.722.39 1.386.549 2.094.326 1.572.481 3.175.462 4.78 0 3.373-.116 6.68.484 10.016.274 1.538.534 3.098.787 4.644.154 1.634.178 3.279.072 4.917 0 1.603-.05 3.221 0 4.824 0 .433.065.867.087 1.3 0 .282.13 1.033-.094 1.256l1.51.398a50.672 50.672 0 01-.723-9.388c-.043-3.055-.21-6.11-.412-9.164-.411-6.217-.96-12.428-.924-18.667a.903.903 0 00-1.798 0l.014-.029z" fill="#fff"/><path d="M26.318 7.21c3.683 0 7.344-.311 11.034-.34 3.69-.029 7.438-.332 11.164-.325 3.727.007 7.467 0 11.193 0h5.633a24.63 24.63 0 012.52 0c.809.072 1.61.245 2.42.31 1.754.145 3.523-.036 5.285.094s3.611.231 5.424.203c1.812-.03 3.61.317 5.401.39 1.791.072 3.61.353 5.38.303.375 0 .722-.05 1.12-.08l.721-.043c.18 0 .722.087.845 0s.246.195 0-.13c-.245-.325-.086-.072-.115.043a3.36 3.36 0 000 .723 12.007 12.007 0 00-.05 1.848c.064.838.23 1.668.295 2.499.05.962.05 1.926 0 2.888 0 1.849.224 3.676.29 5.517.144 4.088-.203 8.204.086 12.276.23 2.031.274 4.078.13 6.117a52.478 52.478 0 00-.188 6.124h1.798V30.195a42.87 42.87 0 000-4.622c-.123-1.51-.34-2.997-.361-4.52 0-1.676.072-3.344 0-5.02 0-1.516-.34-2.982-.448-4.484a7.176 7.176 0 00-.397-2.029 6.405 6.405 0 01-.534-2.166.902.902 0 00-1.798 0c0 1.495.816 2.737.931 4.195.116 1.459.412 2.976.448 4.485.036 1.675-.058 3.343 0 5.019 0 1.523.245 3.004.368 4.52a42.87 42.87 0 010 4.622c-.05 1.74 0 3.48 0 5.22v10.32a.903.903 0 001.798 0 52.086 52.086 0 01.13-5.618 26.982 26.982 0 000-5.611c-.332-3.762-.144-7.604-.137-11.374 0-1.92-.188-3.813-.296-5.719-.108-1.906.087-3.755-.166-5.633a13.453 13.453 0 01-.21-2.462c0-.534.13-1.069.109-1.61a1.61 1.61 0 00-1.755-1.72c-1.033-.05-2.058.145-3.09.124-1.85-.036-3.698-.224-5.547-.318-.88-.043-1.74-.26-2.62-.34-1-.05-2-.05-2.998 0-1.856 0-3.69-.187-5.538-.288-1.85-.101-3.51.108-5.265-.145a38.33 38.33 0 00-5.539-.224H52.077c-4.283 0-8.536.152-12.811.282-2.166.072-4.268.043-6.405.202-2.138.16-4.333.18-6.543.18a.903.903 0 000 1.799v-.05z" fill="#fff"/><path d="M29.337 46.14c4.333 0 8.622-.225 12.933-.059s8.622.722 12.948.975c4.21.231 8.413-.05 12.623.325 2.066.16 4.141.136 6.203-.072a59.905 59.905 0 016.319-.498c2.26.05 4.484-.42 6.73-.57 2.412-.167 4.83-.102 7.221-.102v-1.798h-13.72c-.975 0-1.943-.065-2.889-.065a20.86 20.86 0 00-3.134.375 43.744 43.744 0 01-6.593.398c-2.166 0-4.333-.08-6.535-.072-2.203.007-4.492.317-6.752.36-2.26.044-4.333 0-6.55 0h-2.953a13.38 13.38 0 01-1.445 0c-.585-.05-1.134-.267-1.711-.346-1.112-.159-2.224-.13-3.336-.361a26.727 26.727 0 00-3.308-.246c-1.076-.093-1.986-.671-3.083-.722-1.098-.05-2.203-.296-3.322-.354-1.12-.057-1.155 1.74 0 1.798.96.051 1.885.325 2.889.347.474-.009.947.06 1.4.202.407.182.827.331 1.257.448.982.188 2 .08 2.99.173.989.094 2.108.376 3.199.426.953.05 1.812.318 2.75.42 1.06.057 2.12.057 3.178 0h6.5c2.21 0 4.39-.268 6.593-.34 2.202-.072 4.477 0 6.715 0a61.122 61.122 0 006.5-.18 36.315 36.315 0 002.953-.405 15.38 15.38 0 013.257-.13c5.055.166 10.11 0 15.2 0a.903.903 0 000-1.798c-2.166 0-4.26-.05-6.39.05-2.13.101-4.03.44-6.059.607-.96.072-1.928 0-2.888 0-1.141.058-2.282.231-3.416.347-2.053.255-4.12.365-6.189.332-2.087-.08-4.138-.368-6.232-.347-2.094.022-4.239.072-6.354 0-4.333-.166-8.666-.722-12.999-.968-4.83-.31-9.676 0-14.515 0a.903.903 0 000 1.799l.015.05zm-1.682 7.047c1.163-.108 2.268.376 3.401.55 1.445.209 2.889.252 4.333.331 2.96.174 5.893.542 8.853.65 2.961.108 5.72.462 8.58.686 2.859.224 5.877.087 8.831.043 2.953-.043 5.95.412 8.94.448 2.99.036 5.986 0 8.983 0 1.445 0 2.889 0 4.333-.065 1.444-.065 2.889-.346 4.333-.383 1.444-.036 2.7.051 4.051.066 1.033 0 2.065-.152 3.098-.102a1.213 1.213 0 011.025.354c.285.468.546.95.78 1.444a30.6 30.6 0 011.914 3.611c.614 1.372 1.155 2.766 1.733 4.152.578 1.387 1.155 2.55 1.61 3.871.116.325.614 1.581.491 1.784-.317.09-.641.16-.967.21-1.293.252-2.593.266-3.885.49a27.254 27.254 0 01-4.275.195c-1.343 0-2.65.347-4 .368-1.351.022-2.716.239-4.081.354a35.744 35.744 0 01-4.217 0c-2.81-.086-5.64.217-8.428-.108a33.687 33.687 0 00-4.26-.289c-1.444 0-2.889.094-4.333.072-1.444-.021-2.888-.288-4.333-.353-1.444-.066-2.888-.13-4.332-.253-1.445-.123-2.889-.065-4.333-.166a40.631 40.631 0 00-4.08-.29 21.975 21.975 0 01-4.333-.266c-1.285-.224-2.578-.268-3.863-.448-1.286-.18-2.564-.52-3.878-.636-1.314-.115-2.816-.296-4.232-.31-2.462 0-4.903.108-7.358.144a6.738 6.738 0 01-3.12-.455l.412.535c-.16-.636.585-1.329.888-1.842.404-.722.664-1.444 1.032-2.166.845-1.64 1.567-3.33 2.376-4.983.81-1.653 1.748-3.105 2.463-4.73.2-.669.44-1.325.722-1.964a2.036 2.036 0 00.289-1.79.925.925 0 00-1.105-.63c-1.177.29-1.683 1.676-2.087 2.673-.6 1.444-1.444 2.758-2.166 4.145a24.207 24.207 0 00-2.051 5.33c-.26.984-.588 1.949-.982 2.888-.16.382-.26.78-.405 1.162-.05.123-.1.246-.159.369-.173.36-.368.36.087.325-1.148.093-1.155 1.899 0 1.798 1.502-.123 1.784-2.167 2.26-3.264.81-1.87 1.076-3.9 1.87-5.777.795-1.878 1.85-3.387 2.709-5.12.238-.477.404-.997.613-1.488.138-.318.434-1.227.795-1.314l-1.105-.636c.108.347-.491 1.048-.607 1.445a11.678 11.678 0 01-.859 2.253c-.773 1.495-1.61 2.953-2.304 4.491-.693 1.539-1.444 2.976-2.166 4.477a14.448 14.448 0 01-.975 1.95 5.547 5.547 0 00-.895 1.712c-.723 2.975 4.369 2.477 6.08 2.376a59.824 59.824 0 019.171.158c1.596.152 3.141.527 4.73.722 1.589.195 3.163.376 4.744.607 1.582.231 3.25 0 4.882.108 1.632.109 3.199.347 4.831.354 1.798 0 3.567.318 5.365.34 1.799.021 3.373.31 5.055.353 1.683.044 3.46-.072 5.192-.064 1.734.007 3.358.31 5.055.397 1.697.086 3.337 0 5.005 0 1.668 0 3.257.1 4.881.086 1.625-.014 3.236-.332 4.86-.404.722-.036 1.48 0 2.224-.116a22.639 22.639 0 012.607-.274c.823 0 1.647.058 2.47.043a20.032 20.032 0 002.275-.317 37.637 37.637 0 004.383-.607c3.026-.758.888-4.687.108-6.5-1.35-3.09-2.44-6.34-4.217-9.228-.585-.953-1.01-2.304-2.101-2.787-1.09-.484-2.318-.282-3.438-.21-1.444.094-2.939-.043-4.412-.043-1.668 0-3.293.274-4.954.375-3.48.224-6.99 0-10.478.058-1.834 0-3.668 0-5.502-.072-1.835-.072-3.481-.354-5.236-.376-3.48-.043-6.91.232-10.391-.065-1.705-.144-3.409-.36-5.113-.505-1.704-.145-3.473-.145-5.214-.246-1.74-.1-3.466-.346-5.206-.462-1.74-.115-3.467-.159-5.192-.346-1.372-.16-2.708-.766-4.116-.636-1.142.108-1.149 1.914 0 1.806l.021-.073z" fill="#fff"/><path d="M31.454 53.288a24.185 24.185 0 01-1.358 7.98A26.943 26.943 0 0029 65.095c-.202 1.047-.267 2.463-.81 3.401-.54.94.723 1.856 1.445 1.09a3.53 3.53 0 00.932-1.292c.397-1.09-1.336-1.56-1.733-.476-.065.18-.34.36-.47.498l1.408 1.09c.505-1.125.822-2.325.94-3.553a27.9 27.9 0 011.155-4.101 25.996 25.996 0 001.444-8.464.903.903 0 00-1.806 0h-.05zm8.059 1.012c.094 1.032-.6 2.021-.679 3.054-.115 1.358-.094 2.722-.224 4.08a30.317 30.317 0 01-.722 3.928c-.144.629-.296 1.264-.382 1.914a4.53 4.53 0 01-.231 1.567l1.675.455v-.57a.903.903 0 00-1.806 0v.57a.903.903 0 001.676.455 3.56 3.56 0 00.419-1.697c.035-.607.13-1.21.281-1.798.352-1.405.63-2.827.83-4.26.167-1.402.203-2.817.26-4.225.051-1.199.817-2.253.723-3.474-.094-1.22-1.907-1.155-1.798 0h-.022zm7.502.787c.592.967.159 2.534.043 3.61-.144 1.387-.317 2.766-.419 4.153-.209 2.931-.079 5.9-.086 8.839h1.805v-1.264a.903.903 0 10-1.805 0v1.264a.903.903 0 001.805 0c0-3.156-.13-6.333.137-9.475.13-1.495.31-2.99.463-4.477.13-1.206.281-2.448-.39-3.538-.672-1.09-2.167-.08-1.553.91v-.022zm8.94-.455v4.332c.087 1.47.073 2.944-.043 4.413a27.865 27.865 0 00-.318 4.173c0 .607 0 1.206.05 1.813.087.48.067.973-.057 1.444l.628-.628-.281.05c-1.134.203-.657 1.943.476 1.74 1.445-.252 1.047-1.978 1.004-3.032a22.567 22.567 0 01.159-4.578c.203-1.578.266-3.17.188-4.76v-4.946a.903.903 0 00-1.798 0l-.008-.021zm8.052 1.003c0 2.889.188 5.777.282 8.666.043 1.393 0 2.787.108 4.174.108 1.386.267 2.715.282 4.087a.902.902 0 001.798 0V71.06a.903.903 0 00-1.798 0v1.502h1.798c0-1.322-.174-2.621-.275-3.936-.1-1.444-.065-2.888-.108-4.333-.094-2.888-.282-5.777-.289-8.665a.902.902 0 00-1.798 0v.007zm9.063 1.011a35.379 35.379 0 000 4.196v4.246c0 1.415.036 2.758 0 4.13-.05.652-.05 1.306 0 1.957.058.499.39.997.39 1.445h1.798v-1.235a.903.903 0 00-1.798 0v1.235a.903.903 0 001.798 0 6.62 6.62 0 00-.383-1.445 8.238 8.238 0 010-1.978c.065-1.372 0-2.752 0-4.13V60.82a35.379 35.379 0 010-4.196c.109-1.148-1.69-1.14-1.798 0l-.007.022zm7.747-.332c.023 1.412.159 2.82.405 4.21.202 1.322.303 2.65.419 3.98.092 1.278.253 2.55.483 3.812.349 1.312.59 2.65.722 4a.903.903 0 001.798 0v-.57a.902.902 0 00-1.798 0v.57h1.798a20.523 20.523 0 00-.65-3.906 28.405 28.405 0 01-.534-3.907c-.115-1.285-.216-2.57-.397-3.849a28.326 28.326 0 01-.426-4.333.903.903 0 00-1.805 0l-.015-.007zm8.666-1.011a9.661 9.661 0 001.14 4.008 46.26 46.26 0 012.037 4.831c.304.787.68 1.56.925 2.369.178.757.42 1.499.722 2.217.287.586.45 1.225.476 1.877a2.117 2.117 0 00.564 1.675.916.916 0 001.502-.397l.08-.23c.396-1.091-1.344-1.56-1.734-.477l-.08.223 1.503-.397a8.252 8.252 0 01-.152-1.444 9.772 9.772 0 00-.672-1.885c-.317-.722-.411-1.502-.722-2.231-.31-.73-.563-1.387-.83-2.087-.542-1.444-1.069-2.889-1.733-4.225a9.445 9.445 0 01-1.278-3.856c-.044-1.155-1.842-1.155-1.799 0l.051.03z" fill="#fff"/><path d="M25.87 56.43a3.061 3.061 0 001.936 1.191c.982.275 1.972.542 2.968.722 2.55.535 5.142.802 7.705 1.25 2.528.5 5.089.814 7.662.938 1.285 0 2.57 0 3.856.123 1.408.109 2.81.304 4.225.405 1.263.094 2.534.108 3.805.13 1.355.034 2.704.174 4.037.419 2.506.44 5.055.245 7.554.505 5.366.46 10.755.615 16.14.462h4.397c1.394.108 2.794.108 4.188 0a19.036 19.036 0 013.134-.303c.722 0 1.712 0 2.066-.722a.924.924 0 00-.535-1.329l-.303-.08a.903.903 0 00-.484 1.734l.303.086-.534-1.321c.13-.289.21-.08-.13-.137h-.477a9.337 9.337 0 00-1.003 0c-1.112.057-2.167.39-3.3.426-2.326.057-4.651-.116-6.976-.087-5.055.05-10.11.217-15.107-.31-2.463-.253-4.947-.167-7.402-.434-1.076-.115-2.13-.383-3.206-.52a36.043 36.043 0 00-3.748-.151c-2.585-.058-5.127-.448-7.705-.578-2.412-.13-4.78-.108-7.178-.462-2.68-.397-5.351-.852-8.03-1.264a36.824 36.824 0 01-4.044-.823c-.484-.13-1.986-.289-2.253-.722-.607-.982-2.167-.08-1.56.91v-.058zm-2.91 8.167c5.415.44 10.831.845 16.262 1.3 2.621.224 5.242.44 7.856.722 2.615.281 5.294.08 7.886.477 1.14.163 2.293.226 3.445.187 1.376-.008 2.75.096 4.109.31 1.17.217 2.35.362 3.538.434 1.293.036 2.585-.108 3.878-.043 1.293.065 2.47.303 3.712.332 1.242.029 2.412-.05 3.61-.094 2.535-.064 5.072.02 7.597.253 2.84.236 5.691.277 8.536.123 1.444-.08 2.924-.26 4.39-.29 1.466-.028 3.026 0 4.542 0v-1.84h-1.516a.904.904 0 00-.586 1.507c.153.167.361.27.586.29h1.516a.903.903 0 000-1.798c-2.65 0-5.271 0-7.943.217a63.317 63.317 0 01-7.676.058c-2.499-.101-4.961-.455-7.474-.42a59.929 59.929 0 01-7.64 0c-2.412-.274-4.839.087-7.222-.274-1.235-.18-2.47-.382-3.712-.498-1.393-.123-2.765 0-4.159-.08-1.191-.072-2.347-.324-3.546-.36-1.198-.037-2.541-.08-3.805-.152-2.68-.159-5.344-.498-8.016-.722l-18.183-1.444c-1.155-.094-1.148 1.711 0 1.805h.014z" fill="#fff"/></svg>