<svg width="121" height="80" fill="none" xmlns="http://www.w3.org/2000/svg"><path d="M77.6 37.426h.02a2.928 2.928 0 00-.29-.05l-.28-.07c-.07 0-.41-.14-.19-.05.22.09-.08 0-.13-.06l-.27-.12-.57-.32c-.37-.22-.72-.46-1.08-.71l-.48-.34c-.22-.15.22.17 0 0l-.3-.23c-.17-.14-.34-.29-.49-.44l-.24-.23c-.07-.07-.16-.22-.25-.27-.09-.05.29.34 0 0a2.21 2.21 0 00-.2-.23l-.21-.26-.49-.53-.44-.49.08.09s-.08-.1-.11-.13l-.22-.3a9.35 9.35 0 01-.71-1.17 1.006 1.006 0 01-.07-.15c-.08-.15.05.12.05.12-.037-.1-.08-.196-.13-.29-.09-.22-.18-.43-.26-.65a8.464 8.464 0 01-.39-1.3.95.95 0 010-.16v.13c.01-.11.01-.22 0-.33 0-.24-.02-.48-.06-.72 0-.49-.05-1-.06-1.46-.01-.46 0-.9 0-1.35v-1.06c.107-.91.274-1.812.5-2.7.11-.47.24-.92.39-1.37.06-.21.14-.42.21-.62a.489.489 0 000-.16s-.1.29 0 .12l.14-.35c.38-.93.73-1.86 1.05-2.81l.21-.62.05-.2c0-.16-.05.12-.05.12.062-.11.109-.228.14-.35.191-.443.408-.874.65-1.29.1-.194.21-.384.33-.57l.17-.28a1.31 1.31 0 00.22-.32s-.17.23-.07.1c.037-.041.07-.085.1-.13l.21-.26c.14-.17.29-.33.45-.49l.22-.21s.3-.25.12-.11.08-.06.13-.1l.28-.21c.374-.26.754-.5 1.14-.72.42-.24.83-.48 1.26-.7l.3-.15.18-.09c-.18.09.14-.06.19-.08l.37-.15c.89-.35 1.82-.61 2.7-1a15.42 15.42 0 012.65-.93l.31-.07h-.14.15l.7-.08c.45-.05.91-.08 1.36-.1a13.68 13.68 0 011.43 0h.73l.39.05c.92.136 1.828.333 2.72.59l.66.19.32.1h.05c.392.17.77.37 1.13.6.17.1.32.21.48.32.16.11-.12-.09-.12-.08l.12.08.27.21 1 .75.73.52.13.09s-.23-.19-.11-.07l.26.23c.3.28.56.59.83.89.27.3.65.6 1 .89.17.15.33.31.48.48a1.5 1.5 0 00.11.13s-.18-.23-.08-.09l.23.31a21.56 21.56 0 011.311 2.42c.1.2.22.38.33.57.11.19.12.19.17.29.05.1.1.21 0 0s0 0 0 .08c.19.44.33.91.51 1.36.366.874.66 1.777.88 2.7 0 .22.1.45.14.67a.966.966 0 000 .17v-.12l.06.39c.07.49.13 1 .16 1.46v.66c-.01.123-.01.247 0 .37-.11.452-.25.896-.42 1.33-.15.46-.29.91-.43 1.37-.07.22-.15.43-.22.65-.07.22 0-.11 0-.11a.761.761 0 00-.06.16l-.15.36c-.12.29-.23.58-.33.88-.05.12-.09.24-.13.36l-.06.15c-.07.19 0 0 0-.07a6.41 6.41 0 00-.25.61c-.1.21-.21.41-.32.62-.23.39-.46.79-.7 1.18l-.35.56-.18.27-.09.13c-.12.18.16-.22 0-.06a22.194 22.194 0 01-1.72 2.15l-.46.45c-.2.2.2-.12 0 0l-.31.19a7 7 0 00-1.3.93c-.16.13-.31.28-.46.42-.15.14.22-.16 0 0l-.29.22c-.367.266-.751.506-1.15.72l-.28.14-.14.07.13-.06-.62.26c-.4.16-.81.3-1.22.43-.86.27-1.74.52-2.63.71l-.68.14h.06-.17l-.4.06c-.48.06-1 .11-1.45.15-.968.08-1.94.11-2.91.09h-.33c-.31 0 .26 0 0 0s-.49 0-.74-.09c-.47-.06-.94-.09-1.4-.19a13.148 13.148 0 01-1.23-.22s.27.13.13 0h-.13l-.27-.14a3.377 3.377 0 00-.92-.33 6.176 6.176 0 00-.62-.13c-.15 0 .11 0 .13.06a.688.688 0 00-.15-.07l-.33-.16a6.36 6.36 0 01-.58-.3 3.452 3.452 0 01-.64-.4s.24.18.11.07l-.12-.1a2.439 2.439 0 01-.25-.2l-.51-.47c-.31-.31-.61-.64-.91-1-.6-.66-1.2-1.32-1.83-2-.34-.35-.66-.71-1-1.08l-.44-.52-.11-.13.08.1c0-.09-.14-.2-.19-.28l-.15-.24s0-.1-.06-.13.12.3.06.14c-.06-.16-.15-.39-.22-.59-.13-.38-.24-.78-.37-1.16a14.35 14.35 0 00-1.27-2.54c-.21-.36-.43-.73-.63-1.11l-.13-.27a.916.916 0 01-.07-.14l.06.13c-.08-.2-.17-.4-.24-.6-.07-.2-.11-.39-.16-.58v-.15.16a2.41 2.41 0 000-.38c-.06-.52-.12-1-.17-1.55a14.543 14.543 0 01-.1-1.46v-.3a.856.856 0 000-.16v.16c.052-.22.088-.445.11-.67.05-.21.1-.41.16-.61s.07-.2.1-.3a.875.875 0 000-.15c0 .08-.11.27 0 .09.173-.416.374-.82.6-1.21.46-.81 1-1.56 1.54-2.32l.18-.26.09-.13-.07.1c.14-.17.26-.36.4-.54.268-.355.562-.69.88-1 .34-.3.67-.61 1-.93l.5-.51s.22-.17.23-.22c.01-.05-.23.18-.09.08l.16-.14c.77-.61 1.41-1.32 2.13-2l.23-.21c.12-.11-.1.08-.11.09-.01.01.09-.08.13-.1a5.46 5.46 0 01.58-.4l1.28-.79c.82-.5 1.65-1 2.5-1.45l.61-.32.31-.15.15-.07c.2-.1-.25.11-.05 0 .43-.2.87-.377 1.32-.53.46-.16.92-.29 1.39-.41l.65-.14.33-.07h.08c.93-.14 1.86-.25 2.79-.32.44 0 .88-.06 1.32 0h1.03c.428.061.852.148 1.27.26l.59.17.3.1c.16 0-.13-.05-.13-.05l.19.08c.394.159.778.342 1.15.55.18.1.35.21.52.32l.26.17a.59.59 0 00.13.09c-.08 0-.23-.16-.07-.05a18.423 18.423 0 012 1.74c.31.31.6.63.89 1l.1.12-.09-.1.2.24.41.54a25.28 25.28 0 011.49 2.22s.12.27.16.28c.04.01-.13-.27-.05-.1.019.055.042.108.07.16.1.24.2.48.31.71.11.23.23.53.35.79l.14.28s-.12-.25-.05-.09l.17.38c.4.92.81 1.85 1.17 2.79.292.875.519 1.77.68 2.68 0 .11 0 .23.07.34.07.11 0-.12 0-.12v.17c.042.245.068.492.08.74v.69c0-.26 0 .23 0 0 0 .12 0 .25-.05.37a16.835 16.835 0 01-.64 2.6c-.06.2-.13.4-.21.6-.09.28.1-.25 0 0l-.14.35c-.16.4-.34.81-.53 1.2-.39.82-.82 1.61-1.27 2.39-.9 1.54-1.9 3-2.91 4.46-.17.24.16-.21 0 0l-.18.24c-.14.17-.28.34-.43.5l-.22.22s-.29.25-.13.12c.16-.13-.1.09-.14.12l-.3.25a13.19 13.19 0 01-2.28 1.57c-.11.06-.2 0 .08 0a.587.587 0 00-.14.06l-.29.12a5.38 5.38 0 01-.65.2c-.46.13-.93.2-1.39.29-1 .2-1.94.44-2.9.67-.49.12-1 .24-1.48.34a.89.89 0 00-.16 0s.3-.05.13 0h-.34l-.71.07a12.34 12.34 0 01-1.36 0h.14a.985.985 0 00-.17 0h-.33l-.71-.15c-.4-.1-.79-.25-1.19-.36l-.54-.15-.17-.05c.24.09 0 0-.09-.06s.13.11.14.11c-.16-.15.01 0 0 0 .16.15 0-.05 0-.12a2.63 2.63 0 00-.38-.56 2.559 2.559 0 00-.47-.46l-.19-.17c-.12-.07.11.13.11.16s-.08-.13-.08-.14c-.68.73-1.35 1.46-2 2.18l.17.09c-.187-.14-.217-.16-.09-.06l.22.19c.18.16.37.31.56.46.49.38 1 .73 1.51 1.06a1.54 1.54 0 002.08-.63 1.58 1.58 0 00-.63-2.08l-.38-.25a1.653 1.653 0 00-.27-.19c.17.13.19.14 0 0l-.13-.1-.31-.24a8.125 8.125 0 00-1.33-1 1.57 1.57 0 00-1.85.31 1.61 1.61 0 00-.17 1.87c.137.245.32.463.54.64l.2.17c.06 0 .31.31.15.1s0 0 0 .11.09.16.13.23c.18.318.43.591.73.8.474.304.999.52 1.55.64.42.11.82.26 1.24.37a12.52 12.52 0 006.43-.14c1-.25 2.05-.5 3.08-.72a10.07 10.07 0 005.49-2.49 11.44 11.44 0 002.19-2.15 38.534 38.534 0 005.72-10.23c.303-.882.527-1.789.67-2.71a8.526 8.526 0 00.13-1.74 12.805 12.805 0 00-.24-1.84 19.934 19.934 0 00-.7-2.85c-.18-.48-.4-.94-.6-1.41-.2-.47-.4-1-.61-1.49-.13-.3-.27-.6-.41-.9l-.05-.1-.17-.38a17.06 17.06 0 00-.74-1.63 25.972 25.972 0 00-1.54-2.31 19.01 19.01 0 00-4.07-4.13 11.93 11.93 0 00-5.51-2.35 19.81 19.81 0 00-6 .21 20.141 20.141 0 00-3.16.74c-1.037.364-2.04.816-3 1.35-.91.47-1.78 1-2.65 1.53a15.591 15.591 0 00-2.64 1.84c-.34.31-.66.65-1 1l-.45.45h-.05l-.3.24c-.445.373-.87.77-1.27 1.19-.33.34-.68.65-1 1a16.25 16.25 0 00-1.88 2.41 27.402 27.402 0 00-1.59 2.43 9.712 9.712 0 00-1.08 2.89 10.47 10.47 0 00-.05 3.21c.05 1.081.218 2.154.5 3.2.348.932.79 1.827 1.32 2.67.233.38.453.76.66 1.14 0 .06.11.3.16.31.05.01-.13-.29-.07-.14a.776.776 0 01.05.14c.09.21.16.42.23.64a9.25 9.25 0 001.11 2.63c.33.46.73.89 1.1 1.32.37.43.66.76 1 1.12.67.67 1.29 1.38 1.93 2.08a10.159 10.159 0 003.55 2.72c.293.143.597.263.91.36.24.06.48.08.72.14 0 0 .13.06.16 0s-.27-.13-.14 0c.084.056.175.103.27.14.3.15.61.276.93.38.448.17.91.3 1.38.39a23.55 23.55 0 003.25.34c2.137.051 4.273-.16 6.36-.63a20.41 20.41 0 005.53-2 9.327 9.327 0 001.18-.79c.26-.2.5-.4.74-.62l.23-.21.12-.11c-.21.19 0 0 .06 0l.13-.09.27-.17a6.74 6.74 0 00.63-.37 9.064 9.064 0 001.24-1.16 24.432 24.432 0 003.41-5c.258-.529.482-1.073.67-1.63.08-.2.15-.41.23-.61.08-.2-.11.26 0 .07l.06-.15.15-.37c.4-1 .68-2.09 1.07-3.13a7.452 7.452 0 00.36-3.14 23.03 23.03 0 00-.54-3.28 28.025 28.025 0 00-1-2.83 12.721 12.721 0 00-.68-1.67c-.22-.43-.49-.82-.7-1.26a13.47 13.47 0 00-1.46-2.52 8.326 8.326 0 00-1.24-1.27 6.5 6.5 0 01-.91-.91 6.998 6.998 0 00-.91-.9l-.53-.38-.13-.09.11.08-.56-.42a21.117 21.117 0 00-2.35-1.65 12.13 12.13 0 00-2.93-1.08 20.182 20.182 0 00-2.89-.55 18.69 18.69 0 00-6.41.38c-.939.28-1.86.614-2.76 1-1 .36-1.93.64-2.85 1.06a15.16 15.16 0 00-5.2 3.43 15.63 15.63 0 00-2.95 5.6l-.21.62-.13.36c-.05.17.05-.11.05-.11a.702.702 0 00-.08.2c-.22.54-.45 1.07-.65 1.62a21.06 21.06 0 00-.82 2.78 23.871 23.871 0 00-.49 6c.007 1.09.151 2.175.43 3.23a14.18 14.18 0 001.26 3.05c.555.891 1.205 1.72 1.94 2.47.09.1.18.19.26.29.08.1.26.31.13.14-.13-.17.21.26.2.24l.1.12c.09.11.19.21.29.32.336.33.697.634 1.08.91 1.62 1.18 3.27 2.37 5.35 2.44a1.55 1.55 0 001.48-1.6 1.56 1.56 0 00-1.59-1.47l-.02-.02z" fill="#fff"/><path d="M70.38 35.776l.17-.14c.58-.13.74-.18.47-.16h-.16c-.252 0-.504.03-.75.09a4.59 4.59 0 00-1 .3 9.47 9.47 0 00-2.07 1.24 21.808 21.808 0 00-3.28 3c-.47.53-.9 1.1-1.36 1.64a11.464 11.464 0 00-1.42 1.9c-.15.27-.3.54-.48.8 0 0-.2.32-.06.1s0 .07-.07.09l-.33.46c-.458.642-.879 1.31-1.26 2-.432.715-.79 1.472-1.07 2.26-.23.67-.34 1.38-.55 2.06-.43 1.49-.91 3-1.24 4.48a19.937 19.937 0 00-.28 5c0 .76 0 1.52.11 2.28.11.76.21 1.58.24 2.39.03 1.83.221 3.653.57 5.45.17.78.43 1.54.57 2.32a2.36 2.36 0 001.71 2 1.54 1.54 0 10.71-3c-.25-.06.24.1.29.14.05.04.35.43.25.23 0 0 .15.4.09.18v-.13c-.06-.22-.09-.45-.14-.67-.16-.71-.38-1.41-.53-2.12v-.29c0-.1 0 .39 0 0 0-.16-.05-.31-.07-.47 0-.38-.09-.77-.13-1.16-.08-.75-.13-1.5-.15-2.26a17.4 17.4 0 00-.18-2.28 15.665 15.665 0 01-.17-2.27c0-.75-.06-1.51-.06-2.26v-1.31c-.06.37 0 .09 0 0s.07-.42.1-.63c.315-1.47.706-2.921 1.17-4.35.21-.68.37-1.35.54-2l.12-.41a3.03 3.03 0 01.08-.25c-.16.35.06-.22 0 0 .16-.35.34-.67.51-1 .34-.62.66-1.25 1.05-1.84l.11-.17-.05.07c.09-.14.21-.28.31-.42.26-.36.52-.71.75-1.09.23-.38.3-.55.47-.81 0-.06.09-.12.12-.17-.11.25-.13.16 0 .06l.36-.44c.43-.51.85-1 1.28-1.55a20.832 20.832 0 011.56-1.69c.27-.27.55-.52.83-.77.07-.05.13-.12.21-.17l-.14.11.16-.13.42-.33c.32-.24.63-.47 1-.69l.45-.26c.24-.14 0 0-.07 0a1.62 1.62 0 01.3-.13c.182-.072.37-.129.56-.17h-.09.24a2.139 2.139 0 001.65-.68 1.54 1.54 0 00-2.25-2.09l-.12.11z" fill="#fff"/><path d="M59.18 72.246a1.999 1.999 0 00-.85.52 1.54 1.54 0 002 2.34c.3-.23-.78.09-.39.12h2.16c.89 0 1.77-.07 2.66-.14 1.73-.14 3.46-.3 5.2-.35.84 0 1.69 0 2.54-.08.85-.08 1.72-.11 2.59-.09h.28c.22 0 .44.05.65.08l1.36.19c.87.12 1.73.25 2.6.35a23.13 23.13 0 005.32.19c.87-.1 1.74-.21 2.61-.26h1.54c.41 0-.33-.05.07 0l.7.09c1.76.153 3.526.196 5.29.13a11.657 11.657 0 002.82-.36l.56-.16c.214-.088.44-.142.67-.16h-.07.33l.681-.07c1-.1 2-.21 3-.39.22 0 .45-.07.66-.13-.33 0 .37-.1 0 0h.37c.432.04.867.04 1.3 0l.51-.09.23-.05h-.07l.67-.06a10.34 10.34 0 001.35-.11l.62-.11h.16-.14c.214-.04.435-.04.65 0 .308.009.617-.018.92-.08l.25-.09c.15-.06.43-.08 0 0a1.541 1.541 0 001.053-2.706 1.537 1.537 0 00-1.173-.364 2.578 2.578 0 00-.82.19.592.592 0 00-.16.06h.22-.21a8.275 8.275 0 00-1.51-.07 1.131 1.131 0 01-.32.06h.19-.78c-.42 0-.83 0-1.24.1l-.63.11h-.03c0 .06-.47 0-.53 0a6.22 6.22 0 00-1.14 0c-.33 0-.64.12-1 .18l-.22.05c-.38.08.35-.05 0 0l-1.26.16c-.92.1-1.85.17-2.76.33-.42.08-.83.2-1.24.32l-.56.14c-.39.09.34 0-.05 0h-.34c-.86.09-1.71.06-2.57.08-.86.02-1.69 0-2.55 0h-.34c-.39 0 .24 0 0 0l-.64-.07a14.195 14.195 0 00-1.6-.14 18.796 18.796 0 00-2.6.14 25.58 25.58 0 01-2.62.24H82c-.23 0-.47-.05-.7-.07-1.74-.2-3.46-.5-5.2-.69a39.827 39.827 0 00-5.46 0c-1 0-2 0-3 .1s-1.92.17-2.88.24c-.96.07-2 .13-3 .17l-1.45.06a2.81 2.81 0 00-1.73.37l1.95 2.34-.47.32a1.54 1.54 0 00-.93-2.93l.05.05z" fill="#fff"/><path d="M100.281 37.666v-.14l-1 1.11c.25-.09-.1 0-.14 0h-.16c.22 0-.11 0-.14-.06.048.027.098.05.15.07.21.12.4.27.61.39l.69.4.32.2.16.11c.15.11-.28-.2-.06 0 .429.345.839.712 1.23 1.1.43.41.89.8 1.3 1.23.115.091.216.2.3.32l.14.18c.2.25.39.51.58.77.36.51.72 1 1.07 1.55.35.55.64 1 .93 1.54l.38.76c.1.19-.11-.26 0-.07l.07.15.21.49a34.291 34.291 0 011.18 3.56c.37 1.28.64 2.56.92 3.85.14.62.32 1.23.47 1.85 0 .15.07.31.1.46.03.15 0 .16 0 .24v-.06c.06.35.11.71.16 1.06.05.35.13.78.2 1.17l.09.46c.005.08.005.16 0 .24v.17-.18c.016.158.043.315.08.47 0 .15.05.3.07.46.05.34.1.69.14 1 .17 1.45.2 2.9.25 4.35 0 .74.06 1.49.08 2.23l.06 1.05a1.617 1.617 0 000 .22c0 .15 0 .15 0 0s0-.14 0 0c-.054.14-.094.283-.12.43a1.541 1.541 0 003 .71 9.19 9.19 0 00.19-1.08c0-.34 0-.67-.05-1 0-.7 0-1.41-.08-2.11-.05-1.36-.06-2.72-.18-4.08a39.729 39.729 0 00-.66-4.34c0-.08-.06-.3 0 .06a1.92 1.92 0 000-.24c0-.15 0-.31-.07-.47-.06-.447-.13-.897-.21-1.35-.12-.66-.3-1.31-.47-2-.34-1.36-.58-2.73-1-4.08-.42-1.35-.72-2.51-1.2-3.73a20.519 20.519 0 00-1.83-3.62 29.617 29.617 0 00-2.44-3.33c-.47-.53-1-1-1.52-1.47-.455-.46-.943-.889-1.46-1.28-.57-.42-1.19-.75-1.78-1.13a2.724 2.724 0 00-2.52-.48 1.52 1.52 0 00-1 1.11v.15a1.71 1.71 0 00.2 1.17 1.59 1.59 0 001 .67 1.55 1.55 0 001.85-1.14l-.09-.07z" fill="#fff"/><path d="M98.251 33.986h-.11a1.55 1.55 0 00-.26 2.82c.335.21.694.378 1.07.5l.37.13c-.43-.14.06 0 .17.1.253.138.497.291.73.46.17.11-.23-.17-.06 0l.17.12.42.34c.225.188.435.391.63.61.1.1.19.21.28.31l.18.21a27.143 27.143 0 011.14 1.51c.36.512.694 1.043 1 1.59l.39.75.09.19c-.1-.23.16.32 0 0l.21.46c.28.62.58 1.24.8 1.89.11.3.18.61.27.92.134.406.308.798.52 1.17.06.11.11.26.18.37-.17-.24-.08-.19 0-.08l.07.21c.11.32.19.65.32 1 .217.605.384 1.227.5 1.86.14.66.33 1.3.51 2 .08.3.16.59.23.89l.06.28v-.07c0 .22.05.39.08.58.08.68.19 1.35.3 2l.12.67v.2-.12.29c0 .34.07.68.1 1 .052.76.159 1.515.32 2.26l.12.49v.14c.002.151.019.302.05.45v.57c.059.856.19 1.705.39 2.54.021.072.038.145.05.22 0-.33.09.35 0 0v1.73l.18 4.8c-.008.211.028.422.106.619a1.527 1.527 0 00.869.87 1.542 1.542 0 002.034-.974c.063-.202.084-.415.061-.625-.05-1.47-.11-2.93-.16-4.4 0-.69 0-1.39-.06-2.08a7.237 7.237 0 00-.23-1.23v-.22.18a.965.965 0 010-.17c0-.19-.06-.38-.08-.57-.11-.72-.12-1.46-.25-2.18-.06-.36-.14-.72-.22-1.07a2.073 2.073 0 01-.12-.55v-.27c-.07-.69-.1-1.38-.21-2.06 0-.17-.06-.35-.09-.52.07.36 0 .14 0 .06l-.09-.52c-.06-.36-.12-.73-.17-1.1-.12-.78-.2-1.57-.38-2.35s-.37-1.31-.54-2c-.17-.69-.27-1.31-.45-2-.08-.31-.21-.61-.32-.92-.11-.31-.17-.62-.29-.92-.12-.3-.35-.75-.54-1.11a1.657 1.657 0 00-.09-.19c.18.32.08.17.05.08-.03-.09-.11-.34-.16-.52a11.82 11.82 0 00-.71-1.91 28.813 28.813 0 00-1.92-3.76 21.14 21.14 0 00-1.25-1.74 15.794 15.794 0 00-1.57-1.8 12.673 12.673 0 00-1.91-1.43 6.695 6.695 0 00-1.22-.55l-.19-.06c-.13-.05.33.13 0 0a2.159 2.159 0 01-.47-.26c-.09.94-.18 1.88-.26 2.82h.11a1.581 1.581 0 001-1.93 1.56 1.56 0 00-1.93-1h.06zm-26.25 1.6a2.63 2.63 0 00-2.59-.46 5.131 5.131 0 00-1.71.79c-.62.43-1.24.85-1.88 1.26a8.688 8.688 0 00-1.87 1.3 6.357 6.357 0 00-.7.94c-.08.12-.15.26-.23.39l-.15.24c-.14.26.21-.25 0 0-.43.52-.93 1-1.34 1.51a22.649 22.649 0 00-2.46 4.27c-.33.71-.63 1.44-.91 2.17-.343.8-.634 1.622-.87 2.46a22.532 22.532 0 00-.72 4.76v4.9a32.81 32.81 0 00.31 4.85l.15.92c-.05-.35.07.39 0 0l.06.35c.05.45 0 .91.05 1.36 0 .9.24 1.79.35 2.68.09.67.12 1.34.2 2 .08.66.18 1.71.8 2.16a1.63 1.63 0 001.51.34 1.58 1.58 0 001-1.11v-.12a1.54 1.54 0 00-1.14-1.85 1.57 1.57 0 00-1.85 1.14v.12l2.54-.77c-.14-.11.27.35.18.22-.09-.13.15.43.11.21-.04-.22 0-.17-.07-.26a.951.951 0 000-.16c.11.46.06.32 0 .2s0-.26-.05-.39c-.07-.56-.1-1.11-.16-1.67-.09-.74-.23-1.47-.33-2.21s0-1.57-.15-2.36c-.05-.25-.09-.5-.13-.75-.04-.25 0 .35 0-.05v-.22c-.06-.38-.12-.76-.16-1.14-.08-.75-.09-1.51-.11-2.26 0-1.58-.06-3.16-.07-4.73 0-.74 0-1.49.05-2.23v-.28.08c0-.28 0-.36.07-.55.06-.35.14-.7.21-1.06.113-.676.27-1.344.47-2 .11-.33.23-.65.35-1 .12-.35-.12.31 0-.06.022-.072.05-.142.08-.21.08-.2.15-.4.23-.59a31.682 31.682 0 011.94-4c.18-.32.37-.62.57-.93l.16-.24c.07-.11.17-.13-.05.07.12-.12.23-.28.34-.41.514-.528.988-1.093 1.42-1.69l.25-.41c.106-.145.2-.3.28-.46 0 0-.23.3-.08.11l.17-.19c.041-.058.088-.112.14-.16-.17.12.24-.23 0 0 .64-.44 1.33-.82 2-1.23.32-.21.63-.43.94-.65.147-.113.3-.216.46-.31 0 0 .22-.13.22-.12 0 .01-.32.12-.09 0a2.12 2.12 0 01.72-.21s-.43.05-.18 0h.21c-.29.06-.36-.06-.18 0s0 0-.24-.09-.29-.23-.19-.12a1.56 1.56 0 002.18-.08 1.57 1.57 0 00-.09-2.17l.03.16z" fill="#fff"/><path d="M61.38 72.216a2 2 0 00-1.75-.55 1.69 1.69 0 00-1.07.49 1.6 1.6 0 00-.41 1.1 1.57 1.57 0 001.6 1.48c.83 0 1.64-.27 2.47-.27.83 0 1.57.13 2.36.09h1.28c.08 0 .32 0 0 0h.34l.68.1c.892.08 1.79.08 2.68 0l2.53-.09h.6a1.62 1.62 0 01.58 0h-.19.45c.332.047.666.074 1 .08h1.46l1 .1c.805.07 1.614.09 2.42.06.82 0 1.62.13 2.44.1.82-.03 1.64-.07 2.46-.11.82-.04 1.72-.1 2.58-.1h.56c-.39 0 .19 0 0 0l.64.06c.397.02.794.02 1.19 0 1.69-.08 3.37-.17 5.06-.21 1.69-.04 3.3 0 4.94-.15.56 0 1.111-.13 1.671-.23h-.07c.147-.035.298-.055.45-.06.239-.015.48-.015.72 0 .43 0 .87 0 1.31-.06.44-.06.63-.1.95-.17a.87.87 0 01.32-.06h-.14.17c1.002.013 2.004-.04 3-.16l.59-.16h-.08 1.83a1.535 1.535 0 001.071-.494 1.546 1.546 0 00.268-1.691 1.542 1.542 0 00-1.459-.895 10.72 10.72 0 00-2.71.22l-.24.07c-.31.12.26 0 0 0h-1.77a8.144 8.144 0 00-1.47.15 2.09 2.09 0 01-.54.11h.08-2.48l-.51.09h.06a3.724 3.724 0 00-.57.08l-.58.06c-.43 0-.86.06-1.29.08h-2.48c-1.67 0-3.34.1-5 .17l-1.15.06h-1.25c.07 0 .41 0 0 0h-2.39l-2.57.11c-.81.055-1.621.055-2.43 0-.84-.08-1.67 0-2.5 0-.39 0-.77 0-1.15-.07h-.29c-.33 0-.66-.08-1-.09-.34-.01-.77 0-1.16 0h-.29c-.24 0 .39.05 0 0s-.65-.08-1-.1c-.83 0-1.68.05-2.51.08-.83.03-1.86.13-2.78.09h-.23.07-.17l-.63-.09a10.935 10.935 0 00-1.71-.12c-.48 0-.95.07-1.43 0s-.88-.08-1.32-.1c-.93 0-1.83.25-2.76.27l.12 3.07a2.1 2.1 0 01.23 0h-.26a1.23 1.23 0 01-.43-.21 1.54 1.54 0 102.09-2.26l-.1.13z" fill="#fff"/><path d="M59.061 73.586c.19.14.22.16.11.07a1.35 1.35 0 01.35 1.25c-.13.23-.25.46-.37.69-.05.06-.76.51-.79.38h1.03l.32.08c.23.07.45.13.68.18 1.039.186 2.096.253 3.15.2h4.55c.55 0 1-.08 1.46-.08.106.01.214.01.32 0h-.14.16c.32 0 .66.08 1 .1.34.02.5 0 .75 0-.25 0 .25 0 0 0h.41c.6.093 1.204.146 1.81.16h1.53c2 .05 4 .4 6 .41 1.05 0 2.1-.09 3.14-.11 1.04-.02 2.05.06 3.08 0 2.07 0 4.14-.16 6.2-.24 2.06-.08 4.15-.18 6.22-.23a45.993 45.993 0 006.1-.34c.47-.07.94-.08 1.41-.14.47-.06.66-.11 1-.17h-.14.54a7.002 7.002 0 001.71-.22h.16c.16-.06-.11 0-.13 0a.5.5 0 00.17 0h.5a2.751 2.751 0 001.54-.58 2.052 2.052 0 00.59-2.17c0-.16-.09-.31-.14-.47-.05-.16-.07-.28 0-.06v-.24a4.567 4.567 0 00-.22-.9c0-.09-.07-.18-.1-.27v-.12c-.06-.2 0 .1 0 .15a4.371 4.371 0 00-.25-1.23v-.15c0-.03.05.39 0 .11l-3.08.12v.64a1.537 1.537 0 001.599 1.587 1.535 1.535 0 001.411-1.083c.063-.201.083-.414.06-.624v-.64a1.556 1.556 0 00-.493-1.072 1.544 1.544 0 00-2.178.085 1.533 1.533 0 00-.409 1.107c.024.319.085.634.18.94 0 .06.09.37.06.13s0 .13 0 .2c.031.295.091.586.18.87 0 .09.07.18.1.28l.06.15c.08.19 0 0 0-.12.009.315.06.628.15.93.046.176.103.35.17.52.06.14 0-.22 0-.21 0 .01 0 .19 0 0a1.46 1.46 0 01.5-.84c-.1.07.22-.1.22-.09h-.13c-.21.07.4 0 .08 0-.44.03-.878.09-1.31.18l-.32.09a.75.75 0 00-.16 0c.08-.1.29 0 .08 0h-.71a8.31 8.31 0 00-1 .14l-.31.06c-.23 0-.05 0 0 0h-.14c-.51.06-1 .08-1.53.16a48.712 48.712 0 01-6.16.32c-2.12 0-4.23.15-6.34.23-2.11.08-4.22.25-6.33.23-1.05 0-2.09-.08-3.14 0-1.05.08-2.12.12-3.19.08-2.07-.07-4.12-.44-6.19-.4h-1.23a4.524 4.524 0 00-.7-.08l-1.11-.11h-.61a.39.39 0 00-.15 0l-.37-.06a9.002 9.002 0 00-1.72 0c-1 .08-2.09 0-3.13 0s-2 .06-3 0h-.72a2.318 2.318 0 00-.38 0c-.47-.07-.91-.24-1.38-.33-1.2-.22-3.19-.29-3.53 1.25-.088.441-.002.9.24 1.28.228.32.521.59.86.79.367.19.794.23 1.19.11.38-.13.697-.398.89-.75a1.52 1.52 0 00.11-1.18 1.82 1.82 0 00-.74-.9l.04-.05z" fill="#fff"/><path d="M56.5 71.456v1.6c.025.336.075.67.15 1 0 .1 0 .2.07.3.07.1 0 .13 0-.11.005.073.005.146 0 .22a1.54 1.54 0 103.07-.12 7.232 7.232 0 00-.1-1.31 3.863 3.863 0 00-.47-1.06l-.09-.16c-.1-.16.13.35.05.1-.08-.25-.09-.24-.13-.37a1.096 1.096 0 000-.17c-.06-.25 0 0 0 .09v-.4l-3.07.12c-.003.73.064 1.461.2 2.18.02.138.05.275.09.41v-.09.8a2 2 0 001.91 2c.59 0 1.19-.06 1.78-.08l2-.07c.26 0 .51 0 .77-.06h.07c.147.051.297.088.45.11.711.09 1.43.09 2.14 0h.46c.15 0-.29-.06-.1 0h.19c.366.096.743.143 1.12.14.7 0 1.41-.09 2.11-.11h1.87-.17.24a1.6 1.6 0 001.17-.2 1.53 1.53 0 00.67-.94 1.55 1.55 0 00-1.14-1.85 23.226 23.226 0 00-4-.08l-.76.06h-.2c-.19 0 0-.08.12 0a1.537 1.537 0 00-.37-.08 8.132 8.132 0 00-2.09 0h-.46a1.37 1.37 0 00-.35-.08 3.657 3.657 0 00-.74-.1c-.55 0-1.11.07-1.66.09l-1.91.06h-1.18c-.27 0-.16-.31.55.15a1.21 1.21 0 01.58.77c.05.31 0-.09 0-.19v-.33a4 4 0 00-.14-1.09c0-.16-.06-.31-.1-.46-.04-.15 0 .14 0 .14.015-.11.015-.22 0-.33v-1a1.54 1.54 0 00-3.07.12 4.119 4.119 0 00.47 2c.077.174.164.345.26.51l.09.15c.13.23-.08-.26 0-.08.07.26.08.18 0 0-.07-.26 0 .06 0 .13v.57l3.07-.12a6.004 6.004 0 00-.17-1 2.47 2.47 0 00-.07-.29v-.09c0-.53 0-1.06-.05-1.6a1.54 1.54 0 00-3.07.12l-.06.08zm56.881 2.5l-.15.37v-.07l-.23.32a.163.163 0 01.06-.06l-.3.25c.101-.071.208-.135.32-.19.31-.183.563-.45.73-.77.242-.529.309-1.12.19-1.69 0-.43 0-.87-.06-1.3l-.06-1.48a1.547 1.547 0 00-1.59-1.48 1.57 1.57 0 00-1.48 1.6l.07 1.94v.81c.042.244.058.492.05.74v-.41.15l.14-.37a.215.215 0 010 .08l.23-.32-.09.1.3-.25c-.12.08-.25.13-.37.2a2 2 0 00-.82 1.17 1.54 1.54 0 002.75 1.257c.118-.164.203-.35.25-.547l.06-.05zm-71.68-68.85c-.55-.06-1.1-.13-1.66-.15-.56-.02-1 0-1.57 0-.57 0-1 0-1.54.05a11.14 11.14 0 00-1.8.32c-.973.23-1.928.527-2.86.89-.46.19-.91.37-1.37.52a8.267 8.267 0 00-1.58.63c-.38.22-.72.48-1.09.72l-1.33.83c-.44.26-.9.48-1.33.75a7.645 7.645 0 00-1.28 1.07c-.67.67-1.27 1.42-2 2a6.17 6.17 0 00-1.14 1.2 9.314 9.314 0 00-.62 1.22 26.844 26.844 0 00-2 5.64 18.676 18.676 0 00-.49 3.23 14.994 14.994 0 00.28 3.41c.18 1 .44 2 .71 3 .243.992.578 1.96 1 2.89a7.18 7.18 0 001.91 2.2c.74.65 1.46 1.32 2.23 1.94.77.62 1.73 1.33 2.64 1.94l2.43 1.67a12.86 12.86 0 005.69 2c1.1.11 2.21.14 3.32.2.978.081 1.96.108 2.94.08a12.341 12.341 0 003.09-.52c.506-.186 1-.403 1.48-.65l.62-.33c.093-.06.19-.113.29-.16a.614.614 0 00.14-.07l-.16.08.15-.07c.967-.369 1.9-.82 2.79-1.35a16.628 16.628 0 002.46-2 21.922 21.922 0 003.6-4.69c.53-.87.909-1.824 1.12-2.82.19-1 .47-1.87.7-2.81.269-1.112.43-2.248.48-3.39a29.93 29.93 0 00-.27-3 15.066 15.066 0 00-.5-3.33c-.27-1-.65-1.88-1-2.8a11.22 11.22 0 00-3.25-4.79c-.42-.33-.88-.62-1.33-.91l-.3-.2c-.24-.16.21.16 0 0s-.39-.32-.57-.49a8.117 8.117 0 00-1.24-1 6.2 6.2 0 00-1.56-.62c-.44-.13-.89-.25-1.33-.39l-.29-.1c-.17 0 .12.05.12.05a.841.841 0 00-.19-.08l-.28-.14-.14-.08s-.23-.17-.07 0l-.18-.15-.24-.2a6.779 6.779 0 00-.61-.44 4.901 4.901 0 00-1-.42 2.18 2.18 0 00-1.36 0 1.79 1.79 0 00-1.19 1.82 1.539 1.539 0 003.01.504 1.54 1.54 0 00.06-.624v-.06a1.321 1.321 0 01-.62 1.14l-.3.14c-.34.04-.43.06-.27.06-.53 0-.35-.06-.21 0h.17c-.33 0-.32-.14-.14-.06l.15.08.29.16-.28-.2.18.14.24.2c.24.19.49.38.75.55a6.89 6.89 0 001.52.67c.4.13.81.24 1.22.36l.6.18h.1-.08c.08 0 .3.15.37.18-.25-.22.3.15 0 0l.22.2c.16.13.3.28.45.42.408.369.846.703 1.31 1l.52.34.27.18.09.06c.14.09.11.06-.09-.07.05.11.34.27.44.36.17.153.33.317.48.49 0 0 .2.18.2.22l-.13-.15.12.16c.126.153.242.313.35.48.239.351.46.715.66 1.09 0 .08.08.17.13.25v.09c.07.14.05.11 0-.1.117.189.205.394.26.61.17.45.33.9.51 1.36.18.46.32.84.46 1.27l.18.66c0 .11.05.22.07.33.02.11.16.58 0 .16.09.464.13.937.12 1.41 0 .51.1 1 .17 1.5.067.45.103.904.11 1.36.025.239.025.48 0 .72.09-.39 0 0 0 .07l-.06.47c-.14.922-.34 1.834-.6 2.73-.24.84-.35 1.71-.61 2.55-.037.096-.08.19-.13.28-.09.19-.2.38-.3.56-.22.41-.46.81-.7 1.2-.12.17-.23.35-.35.53l-.18.26c-.21.31.2-.27 0 0s-.56.73-.86 1.08a21.758 21.758 0 01-1.9 1.94l-.25.22a4.007 4.007 0 01-.52.4 8.935 8.935 0 01-1.18.73c-.33.18.32-.13 0 0l-.3.13-.6.26c-.526.215-1.04.458-1.54.73l-.57.31h-.09c-.16.08-.13.06.08 0-.089.05-.182.09-.28.12-.408.164-.83.295-1.26.39-.35.09.36 0 0 0h-.32l-.65.07a14.27 14.27 0 01-1.46.08c-.93 0-1.86-.12-2.79-.15l-1.31-.06h-.63l-.45-.06a9.884 9.884 0 01-1.33-.31l-.61-.19-.3-.1-.2-.07c-.153-.06-.123-.06.09 0-.14 0-.45-.18-.57-.24l-.57-.3c-.42-.24-.83-.52-1.23-.8-.78-.54-1.57-1.06-2.34-1.6-.38-.26-.06 0 0 0l-.28-.2-.54-.41c-.39-.3-.78-.6-1.15-.92-.7-.58-1.36-1.21-2-1.8-.16-.13-.31-.27-.46-.41l-.21-.21-.07-.07c-.11-.13-.09-.1 0 .07 0 0-.29-.44-.32-.49v-.09c-.07-.14-.06-.11 0 .09-.07 0-.13-.3-.16-.38a21.485 21.485 0 01-.75-2.52c-.13-.46-.25-.92-.35-1.39a8.74 8.74 0 01-.15-.7c-.04-.23 0-.23-.07-.35.06.43 0-.1 0-.18-.186-.99-.223-2-.11-3-.07.41 0 0 0-.06l.06-.36c0-.22.08-.44.12-.66.09-.43.18-.86.28-1.28a22.81 22.81 0 01.77-2.56c0-.09.11-.43 0 0a1.82 1.82 0 01.11-.3c.08-.2.17-.4.26-.6.18-.43.4-.84.59-1.27.09-.18.16-.37.26-.55.1-.18.09-.18.14-.27-.23.22.16-.29 0 0 .23-.22.68-.63 1-.94.67-.59 1.23-1.31 1.88-1.93l.23-.22.08-.07-.06.05c.154-.148.334-.267.53-.35.45-.23.88-.48 1.3-.74.78-.48 1.53-1 2.3-1.47-.33.1.29-.18 0 0l.29-.1.65-.2c.46-.16.91-.35 1.36-.53a21.56 21.56 0 012.71-.83c.218-.07.443-.12.67-.15-.41 0-.06 0 0 0h1.88c.54 0 .93-.06 1.4 0 .11 0 .55.09.62 0h.32a1.73 1.73 0 001.18-.2 1.59 1.59 0 00.67-.94 1.55 1.55 0 00-1.14-1.85l-.1.09z" fill="#fff"/><path d="M46.2 6.796c.25-.06.51-.06.76 0 .35.13-.12-.11.17.09.29.2 0 0 0-.06a3.513 3.513 0 00-.65-.5 9.744 9.744 0 00-1.68-.56 5.313 5.313 0 00-.71-.21 5.93 5.93 0 00-.59-.07h-.15c-.2 0 .32.07.06 0-.48-.12-1-.21-1.44-.3a15.66 15.66 0 00-1.8-.28c-.474-.01-.948.01-1.42.06-1.08.07-2.17.09-3.25.13a17.08 17.08 0 00-3.42.32c-.25.06-.49.13-.74.18h-.17c-.29.06 0 0 .06 0-.23 0-.46.07-.68.12-.5.1-.94.35-1.42.49a11.66 11.66 0 00-1.37.47c-.3.13-.6.27-.89.42l-.29.15-.19.09c-.17.1.28-.12.1 0a8.897 8.897 0 00-1.49.72c-.428.31-.839.643-1.23 1a20.79 20.79 0 00-2.45 2.24 16.993 16.993 0 00-1.89 2.57c-.26.42-.5.85-.72 1.29-.09.18-.17.37-.27.55l-.11.17s.19-.26.09-.13a3.501 3.501 0 00-.23.31 6.529 6.529 0 00-.92 1.73 13.53 13.53 0 00-.41 1.41c-.117.464-.204.935-.26 1.41-.07.63-.06 1.24-.07 1.87-.06 1.039-.06 2.08 0 3.12.14 1.116.34 2.225.6 3.32.275 1.05.689 2.059 1.23 3 .436.881.924 1.736 1.46 2.56a19.992 19.992 0 002.14 2.54 13.91 13.91 0 002.45 2.14c.816.494 1.66.938 2.53 1.33 1 .5 2.044.901 3.12 1.2.492.162.997.28 1.51.35.34 0 .69.08 1 .11h.48c1.144.154 2.297.225 3.45.21 1.09 0 2.18-.06 3.27-.08 1.09-.02 2.17-.05 3.25-.16a4.722 4.722 0 001.89-.61c.18-.1.36-.22.54-.34l.25-.16c.06 0 .26-.12.06-.05-.2.07 0 0 .06 0 .55-.152 1.084-.35 1.6-.59.44-.24.85-.51 1.29-.75a18.632 18.632 0 002.44-1.6 16.061 16.061 0 002.22-2.22c.367-.442.702-.91 1-1.4 0-.05.15-.25 0-.06l.2-.25a8.37 8.37 0 00.57-.73c.306-.419.568-.868.78-1.34.11-.25.21-.51.31-.76s.07-.2.11-.29c.04-.09-.12.28 0 .13.12-.15.11-.25.17-.37.271-.49.508-.998.71-1.52.148-.463.252-.938.31-1.42.155-1.144.225-2.297.21-3.45v-1.58a4.53 4.53 0 00-.25-1.75 5.756 5.756 0 00-.42-.82 1.465 1.465 0 00-.17-.3s.11.3.07.15c-.04-.15-.06-.17-.08-.25-.14-.45-.32-.88-.47-1.33a6.735 6.735 0 00-.55-1.56c-.1-.15-.32-.29-.37-.45 0 .11.21.2.22.34a.844.844 0 00-.06-.14 3.001 3.001 0 00-.43-.91c-.07-.09-.15-.18-.22-.28a1.27 1.27 0 00-.08-.12c-.1-.11 0 .13.06.14a4.002 4.002 0 00-.49-.88c-.32-.45-.64-.9-1-1.36a21.717 21.717 0 00-2-2.67 9.682 9.682 0 00-2.52-1.89c-.89-.48-1.74-1-2.6-1.55a19.834 19.834 0 00-2.66-1.3 1.54 1.54 0 10-1.34 2.76c.899.362 1.77.787 2.61 1.27.83.51 1.65 1 2.51 1.51l.55.3.32.19.13.09s.23.16.06 0l.13.1.28.25c.18.16.35.33.51.5.16.17.15.16.22.25s.2.22.06.06c.15.19.3.38.43.58.3.43.57.87.86 1.3l.89 1.26.19.27c-.12-.27.15.22 0 0 .13.304.297.59.5.85.049.092.106.178.17.26 0 0-.1-.28-.07-.13a.88.88 0 00.05.15c.07.205.16.403.27.59.024.039.05.076.08.11l.25.3-.13-.15c-.07-.29.14.22 0 0 .036.111.066.225.09.34.06.21.11.43.18.64.15.43.33.84.46 1.28.176.51.414.998.71 1.45.08.14-.07-.14-.07-.14a.5.5 0 000 .17v4.19c.005.08.005.16 0 .24v-.13a5.352 5.352 0 00-.09.7c0 .23-.08.46-.13.7-.05.24 0 .2-.07.31-.07.11 0 .1 0 .15 0 .05.15-.34 0 0s-.42.78-.6 1.19l-.12.28c-.05.14-.11.28-.16.43l.05-.13c-.12.2-.18.46-.29.67-.11.21-.19.37-.29.55-.06.107-.127.21-.2.31-.08.14.07-.1.08-.1a.65.65 0 00-.13.16c-.356.422-.69.863-1 1.32l-.09.13c0 .05-.16.24 0 .07.16-.17-.08.09-.11.14l-.45.53c-.32.36-.64.71-1 1.06-.15.15-.3.3-.46.44-.042.03-.082.064-.12.1 0 0 .28-.21.06 0l-.29.21c-.38.26-.74.55-1.12.8-.38.25-.81.47-1.21.71-.21.11-.42.24-.62.36l-.28.16-.15.09c-.16.11.26-.09.07 0-.547.153-1.082.347-1.6.58-.39.2-.74.47-1.12.68-.38.21.28-.09 0 0l-.28.09h-.49c-2.11.15-4.22.12-6.33.2H34.2l-.94-.1h-.59c-.23-.06-.5 0-.74-.09-.49-.097-.974-.224-1.45-.38l-.73-.23-.33-.11c.22.08-.07 0-.11-.05-.43-.18-.83-.4-1.24-.6-.41-.2-.83-.4-1.23-.61a6.005 6.005 0 01-.56-.3 3.376 3.376 0 01-.32-.19l-.13-.09c-.17-.1 0 0 .06 0-.16-.16-.38-.29-.54-.44-.16-.15-.36-.33-.54-.5-.35-.34-.68-.69-1-1l-.5-.54-.23-.25-.11-.13s-.24-.28-.09-.1c.15.18-.07-.1-.11-.14l-.19-.27c-.15-.2-.29-.41-.43-.63-.5-.8-.94-1.64-1.36-2.48l-.18-.34a6.92 6.92 0 01-.27-.65 10.17 10.17 0 01-.38-1.44c-.1-.48-.17-1-.29-1.45v.12a.89.89 0 000-.16v-.34c0-.27-.06-.54-.07-.8-.06-1 .08-2 .05-3a5.766 5.766 0 010-.72v-.16.15l.06-.37c.08-.48.2-.95.32-1.43l.18-.61a.442.442 0 00.06-.16s-.14.33 0 .08c.048-.116.101-.23.16-.34 0-.09.1-.17.15-.26.05-.09-.09.11-.1.11a.482.482 0 00.09-.11c.2-.26.4-.51.57-.78.17-.27.41-.8.62-1.19.21-.39.46-.81.71-1.19l.21-.31.09-.14-.07.1a1 1 0 00.19-.26l.27-.33c.29-.36.59-.71.91-1 .32-.29.68-.65 1-1l.27-.23-.07.06.11-.46.6-.48c.2-.15.39-.31.59-.45.081-.06.168-.11.26-.15l.13-.08c.22-.11-.09 0-.09 0 .19-.11.391-.197.6-.26.31-.14.61-.3.91-.45l.16-.08c-.2.1.11 0 .16-.07l.69-.26c.44-.15.89-.27 1.32-.45.198-.082.402-.149.61-.2h.08l.69-.12c.25 0 .5-.12.74-.18l.35-.07h.17c.21-.05-.28 0-.06 0 2-.2 4.07-.13 6.09-.28h.69a.43.43 0 00.16 0h-.16c.125.033.252.056.38.07l1.5.28.65.15c.14 0 .29 0 .44.06h.31c.29 0-.25-.05-.07 0 .46.11.92.26 1.37.4l.33.1a.55.55 0 00.17 0s-.3-.12-.18-.06-.21-.12-.19-.13c.02-.01.1.08.12.1l.17.15a2.16 2.16 0 002 .55 1.55 1.55 0 001-1.93 1.59 1.59 0 00-1.93-1l.06.05z" fill="#fff"/><path d="M24.75 36.476a2.15 2.15 0 00-2.59-.18 6.822 6.822 0 00-1.08.77 15.77 15.77 0 00-1.48 1.11c-.5.49-.93 1-1.45 1.5a17.998 17.998 0 00-3 3.56c-.4.61-.76 1.24-1.14 1.87-.38.63-.8 1.27-1.2 1.9-.81 1.29-1.49 2.64-2.21 4a14.849 14.849 0 00-1.71 4.4c-.14.77-.33 1.54-.43 2.31-.1.77-.16 1.8-.21 2.7-.09 1.59-.24 3.19-.25 4.79-.01 1.6.08 3.2.14 4.8v2.09a4.43 4.43 0 00.59 2.36 2.66 2.66 0 002.45 1.13l.76-.06a9.375 9.375 0 011.19 0c1.57.1 3.14-.11 4.71 0l1.13.1c.416.004.83.034 1.24.09-.35-.07-.16 0-.07 0l.34.05.52.07c.501.068 1.006.101 1.51.1 1.6 0 3.21-.13 4.81-.19 3.26-.14 6.52-.25 9.78-.37l2.4-.09a22.93 22.93 0 002.33-.11c.77-.09 1.53-.24 2.3-.35.77-.11 1.55-.1 2.32-.18.77-.08 1.53-.13 2.29-.25.45-.074.895-.178 1.33-.31l.52-.14h.2-.09.11c.107-.01.214-.01.32 0h-.1c.277.024.555.024.83 0 .288-.034.572-.087.85-.16.12 0 .19-.11-.07 0a1.21 1.21 0 01.34 0l.56-.08.57-.1c-.39.06.24 0 0 0a8.33 8.33 0 011.12-.09c.473.003.945-.034 1.41-.11l.53-.12c.24-.07-.08 0-.09 0h.32l-.12-3.07h-.12a1.539 1.539 0 10.12 3.07h.1a1.54 1.54 0 10-.12-3.07 5.19 5.19 0 00-1.3.21h.03a1.794 1.794 0 00-.22 0h-.62a9.615 9.615 0 00-1.07.07l-.79.13c-.29.13-.13 0 0 0a1.316 1.316 0 01-.34 0c-.44.045-.877.115-1.31.21-.35.08.24 0 0 0a1.19 1.19 0 01-.26 0h.1c-.21 0-.42-.05-.62-.05-.793.06-1.576.22-2.33.48 0 0-.24.08-.26.06-.02-.02.4 0 .09 0h-.56l-1.17.13c-.73.09-1.47.1-2.21.17s-1.45.22-2.18.33c-.748.11-1.503.17-2.26.18-3.14.07-6.27.22-9.41.33-1.54.06-3.08.11-4.62.19-.8 0-1.6.09-2.41.12h-1.61a2.862 2.862 0 01-.29 0c-.84-.11-1.67-.19-2.5-.26-.83-.07-1.54-.16-2.31-.17-.77-.01-1.52 0-2.28.06-.76.06-1.5 0-2.26-.07a6.526 6.526 0 00-.88 0h-.51c-.28 0 .4.1.08 0s.38.18.14.06-.17-.15.13.1c-.18-.16.1.08.09.11v-.08c-.07-.14 0-.1.06.13a1.08 1.08 0 00-.1-.35v.23-2.36l-.09-2.3c0-1.55-.11-3.1 0-4.64.11-1.54.17-3.1.3-4.65v-.3c0-.29 0-.1 0 0a3.69 3.69 0 01.07-.57c.07-.38.15-.75.23-1.13a17.77 17.77 0 01.44-2.05l.07-.21c-.14.31.11-.35 0 0 .07-.14.12-.28.19-.42.16-.34.33-.68.5-1 .35-.67.73-1.34 1.09-2 .36-.66.66-1.27 1-1.88.34-.61.75-1.22 1.14-1.82.39-.6.75-1.24 1.12-1.86.18-.29.36-.58.55-.87l.27-.4c.06-.08.16-.3 0 0a1.57 1.57 0 01.19-.26c.41-.551.861-1.07 1.35-1.55.51-.51 1.08-1 1.56-1.5.2-.23.39-.46.62-.68l.12-.11c.18-.17-.08.08-.1.08a3.9 3.9 0 00.45-.31c.34-.22.64-.47 1-.71l.26-.18.14-.09c.2-.13-.2.11-.19.08.01-.03.11 0 .14-.05.03-.05.28 0-.23 0h-.27l-.29-.11c-.24-.2-.31-.25-.2-.14a1.55 1.55 0 002.17-.08 1.57 1.57 0 00-.08-2.18l-.07.19zm25.631 2.51h.17s-.4-.07-.16 0c.089.029.179.052.27.07.14 0-.17-.07-.18-.07l.15.06c.097.05.19.107.28.17.21.13-.09-.07-.11-.08l.13.1.23.2c.17.15.33.32.49.48.73.75 1.5 1.45 2.2 2.23-.14-.17 0 0 .05.07l.22.29.45.71c.14.21.27.42.42.61.15.19.3.38.45.55l.14.16c.15.16 0 0-.07-.08.09.19.26.4.37.59.11.19-.06-.16-.06-.15 0 .01.05.11.07.17.02.06.11.26.16.4.17.45.31.9.49 1.34.1.22.2.45.31.66 0 0-.11-.27-.06-.11.035.081.065.165.09.25.102.292.189.589.26.89.08.29.13.6.22.88.07.212.168.413.29.6l.11.14c.19.27 0 .3-.06-.39.03.404.204.783.49 1.07a1.6 1.6 0 001.1.41 1.56 1.56 0 001.48-1.6 2.61 2.61 0 00-.47-1.21s-.07-.13-.1-.14c-.03-.01.11.36.06.09a4.534 4.534 0 00-.11-.47 10.276 10.276 0 00-.66-2c-.07-.16 0-.14 0 .09a.87.87 0 00-.07-.17l-.14-.35c-.09-.24-.17-.49-.26-.73a8.558 8.558 0 00-.76-1.69 5.777 5.777 0 00-.66-.82c-.15-.15.17.22 0 .06l-.1-.13-.3-.43c-.306-.486-.64-.953-1-1.4-.79-1-1.71-1.77-2.57-2.66a4.65 4.65 0 00-3.51-1.76 1.55 1.55 0 00-1.48 1.59 1.57 1.57 0 001.6 1.48l.14.03z" fill="#fff"/><path d="M22.28 35.786a4.28 4.28 0 00-2.3.82c-.18.13-.35.28-.52.43l-.16.15c-.12.11-.1.09.07 0 0 .08-.26.19-.33.24-.23.17-.46.35-.67.54-.494.46-.952.958-1.37 1.49-.21.25-.42.49-.62.74l-.29.39c-.26.37-.3.43-.13.18 0 0-.17.2-.2.23a5.742 5.742 0 00-1.22 1.72c-.26.6-.57 1.18-.86 1.76-.29.58-.68 1.29-1 2-.32.71-.6 1.26-.88 1.9-.28.64-.57 1.35-.86 2a21.48 21.48 0 00-.96 2.21c-.168.62-.291 1.252-.37 1.89-.09.66-.21 1.32-.33 2-.159.77-.23 1.554-.21 2.34v.4a.88.88 0 010 .27c-.063.45-.096.905-.1 1.36 0 1.51.08 3 .15 4.52.07 1.52.15 3 .21 4.51 0 .69.07 1.37.08 2.06a3.43 3.43 0 00.74 2.53 2.48 2.48 0 002.12.59c.73 0 1.46-.06 2.19-.09a40.14 40.14 0 014.39-.1l1.07.09h.24l.6.06c.73.08 1.47.17 2.2.3 1.54.26 3.09.35 4.64.49 1.482.151 2.971.218 4.46.2 1.51 0 3-.14 4.53-.2l9-.34 2.3-.09a16.79 16.79 0 002.13-.12c.73-.1 1.44-.2 2.18-.24.74-.04 1.48-.06 2.22-.07l2.22-.06a1.541 1.541 0 10-.12-3.08c-1.44.06-2.88.06-4.31.13-.716.036-1.43.113-2.14.23-.7.086-1.404.133-2.11.14l-8.73.33c-1.47.05-2.94.1-4.4.17-1.46.07-2.9.16-4.36.13-1.46-.03-2.88-.2-4.32-.32l-1-.08c-.38 0-.1 0 0 0a1.577 1.577 0 01-.23 0l-.57-.08c-.69-.11-1.37-.23-2.06-.32a40.869 40.869 0 00-4.55-.39c-1.41 0-2.82.13-4.23.18-.62 0-1.23 0-1.85.09-.26 0 .37.06.19 0s.28.12.33.15c.05.03.41.31.36.46l-.06-.17c0-.16.06-.12 0 .12a.713.713 0 000-.2v-.48c0-1.42-.1-2.84-.17-4.25-.07-1.41-.15-2.9-.2-4.35 0-.72 0-1.44-.06-2.17v-.77.08a2.63 2.63 0 01.06-.48 7.36 7.36 0 00.08-.85v-1.1c.02-.188.05-.375.09-.56.11-.66.24-1.3.33-2 .09-.7.17-1.25.32-1.86 0-.13.07-.26.11-.39.04-.13.06-.2.07-.2-.13.32.01 0 0 0l.45-1c.55-1.28 1.07-2.57 1.68-3.83.61-1.26 1.27-2.38 1.83-3.61.13-.27.23-.55.37-.81.14-.26.13-.22.19-.33-.14.28-.13.17-.05.09l.22-.22c.09-.1.19-.19.28-.3l.17-.19c.12-.16.36-.61.16-.22.17-.277.37-.532.6-.76.42-.5.82-1 1.28-1.48l.16-.16s.3-.24.09-.09l.21-.15c.325-.235.633-.492.92-.77.18-.19-.07.08-.09.07-.02-.01.16-.12.19-.14.03-.02.28-.14.39-.22.11-.08-.33.13-.08.05l.18-.07a.672.672 0 00.19 0h-.22.15a1.54 1.54 0 10-.11-3.07h.01z" fill="#fff"/><path d="M21.44 35.986c-.499-.02-.996.08-1.45.29-.26.14-.49.33-.74.48-.607.363-1.183.778-1.72 1.24a11.67 11.67 0 00-1.15 1.28l-.11.12c-.19.23.24-.15.07 0-.117.074-.23.154-.34.24a6.59 6.59 0 00-1.55 1.77l-.07.18c-.16.3.16-.18 0 0l-.34.38a7.997 7.997 0 00-1.31 1.7c-.64 1.15-1.33 2.26-2 3.4-.09.17.2-.24.07-.09l-.15.18-.24.29a4.451 4.451 0 00-.66 1c-.133.368-.224.75-.27 1.14a9.44 9.44 0 01-.32 1c-.107.3-.19.607-.25.92-.06.32-.09.63-.17 1-.17.67-.32 1.35-.44 2-.26 1.49-.55 3-.69 4.48a32 32 0 00-.07 4.27c0 .83 0 1.66.09 2.49.071.895.208 1.784.41 2.66l.15.63v.23-.18c.005.076.005.153 0 .23.044.375.068.752.07 1.13.015.382.055.763.12 1.14 0 .19.06.38.1.57a.997.997 0 000 .16v-.14c0 .12.05.4.07.6a1.54 1.54 0 103.07-.11c0-.44-.11-.86-.18-1.28 0-.15-.1-.14 0 .08a.762.762 0 010-.21 3.61 3.61 0 010-.56 14.559 14.559 0 00-.22-2.29c-.07-.33-.16-.65-.23-1 0-.15-.07-.31-.1-.46-.03-.15-.07-.4 0-.14s0-.1 0-.14a17.116 17.116 0 01-.15-2.14c-.06-1.39-.14-2.78-.09-4.16 0-.347.02-.68.06-1v-.23.06c.05-.19.073-.385.07-.58.08-.69.2-1.37.33-2 .13-.63.25-1.35.37-2 .12-.65.33-1.24.42-1.87.107-.648.274-1.284.5-1.9.085-.278.146-.562.18-.85a2.012 2.012 0 000-.26c0-.19-.14.27 0 .11l.11-.2c-.16.19.13-.24 0 0 .432-.5.81-1.043 1.13-1.62.33-.6.71-1.16 1.06-1.74.35-.58.57-1.06.89-1.56l.12-.15c.086-.107.18-.208.28-.3.21-.22.43-.43.62-.67.162-.216.312-.44.45-.67l.11-.18c.008-.057.018-.114.03-.17l-.11.15c.234-.22.454-.454.66-.7 0 .06-.27.2-.09.07a1.89 1.89 0 00.23-.16 3.79 3.79 0 00.56-.49c.2-.22.37-.47.56-.7.19-.23.48-.47.71-.71 0 0-.28.22-.07.07l.24-.18.41-.27c.26-.17.53-.32.78-.5l.21-.14c.06 0 .29-.12 0 0s-.47.07-.21.1h.29a1.55 1.55 0 001.48-1.59 1.57 1.57 0 00-1.59-1.48v-.07zm31.13 3.09h.35c.124.01.247.01.37 0h-.15a.74.74 0 01-.4-.21l.12.11c-.16-.2-.19-.24-.1-.11.265.458.603.87 1 1.22.447.324.868.681 1.26 1.07l.29.3.14.16c.11.12.09.1 0-.07.185.187.343.4.47.63.06.1.13.2.19.31.038.061.071.124.1.19.08.15.06.13 0-.07.073.122.13.253.17.39.1.22.2.44.31.65.126.239.277.463.45.67.07.09.25.45.07.06.13.28 0-.33 0 .06 0 .22.08.44.11.67-.06-.47 0 0 0 .12.033.386.087.77.16 1.15a5.58 5.58 0 00.84 1.6l-.06-1.55-.1.17a1.54 1.54 0 00.63 2.08 1.58 1.58 0 002.08-.63l.1-.17a1.54 1.54 0 000-1.55c-.1-.16-.21-.31-.32-.46-.11-.15-.11-.18-.18-.27-.07-.09.07.13.07.15a.696.696 0 00-.06-.19c-.07-.28 0 .28 0 0v-.32c0-.35-.11-.69-.16-1v.14a.994.994 0 000-.16 4.323 4.323 0 00-.11-.61 2.509 2.509 0 00-.44-.88 5.36 5.36 0 01-.35-.48.997.997 0 00-.15-.29s.13.28.06.12a2.559 2.559 0 00-.11-.24 9.2 9.2 0 00-1.8-2.69 11.96 11.96 0 00-1-.91c-.17-.14-.35-.27-.53-.4a1.453 1.453 0 00-.19-.17s.2.26.11.13l-.1-.14a3.82 3.82 0 00-1.25-1.31 3.56 3.56 0 00-1.91-.24 1.54 1.54 0 10.11 3.08l-.09-.11z" fill="#fff"/></svg>