<svg width="121" height="80" fill="none" xmlns="http://www.w3.org/2000/svg"><g style="mix-blend-mode:multiply" fill="#fff"><path d="M92.726 33.498c-.146-.834-.278-1.615-.45-2.35a57.15 57.15 0 00-.781-2.918 40.532 40.532 0 01-1.171-4.884v-.152a.868.868 0 00-.219-.662.663.663 0 00-.49-.218h-.291l-.165-.08a.664.664 0 00-.258-.052.66.66 0 00-.185 0c-2.303.542-4.633 1.171-6.863 1.78-3.196.867-6.505 1.76-9.846 2.435a.476.476 0 00-.417.384.834.834 0 00.297.814l.08.06.06.072a.275.275 0 000 .046l.099.126a.715.715 0 00.602.305c.161-.003.32-.044.463-.12l.1-.052h.105l.788-.133c2.144-.279 4.26-.75 6.32-1.41.608-.211 1.237-.403 1.839-.588l1.039-.324c.284-.093.582-.173.867-.245.284-.073.734-.199 1.052-.318a2.23 2.23 0 01.662-.126h.092l.047-.112.132.04.212.06.873-.04-.29.363-.47.59-.299.37a486.52 486.52 0 00-5.955 7.683c-1.45 1.76-2.727 3.309-3.898 4.83a36.888 36.888 0 00-1.462 1.986l-1.602 1.866c-1.892 2.203-3.858 4.486-5.572 6.849l-.397.543-.516-.43a22.338 22.338 0 01-2.257-2.41l-.734-.833-.728-.794a85.887 85.887 0 00-2.402-2.555c-.503-.502-1.039-.992-1.555-1.469a28.8 28.8 0 01-2.647-2.647l-.96-1.164a35.778 35.778 0 00-3.064-3.448.66.66 0 00-.264-.165l-.1-.033-.085-.067a.913.913 0 00-.53-.192.76.76 0 00-.463.166c-.398.38-.725.828-.966 1.323l-.239.397v.047l-.04.046a22.996 22.996 0 00-1.773 2.37c-.476.628-1.105 1.455-1.72 2.309l-.728 1.032-.179.265c-1.747 2.137-3.23 4.307-4.85 6.716l-.04.06c-1.747 2.177-3.759 4.725-5.486 7.385l-.364.536-.08.119-1.58 2.184c-1.59 1.985-3.224 4.023-4.752 6.088a.39.39 0 00-.08.397 1.013 1.013 0 00.695.543l.199.046.132.152c.09.11.213.19.35.225l.193.046.139.146c.11.123.246.222.397.291.077.035.16.056.245.06.264 0 .377-.298.403-.39v-.087l.093-.04c.867-1.323 1.74-2.607 2.587-3.877 2.409-3.64 4.904-7.399 7.544-11.018 1.906-2.608 3.97-5.155 5.956-7.518.933-1.118 1.925-2.303 2.879-3.507.172-.212.363-.49.569-.787.277-.398.588-.848.913-1.238l.45-.53.483.504c.728.76 1.542 1.488 2.323 2.197l.463.416c.807.86 1.66 1.708 2.488 2.528l.251.252a319.67 319.67 0 004.335 4.89c.218.245.463.543.748.893 1.158 1.41 2.898 3.54 4.427 3.54.335-.001.66-.108.933-.304h.106a.516.516 0 00.35-.476v-.238l.172-.179.08-.08.47-.47.106.12c.06-.106.125-.218.172-.311l.046-.086.073-.066c.307-.276.59-.577.847-.9.35-.457.662-.92 1.019-1.37.662-.92 1.356-1.866 2.15-2.773 1.443-1.648 2.906-3.447 4.739-5.843l.41-.53c2.184-2.845 4.44-5.783 6.406-8.82v-.047l.04-.04c.158-.172.317-.35.482-.522.715-.775 1.456-1.575 2.144-2.39l.728-.866.351 1.065c.04.146.086.285.132.417.199.609.384 1.185.51 1.688.443 1.793.827 3.626 1.191 5.4.205.966.41 1.985.622 2.938v.066a.695.695 0 00.662.662c.066.01.133.01.198 0h.047l.112-.04.126-.06h.139a.793.793 0 00.615-.271.444.444 0 000-.45 25.245 25.245 0 01-.906-4.612z"/><path d="M30.568 67.008a1.033 1.033 0 01-.37-.086 1.488 1.488 0 01-.576-.397l-.066-.066h-.093a1.012 1.012 0 01-.53-.33l-.065-.074h-.093a1.324 1.324 0 01-.926-.754.721.721 0 01.125-.708c1.529-2.065 3.163-4.11 4.752-6.088l1.482-1.86.093-.132c.119-.172.244-.35.357-.53a92.234 92.234 0 015.506-7.41l.033-.054c1.66-2.468 3.15-4.632 4.903-6.796l.199-.278c.231-.344.483-.695.728-1.039a82.255 82.255 0 011.727-2.316 22.137 22.137 0 011.806-2.422l.232-.384a4.983 4.983 0 011.079-1.475 1.132 1.132 0 011.402 0l.087.046c.145.047.279.127.39.232a38.814 38.814 0 013.084 3.467c.317.397.661.794.96 1.178a28.141 28.141 0 002.593 2.587c.49.45 1.046.96 1.562 1.483a71.084 71.084 0 012.389 2.54l.754.815c.192.212.444.51.735.847a23.003 23.003 0 002.223 2.369l.245.198.192-.251c1.727-2.382 3.686-4.665 5.585-6.869l.066-.08 1.536-1.786a41.57 41.57 0 011.488-1.985 291.858 291.858 0 013.898-4.838 386.946 386.946 0 015.956-7.696l.145-.178.477-.596h-.199l-.125-.033v.033h-.291a1.84 1.84 0 00-.55.106c-.351.125-.709.231-1.072.317-.297.08-.589.16-.86.245-.271.086-.662.219-1.012.318a44.4 44.4 0 00-1.86.602 37.28 37.28 0 01-6.366 1.423l-.887.159a1.17 1.17 0 01-1.495-.265l-.192-.238a1.157 1.157 0 01-.424-1.158.8.8 0 01.662-.662c3.309-.662 6.618-1.562 9.807-2.429 2.283-.615 4.593-1.244 6.895-1.786a.98.98 0 01.662.053l.08.033h.086a.973.973 0 01.886.31 1.205 1.205 0 01.312.887v.073a39.07 39.07 0 001.158 4.831c.278.973.562 1.985.787 2.945.172.734.304 1.515.45 2.342a24.746 24.746 0 001.065 4.467.787.787 0 01-.052.755 1.098 1.098 0 01-.887.416h-.12l-.178.067a1.32 1.32 0 01-.324.046 1.025 1.025 0 01-.973-.966c-.212-.98-.41-1.985-.609-2.885v-.086c-.37-1.787-.748-3.607-1.184-5.387-.126-.503-.318-1.092-.503-1.661l-.305-.92-.344.41c-.662.821-1.436 1.622-2.157 2.403l-.483.522c-1.986 3.097-4.262 6.035-6.446 8.88l-.41.537c-1.84 2.395-3.309 4.202-4.758 5.856-.787.9-1.469 1.84-2.13 2.747l-.047.06c-.311.436-.662.88-.973 1.323a7.484 7.484 0 01-.887.94l-.052.072-.192.338-.225.39-.179-.192-.218.218-.285-.185.232.238-.133.133v.112a.84.84 0 01-.555.775c-.338.25-.745.386-1.165.39-1.681 0-3.488-2.204-4.679-3.66-.284-.344-.523-.661-.74-.886a326.882 326.882 0 01-4.335-4.89l-.272-.272a90.642 90.642 0 01-2.501-2.534l-.483-.437c-.781-.708-1.595-1.443-2.336-2.217l-.232-.238-.211.258c-.311.364-.616.807-.88 1.191-.265.384-.417.602-.59.82-.959 1.198-1.985 2.396-2.891 3.515-1.986 2.355-4.05 4.897-5.956 7.497-2.647 3.62-5.135 7.372-7.544 11.005a358.922 358.922 0 01-2.587 3.884v.073a.788.788 0 01-.808.688zm20.984-32.815a.424.424 0 00-.264.099 4.467 4.467 0 00-.88 1.23c-.1.166-.173.285-.239.404l-.066.093a22.972 22.972 0 00-1.78 2.382 68.702 68.702 0 00-1.747 2.35l-.728 1.032-.218.317c-1.74 2.124-3.216 4.295-4.831 6.697l-.106.14c-1.747 2.183-3.745 4.724-5.466 7.364-.12.186-.245.37-.37.55l-.08.112-1.529 1.9c-1.588 1.984-3.222 4.023-4.744 6.08-.04.047-.04.067-.04.067a.735.735 0 00.463.357l.305.066.198.239a.325.325 0 00.172.112l.305.066.205.225c.075.09.17.16.278.206a.662.662 0 00.178.059.384.384 0 00.093-.159l.12-.245c.866-1.323 1.74-2.614 2.58-3.884 2.415-3.64 4.91-7.398 7.557-11.031 1.913-2.647 4.004-5.169 5.956-7.531.933-1.118 1.925-2.31 2.878-3.5.166-.212.351-.484.55-.768.288-.438.6-.86.933-1.264l.661-.814.742.767c.72.761 1.528 1.483 2.302 2.184l.523.47a99.77 99.77 0 002.482 2.521l.304.311a414.657 414.657 0 004.328 4.884c.218.245.47.55.761.9 1.045 1.284 2.8 3.428 4.169 3.428.268-.002.528-.09.741-.252l.106-.066c.212-.092.212-.172.212-.198v-.37l1.078-1.1v.034l.146-.166a7.6 7.6 0 00.814-.853c.33-.437.662-.88.966-1.324l.04-.06c.662-.913 1.363-1.866 2.17-2.792 1.443-1.641 2.899-3.434 4.732-5.823l.41-.536c2.17-2.833 4.42-5.764 6.386-8.802l.066-.086.516-.562a61.397 61.397 0 002.138-2.382l1.111-1.324.662 2.052c.192.582.39 1.184.523 1.707.437 1.793.82 3.62 1.184 5.386v.106c.192.94.39 1.906.603 2.852v.073c0 .04.086.477.436.39l.239.265-.14-.297.259-.093h.139a.49.49 0 00.35-.126v-.145a25.018 25.018 0 01-1.098-4.593c-.146-.82-.278-1.588-.444-2.31a58.7 58.7 0 00-.78-2.898 41.627 41.627 0 01-1.178-4.93v-.232a.495.495 0 00-.133-.37.33.33 0 00-.31-.112l-.279.04-.251-.113a.317.317 0 00-.225 0 189.98 189.98 0 00-6.83 1.773c-3.242.88-6.544 1.774-9.925 2.449-.126 0-.146.066-.16.132a.496.496 0 00.173.476l.245.265.08.106a.49.49 0 00.66.093l.206-.093.893-.146a36.107 36.107 0 006.26-1.396c.616-.212 1.238-.403 1.834-.589.383-.119.72-.218 1.052-.33l.873-.245c.39-.106.735-.2 1.04-.312a2.17 2.17 0 01.66-.132l.1-.225.298.126h.08l.171.04 1.542-.06-1.66 2.085c-1.94 2.441-3.839 4.936-5.771 7.49a303.64 303.64 0 00-3.918 4.858c-.437.556-.9 1.178-1.456 1.985l-.046.053c-.51.609-1.032 1.21-1.535 1.8l-.066.08c-1.893 2.196-3.845 4.466-5.559 6.822l-.602.827-.788-.662a22.958 22.958 0 01-2.296-2.442c-.285-.33-.536-.622-.721-.827l-.728-.794a80.99 80.99 0 00-2.402-2.548 38.36 38.36 0 00-1.542-1.456 29.454 29.454 0 01-2.647-2.646c-.318-.384-.662-.781-.96-1.172a36.225 36.225 0 00-3.037-3.414.389.389 0 00-.146-.093l-.191-.08-.087-.066a.576.576 0 00-.238-.139z"/></g><path d="M105.815 75.406c-6.314.727-12.752 1.66-19.125 1.86-7.643.23-15.22-1.199-22.81-1.781-7.405-.57-14.77.33-22.175.344h-7.451c-2.343.033-4.686.179-7.035.179a25.259 25.259 0 01-6.796-.662c-1.707-.47-3.408-1.641-3.845-3.646-.284-1.324 0-2.727-.112-4.076a26.833 26.833 0 00-.748-3.607 40.927 40.927 0 01-1.41-7.908c-.052-1.37 0-2.746 0-4.123 0-1.376 0-2.732.073-4.102s.192-2.647.291-4.017c.1-1.37.08-2.793.16-4.189.151-2.72.601-5.433.337-8.16-.126-1.323-.43-2.54-.662-3.818a22.215 22.215 0 01-.172-4.09c.08-7.781.198-15.53.43-23.306h-.78a71.246 71.246 0 00-.662 11.912c.046 12.242.092 24.484.205 36.733.072 8.173-1.423 24.73 7.808 27.793 2.29.768 4.725.775 7.12.781 24.287.06 48.81 1.853 73.064.093 1.853-.132 5.168-.232 6.015-2.283a5.469 5.469 0 00-1.72.073z" fill="#fff"/><path d="M77.618 78.767c-8.457 0-16.887-.218-25.18-.43-7.86-.198-15.987-.41-23.954-.43-2.39 0-4.864 0-7.22-.8-8.345-2.793-8.172-16.054-8.06-24.836v-3.309c-.113-12.374-.159-24.755-.205-36.733A71.496 71.496 0 0113.66.278.33.33 0 0113.985 0h.78a.338.338 0 01.332.344c-.206 6.757-.338 13.943-.437 23.293v.358a19.87 19.87 0 00.172 3.68c.073.416.152.84.231 1.256.166.84.331 1.708.417 2.581a32.035 32.035 0 01-.152 5.81 73.28 73.28 0 00-.192 2.402c0 .616-.046 1.238-.06 1.853 0 .768-.039 1.562-.092 2.343 0 .43-.073.854-.106 1.277a52.09 52.09 0 00-.192 2.726c0 .775 0 1.549-.04 2.323v1.78c-.033 1.264-.072 2.694 0 4.097.157 2.38.55 4.738 1.172 7.04l.192.815c.06.251.125.509.192.767.262.946.45 1.91.562 2.885.037.58.037 1.161 0 1.74a9.03 9.03 0 00.1 2.29c.502 2.31 2.686 3.15 3.606 3.402a24.97 24.97 0 006.617.661h.086c1.324 0 2.687-.046 3.97-.092 1.013 0 2.026-.073 3.038-.086h7.458c2.773 0 5.592-.14 8.312-.272 4.626-.311 9.267-.338 13.896-.079 2.561.199 5.162.496 7.677.78 4.936.57 10.052 1.152 15.094 1 5.042-.152 10.224-.787 15.22-1.39l3.878-.47h.172a5.237 5.237 0 011.701 0 .32.32 0 01.225.166.333.333 0 010 .285c-.874 2.117-3.925 2.322-5.956 2.461h-.357c-7.862.55-15.882.742-23.883.742zM19.186 75.28a8.08 8.08 0 002.283 1.204c2.257.755 4.679.762 7.015.762 7.974 0 16.106.231 23.975.43 16.12.416 32.782.847 49.061-.338h.358c1.7-.112 4.202-.284 5.161-1.654-.345.001-.69.026-1.032.073h-.172l-.02-.351.04.324-3.878.47c-5.01.609-10.19 1.237-15.28 1.39-5.088.152-10.224-.43-15.22-1-2.508-.284-5.095-.582-7.65-.774a110.363 110.363 0 00-13.803.08c-2.733.125-5.553.258-8.345.264h-7.445c-1.006 0-2.018.047-3.024.086-1.323.047-2.647.093-4.017.093a25.723 25.723 0 01-6.889-.662 7.287 7.287 0 01-1.118-.397zM14.283.675a72.035 72.035 0 00-.602 11.567c.046 11.971.092 24.36.205 36.727v3.309c-.073 5.883-.18 13.824 2.303 19.091a11.596 11.596 0 01-.04-2.031c.033-.551.033-1.104 0-1.655a18.354 18.354 0 00-.55-2.786c-.066-.258-.125-.516-.191-.774l-.192-.814a37.054 37.054 0 01-1.224-7.16c-.054-1.423 0-2.865 0-4.142V50.24c0-.781 0-1.562.046-2.336 0-.927.112-1.86.185-2.76.04-.423.073-.847.106-1.27.06-.768.073-1.555.093-2.31 0-.629 0-1.25.066-1.88.046-.806.112-1.614.185-2.414.225-1.889.278-3.794.159-5.692-.086-.847-.252-1.7-.41-2.52-.08-.424-.16-.848-.232-1.278a21.54 21.54 0 01-.185-3.792v-.357c.092-9.198.225-16.299.417-22.97l-.14.014z" fill="#fff"/><path d="M107.924 76.16l-.529.106c-.552.092-1.109.153-1.668.185a9.963 9.963 0 00-1.509.397 4.48 4.48 0 01-1.541.126c-.614-.062-1.23-.09-1.847-.086-.533.047-1.061.133-1.581.258-1.17.184-2.35.293-3.534.324-1.178.093-2.356.239-3.534.318-1.178.08-2.11.582-3.216.57-1.105-.014-2.382-.06-3.573-.04-1.191.02-2.555.059-3.832.066a18.926 18.926 0 01-3.567-.166c-1.138-.225-2.23-.662-3.381-.814-1.151-.152-2.389-.238-3.58-.383a28.323 28.323 0 00-3.593-.126c-1.191 0-2.363-.298-3.547-.41-1.185-.113-2.436-.053-3.653-.053h-3.72a26.451 26.451 0 00-3.692.105 25.113 25.113 0 01-3.652.358H34.166c-2.344.04-4.686.178-7.035.185a25.61 25.61 0 01-6.803-.662 5.077 5.077 0 01-3.851-3.66c-.292-1.323 0-2.719-.12-4.069a25.428 25.428 0 00-.74-3.606 41.037 41.037 0 01-1.41-7.908c-.053-1.377 0-2.746 0-4.123 0-1.376 0-2.74.066-4.103.066-1.363.199-2.647.298-4.017.1-1.37.08-2.792.152-4.195.152-2.713.609-5.426.344-8.153-.126-1.323-.43-2.547-.662-3.825a22.804 22.804 0 01-.178-4.09c.06-5.538-.066-11.083 0-16.622a47.64 47.64 0 01.728-7.71H13.83c-.113.662-.205 1.324-.298 1.986a41.3 41.3 0 00-.364 4.096c-.113 2.819-.053 5.645-.053 8.47v8.702c0 1.403-.1 2.826.04 4.229.139 1.403.47 2.647.662 4.003.43 2.8 0 5.638-.219 8.438-.092 1.396-.06 2.799-.152 4.195-.093 1.396-.245 2.753-.311 4.13-.066 1.376-.04 2.812-.08 4.215-.04 1.402-.072 2.832 0 4.241a41.839 41.839 0 001.437 8.16c.379 1.243.64 2.52.78 3.811.073 1.363-.159 2.74.14 4.09a6.056 6.056 0 003.619 4.182c1.985.887 4.387.986 6.525 1.059 2.455.08 4.903-.06 7.359-.132 5.135-.146 10.29-.073 15.431-.04a22.765 22.765 0 003.673-.225 23.242 23.242 0 013.772-.238c2.535 0 5.095-.126 7.623 0 1.224.066 2.429.383 3.646.443.662 0 1.364-.053 2.045-.046.587.017 1.173.068 1.754.152 1.23.152 2.481.212 3.706.397 1.224.185 2.342.662 3.54.847 1.23.142 2.469.189 3.706.139 1.277 0 2.547-.046 3.825-.066 1.277-.02 2.435.073 3.653.046a5.872 5.872 0 001.687-.33 6.62 6.62 0 011.648-.272c1.21-.1 2.422-.245 3.633-.324a25.357 25.357 0 003.52-.37c1.224-.259 2.376-.034 3.607-.074a6.38 6.38 0 001.68-.344 7.109 7.109 0 011.575-.245 15.475 15.475 0 001.536-.251 47.47 47.47 0 01-.252-1.25z" fill="#fff"/><path d="M80.55 79.998a17.106 17.106 0 01-2.529-.152 16.064 16.064 0 01-1.793-.43 14.47 14.47 0 00-1.74-.417c-.709-.106-1.443-.172-2.151-.238a61.442 61.442 0 01-1.549-.152h-.198a12.902 12.902 0 00-1.516-.126h-.86c-.39 0-.794.033-1.198 0a16.07 16.07 0 01-1.892-.225 17.27 17.27 0 00-1.76-.219c-1.655-.086-3.355-.06-5.01-.04-.867 0-1.727.034-2.594 0a23.01 23.01 0 00-3.725.232c-1.234.178-2.48.256-3.726.232h-2.17c-4.348 0-8.842-.066-13.236.06l-1.707.059c-1.86.066-3.778.132-5.664.066-1.986-.06-4.514-.139-6.618-1.085a6.386 6.386 0 01-3.812-4.414 10.804 10.804 0 01-.145-2.68v-1.462a14.435 14.435 0 00-.543-2.853c-.08-.304-.159-.602-.225-.9l-.072-.29a40.535 40.535 0 01-1.324-7.942c-.053-1.376 0-2.772 0-4.116v-1.82c0-.833 0-1.694.053-2.547.053-.854.113-1.635.179-2.429.046-.569.092-1.138.132-1.707.046-.662.06-1.39.08-2.071.02-.682 0-1.416.072-2.125.073-.708.106-1.323.166-1.952.274-2.127.294-4.28.06-6.412-.08-.523-.186-1.039-.285-1.555-.152-.807-.318-1.635-.397-2.475a25.65 25.65 0 01-.06-3.037V12.792c0-2.092 0-4.249.066-6.373.049-1.382.17-2.76.364-4.13l.066-.476c.073-.51.146-1.02.225-1.522A.324.324 0 0113.84.02h1.178a.318.318 0 01.258.119.358.358 0 01.072.271 46.555 46.555 0 00-.72 7.657 333.57 333.57 0 000 8.913v8.06c-.057 1.23 0 2.461.171 3.68.073.423.152.847.232 1.27.165.834.33 1.7.417 2.574.126 1.94.073 3.887-.16 5.817-.065.794-.138 1.595-.185 2.389 0 .615-.046 1.237-.059 1.853a31.4 31.4 0 01-.1 2.349c0 .423-.065.854-.098 1.277-.08.893-.16 1.82-.192 2.727 0 .774-.034 1.548-.04 2.322v1.774c-.033 1.323-.073 2.72 0 4.103a36.113 36.113 0 001.204 7.034l.192.807c.06.258.126.516.192.781.262.941.45 1.902.563 2.872.036.582.036 1.165 0 1.747a9.061 9.061 0 00.099 2.29c.503 2.31 2.686 3.15 3.606 3.401 2.167.513 4.392.735 6.618.662h.099c1.323 0 2.647-.053 3.97-.1 1.02-.032 2.032-.066 3.044-.085h15.022a18.604 18.604 0 003.024-.272l.583-.086c.977-.11 1.961-.147 2.944-.112h5.473c.907-.03 1.815-.01 2.72.06.456.046.906.118 1.363.185.71.133 1.429.208 2.15.225h.166a26.418 26.418 0 013.468.132c.516.06 1.039.112 1.555.159.661.06 1.356.125 2.031.218a16.99 16.99 0 011.94.45 18.2 18.2 0 001.462.37c.967.15 1.947.203 2.925.16h.575c.92 0 1.84 0 2.753-.04h4.652a6.33 6.33 0 001.674-.278 9.268 9.268 0 011.516-.285c.662-.046 1.257-.112 1.886-.172l1.654-.152 1.066-.066c.813-.017 1.623-.1 2.422-.252a10.658 10.658 0 011.627-.258c.455-.02.911-.006 1.364.04.172 0 .344.033.522.04.48.045.963.007 1.43-.113l.41-.119c.373-.134.759-.23 1.151-.284.199 0 .391-.04.589-.053a8.99 8.99 0 001.053-.133l.291-.06.238-.046a.332.332 0 01.245.053.314.314 0 01.145.212c.08.424.153.854.219 1.277a.328.328 0 01-.051.242.327.327 0 01-.207.135 15.87 15.87 0 01-1.569.252h-.284a5.768 5.768 0 00-1.224.205 6.427 6.427 0 01-1.767.364h-1.324a9.03 9.03 0 00-2.236.086 20.817 20.817 0 01-3.11.35h-.45c-.709.047-1.417.12-2.125.193l-1.509.139h-.099a5.74 5.74 0 00-1.469.245 6.015 6.015 0 01-1.787.344h-1.919c-.595 0-1.151-.033-1.733 0h-1.258c-.86 0-1.714.033-2.574.04h-1.23l-.034.02zm-11.528-2.204h.06c.533.011 1.066.055 1.594.133h.192c.51.06 1.019.106 1.528.152.722.066 1.463.132 2.19.245.616.105 1.224.249 1.82.43.565.173 1.14.31 1.721.41a19.5 19.5 0 003.177.146h.47c.86 0 1.713 0 2.567-.04h3.024c.589 0 1.257.033 1.886 0a5.193 5.193 0 001.588-.317 6.616 6.616 0 011.628-.272h.1l1.495-.145c.715-.067 1.43-.14 2.144-.186h.45a20.733 20.733 0 003.017-.337 9.313 9.313 0 012.409-.106c.411 0 .841.04 1.264 0a5.885 5.885 0 001.588-.33 5.96 5.96 0 011.364-.232h.278c.403-.04.807-.106 1.191-.18 0-.21-.073-.416-.106-.621h-.192c-.378.076-.76.125-1.145.145l-.562.053a5.41 5.41 0 00-1.026.258l-.424.126a4.92 4.92 0 01-1.654.14l-.536-.04a8.3 8.3 0 00-1.271-.047c-.517.045-1.03.129-1.535.252-.832.155-1.675.243-2.521.264l-1.052.06-1.635.152c-.662.066-1.27.126-1.906.172-.472.05-.94.14-1.396.271a7.741 7.741 0 01-1.846.298h-1.211c-.768 0-1.562-.033-2.35 0h-1.071c-.92 0-1.84.04-2.76.04h-.575a15.306 15.306 0 01-3.058-.172c-.516-.1-1.026-.245-1.515-.384a15.04 15.04 0 00-1.853-.43 40.543 40.543 0 00-1.985-.218 40.8 40.8 0 01-1.575-.16 26.237 26.237 0 00-3.388-.125h-.186a14.35 14.35 0 01-2.263-.232c-.437-.072-.88-.139-1.323-.178-.88-.069-1.764-.09-2.647-.067h-5.486a19.59 19.59 0 00-2.852.106l-.576.08a20.44 20.44 0 01-3.123.284H34.16c-1.013 0-2.025.053-3.031.086a111.93 111.93 0 01-4.01.093 26.647 26.647 0 01-6.889-.662c-1.032-.284-3.494-1.237-4.07-3.897a9.6 9.6 0 01-.119-2.456 13.93 13.93 0 000-1.66 18.18 18.18 0 00-.549-2.773c-.066-.265-.132-.523-.192-.788l-.192-.8a37.208 37.208 0 01-1.224-7.167c-.06-1.403 0-2.8 0-4.143V51.26c0-.781 0-1.562.04-2.343.04-.926.119-1.853.191-2.76.04-.423.073-.846.107-1.27.059-.768.072-1.555.092-2.31 0-.628 0-1.25.066-1.872.04-.808.113-1.615.185-2.416a30.81 30.81 0 00.153-5.697c-.08-.84-.245-1.688-.404-2.515-.08-.423-.159-.847-.231-1.277a20.988 20.988 0 01-.185-3.8v-.35c.033-2.568 0-5.175 0-7.703V8.02c.034-2.47.255-4.935.662-7.372h-.503c-.066.41-.126.82-.179 1.231l-.066.477a39.774 39.774 0 00-.364 4.063c-.086 2.11-.073 4.261-.066 6.346v12.043a25.95 25.95 0 00.053 2.965c.08.808.238 1.622.39 2.402.106.53.206 1.053.285 1.589.247 2.184.23 4.39-.053 6.57-.06.662-.12 1.324-.159 1.933-.04.609-.066 1.41-.08 2.098-.012.688 0 1.396-.072 2.104-.04.57-.086 1.145-.139 1.714a71.004 71.004 0 00-.172 2.409c-.04.8-.046 1.694-.053 2.521v1.827c-.033 1.323-.066 2.726 0 4.082a40.2 40.2 0 001.324 7.783l.072.29c.066.292.146.59.225.887.287.976.475 1.978.563 2.992v1.502a9.989 9.989 0 00.132 2.528 5.725 5.725 0 003.435 3.97c1.985.893 4.447.966 6.399 1.032 1.952.067 3.778 0 5.618-.073l1.714-.059c4.42-.126 8.92-.086 13.274-.053h2.17a22.353 22.353 0 003.62-.225c1.267-.18 2.546-.26 3.826-.238h2.587c1.654 0 3.375-.053 5.056.04a16.61 16.61 0 011.826.225c.596.092 1.218.185 1.82.218h1.131c.285-.033.583-.046.847-.046z" fill="#fff"/><path d="M15.566 44.999c.145-1.284.383-2.548.443-3.845.119-2.74-.47-5.426-.761-8.133-.152-1.39-.199-2.786-.377-4.176-.179-1.39-.384-2.646-.503-3.97-.12-1.323-.172-2.733-.278-4.096-.106-1.363-.212-2.74-.225-4.116.073-2.673.405-5.333.992-7.941a26.01 26.01 0 00.563-3.64c.053-1.356-.318-2.726-.093-4.076.033-.212.084-.42.152-.622h-.436c-3.196 6.505-1.813 17.35-1.549 23.498.53 12.236 1.119 24.485 1.7 36.694.259 5.334.537 10.773 2.363 15.75-.787-9.08-1.39-18.112-1.985-27.185A22.89 22.89 0 0115.566 45z" fill="#fff"/><path d="M17.558 76.61a.33.33 0 01-.311-.218c-1.86-5.076-2.124-10.548-2.376-15.849v-.37c-.569-11.912-1.165-24.214-1.68-36.324a169.64 169.64 0 00-.193-3.269c-.403-6.266-.96-14.85 1.767-20.388a.338.338 0 01.298-.185h.437a.271.271 0 01.264.139.337.337 0 01.054.297 3.295 3.295 0 00-.146.57 9.2 9.2 0 000 2.296c.065.577.094 1.159.086 1.74a19.321 19.321 0 01-.417 2.905c-.053.265-.106.523-.152.781l-.146.814a36.725 36.725 0 00-.847 7.094c0 1.403.133 2.832.225 4.09.049.595.088 1.19.12 1.786.052.768.099 1.535.165 2.303.08.913.205 1.833.33 2.72.06.423.12.847.173 1.264.099.78.159 1.575.211 2.342.047.616.093 1.231.16 1.847.085.794.198 1.588.31 2.382.33 1.914.482 3.854.457 5.797-.04.88-.166 1.747-.278 2.594-.06.423-.12.847-.172 1.277a20.187 20.187 0 000 3.686v.35c.536 8.603 1.145 17.868 1.985 27.172a.324.324 0 01-.251.35l-.073.007zM14.91 1.363c-2.197 5.393-1.688 13.314-1.324 19.19.073 1.192.146 2.297.186 3.31.522 12.11 1.111 24.418 1.68 36.316v.377c.206 4.222.41 8.563 1.437 12.692-.662-8.265-1.212-16.43-1.695-24.094v-.35a21.491 21.491 0 010-3.805c.053-.43.113-.86.172-1.29.113-.828.232-1.688.272-2.535.026-1.9-.125-3.8-.45-5.672-.113-.8-.225-1.6-.311-2.402a59.043 59.043 0 01-.159-1.872c-.06-.755-.12-1.542-.212-2.303-.053-.417-.112-.84-.172-1.258a51.47 51.47 0 01-.33-2.752c-.074-.775-.12-1.549-.166-2.323-.04-.59-.073-1.185-.12-1.774-.098-1.27-.211-2.713-.224-4.136a37.09 37.09 0 01.847-7.22l.152-.813c.046-.258.1-.523.152-.788.204-.924.338-1.861.404-2.805a13.83 13.83 0 00-.08-1.655 11.808 11.808 0 01-.026-2.038h-.033z" fill="#fff"/><path d="M16.359 64.672c-.377-5.532-.536-11.07-.88-16.603a23.526 23.526 0 01-.04-4.096c.152-1.284.39-2.548.45-3.845.12-2.74-.47-5.426-.768-8.126-.145-1.396-.191-2.792-.37-4.182-.179-1.39-.384-2.647-.503-3.97-.12-1.324-.172-2.734-.278-4.097-.106-1.363-.212-2.74-.232-4.116.076-2.673.41-5.332 1-7.94.27-1.2.458-2.416.562-3.64.046-1.218-.245-2.455-.146-3.666h-1.15c-.06 1.131.145 2.256.145 3.394a21.506 21.506 0 01-.583 3.845 41.692 41.692 0 00-.98 8.206c0 1.416.133 2.825.246 4.235.112 1.41.159 2.806.297 4.202.14 1.396.358 2.74.523 4.11.166 1.37.206 2.792.37 4.188.338 2.786.94 5.592.663 8.411-.14 1.324-.41 2.647-.47 4.037-.06 1.39.106 2.825.178 4.222.155 2.898.305 5.797.45 8.695.146 2.812.239 5.645.497 8.45a40.01 40.01 0 00.575 4.077 30.12 30.12 0 00.781 3.44 9.43 9.43 0 00.827 1.847c.424-.073.854-.145 1.278-.205a9.556 9.556 0 01-1.324-3.137 47.773 47.773 0 01-1.118-7.736z" fill="#fff"/><path d="M17.518 76.067a.33.33 0 01-.285-.165 9.45 9.45 0 01-.853-1.912 23.824 23.824 0 01-.662-2.932l-.106-.55a40.254 40.254 0 01-.582-4.102c-.192-2.118-.298-4.282-.39-6.373 0-.701-.067-1.396-.107-2.097l-.45-8.689c0-.404-.046-.807-.079-1.218a25.728 25.728 0 01-.1-3.037c.04-.84.16-1.68.272-2.488.073-.523.146-1.046.199-1.569a26.663 26.663 0 00-.39-6.405c-.093-.662-.186-1.29-.266-1.933-.079-.641-.132-1.429-.185-2.124-.053-.694-.1-1.383-.179-2.064-.072-.563-.145-1.132-.225-1.694a54.974 54.974 0 01-.304-2.422 62.617 62.617 0 01-.185-2.541c0-.556-.066-1.112-.113-1.668v-.113c-.106-1.356-.212-2.76-.238-4.142.028-2.692.323-5.374.88-8.007l.053-.298c.053-.298.12-.602.179-.907a14.4 14.4 0 00.397-2.878c0-.483-.04-.98-.08-1.456-.062-.649-.084-1.3-.066-1.952a.338.338 0 01.331-.318h1.171a.33.33 0 01.331.358 11.68 11.68 0 00.06 1.912c.066.578.093 1.16.08 1.74-.06.978-.197 1.95-.411 2.905-.053.265-.106.523-.152.781l-.152.82a37.11 37.11 0 00-.84 7.088c0 1.403.132 2.832.224 4.096.046.59.086 1.185.12 1.78.046.768.092 1.542.165 2.31.08.906.205 1.826.33 2.713.06.424.113.847.166 1.27.1.781.159 1.569.218 2.337.047.615.093 1.23.16 1.846.085.794.198 1.588.31 2.382.33 1.914.482 3.855.457 5.797-.04.88-.166 1.754-.285 2.594-.053.424-.119.847-.165 1.277a20.333 20.333 0 000 3.7v.337c.159 2.554.278 5.155.397 7.67.139 2.931.278 5.955.483 8.926a46.443 46.443 0 001.151 7.637c.235 1.075.66 2.1 1.258 3.024a.324.324 0 01.033.318.351.351 0 01-.258.192c-.424.06-.84.132-1.264.211l-.053.033zM14.328.709c0 .51 0 1.02.073 1.555.073.536.08 1 .08 1.509a15.402 15.402 0 01-.41 3.01c-.06.305-.127.603-.18.894l-.053.305a39.5 39.5 0 00-.92 7.835c0 1.37.133 2.76.232 4.103v.112c.04.562.073 1.118.106 1.68.053.828.106 1.682.185 2.515.08.834.192 1.615.305 2.396.08.569.152 1.138.225 1.707.08.702.132 1.41.178 2.091.047.682.106 1.403.186 2.098.08.695.172 1.277.264 1.92a27.18 27.18 0 01.391 6.564c-.053.536-.126 1.065-.199 1.594-.112.795-.231 1.615-.264 2.422-.027.99.006 1.98.099 2.965 0 .41.06.82.08 1.23l.45 8.657.099 2.097c.099 2.085.198 4.242.397 6.346a38.93 38.93 0 00.569 4.037l.106.55c.16.965.381 1.92.661 2.858.172.546.394 1.076.662 1.582l.563-.093a10.286 10.286 0 01-1.086-2.806 47.848 47.848 0 01-1.138-7.749 473.47 473.47 0 01-.483-8.94 443.248 443.248 0 00-.397-7.663v-.33a21.622 21.622 0 010-3.82c.053-.436.113-.866.172-1.323.113-.827.232-1.68.271-2.528a30.715 30.715 0 00-.45-5.677c-.112-.801-.225-1.602-.31-2.403-.067-.622-.113-1.25-.166-1.872a39.714 39.714 0 00-.212-2.303c-.053-.417-.106-.84-.165-1.257-.126-.9-.252-1.827-.338-2.753-.066-.768-.112-1.549-.159-2.323-.04-.589-.072-1.184-.119-1.773-.099-1.271-.211-2.707-.231-4.136.05-2.427.336-4.842.853-7.213l.153-.82c.046-.259.099-.524.152-.788.203-.924.338-1.862.403-2.806.007-.553-.02-1.105-.079-1.655-.06-.553-.086-1.11-.08-1.667l-.476.066z" fill="#fff"/></svg>