<svg width="121" height="80" fill="none" xmlns="http://www.w3.org/2000/svg"><path d="M101.79 8.46a123.37 123.37 0 00-7.602-.34 44.14 44.14 0 00.115-6.433c-.122-2.243-3.683-2.256-3.561 0 .144 2.571.06 5.15-.25 7.706l-2.928 2.659c.051-.63.115-1.21.128-1.74l.102-4.763c.045-2.255-3.516-2.255-3.561 0-.045 2.256-.103 4.619-.147 6.931a16.583 16.583 0 00-.051 2.78l-6.33 5.745c-6.157-5.723-13.939-9.46-22.307-10.711-13.894-2.237-25.351 7.177-31.796 18.581-7.672 13.534-7.148 29.891 4.7 40.956 10.575 9.854 29.82 13.969 42.562 5.86 13.529-8.608 20.344-26.338 15.492-41.498a33.905 33.905 0 00-6.202-10.61l6.63-6.024c1.279.183 2.755.1 3.785.195l6.911.63c2.276.215 2.264-3.295 0-3.51l-5.613-.535c-.467-.044-.966-.07-1.477-.088l2.903-2.64c2.838 0 5.67.126 8.503.34 2.276.176 2.27-3.333-.006-3.49zM82.903 35.113c3.779 11.795-.122 24.939-8.951 33.584-10.383 10.15-27.186 9.558-39.001 1.89-12.813-8.38-16.074-23.502-9.84-36.923 4.597-9.905 14.277-20.742 26.29-20.308 8.874.398 17.299 3.958 23.708 10.019l-4.168 3.78c-4.356-4.358-10.176-7-16.368-7.429-10.498-.73-18.81 4.625-22.838 14.032-3.382 7.889-5.185 19.356.793 26.464 7.282 8.701 19.82 13.956 30.804 9.407 12.883-5.35 18.542-20.327 13.964-33.004a29.031 29.031 0 00-4.009-6.868c1.42-1.26 2.834-2.543 4.245-3.85a29.824 29.824 0 015.371 9.193v.013zM70.94 57.323c-11.546 16.383-27.53 9.156-32.645 2.899-.039-.05-.064-.095-.096-.145-.032-.05-.128-.132-.186-.208-4.092-5.86-9.711-20.818 1.24-30.994 16.145-11.316 23.14-1.165 28.07 2.615l-14.61 12.23c-1.689 1.531.83 4.007 2.512 2.483l14.578-12.23c1.693 2.41 4.387 12.427 4.259 15.356a13.335 13.335 0 01-3.121 7.995z" fill="#fff"/></svg>