<svg width="190" height="190" fill="none" xmlns="http://www.w3.org/2000/svg"><path opacity=".034" d="M21.874 109.578C.817 101.101 4.05 70.336 26.41 66.422c13.058-2.285 21.946-14.52 20.085-27.645-3.188-22.475 25.073-35.057 39.642-17.65 8.508 10.166 23.548 11.747 33.984 3.572 17.87-13.998 42.897 4.186 35.106 25.507-4.549 12.45 1.601 26.266 13.899 31.216 21.057 8.477 17.824 39.243-4.536 43.156-13.058 2.286-21.947 14.52-20.085 27.645 3.187 22.475-25.073 35.057-39.643 17.65-8.508-10.166-23.547-11.747-33.983-3.572-17.87 13.998-42.897-4.185-35.107-25.506 4.55-12.451-1.6-26.266-13.898-31.217z" stroke="url(#paint0_linear_408_52875)" stroke-width="2"/><path opacity=".069" d="M22.157 105.569c-20.32-9.445-15.544-39.607 6.701-42.31 13.004-1.58 22.409-13.194 21.25-26.242-1.98-22.32 26.53-33.264 39.992-15.351 7.87 10.472 22.631 12.81 33.352 5.282 18.34-12.876 42.072 6.342 33.291 26.958-5.134 12.052.221 26.003 12.101 31.525 20.32 9.445 15.543 39.606-6.701 42.309-13.005 1.58-22.409 13.194-21.251 26.242 1.981 22.321-26.528 33.265-39.992 15.352-7.87-10.472-22.63-12.81-33.351-5.283-18.34 12.876-42.072-6.342-33.29-26.958 5.133-12.052-.223-26.003-12.102-31.524z" stroke="url(#paint1_linear_408_52875)" stroke-width="2"/><path opacity=".103" d="M22.654 101.628C3.113 91.269 9.38 61.788 31.444 60.273c12.914-.887 22.794-11.86 22.326-24.795-.8-22.102 27.865-31.416 40.21-13.065 7.224 10.74 21.667 13.81 32.635 6.937 18.742-11.744 41.141 8.424 31.42 28.29-5.688 11.627-1.126 25.67 10.31 31.732 19.542 10.358 13.275 39.84-8.79 41.355-12.913.887-22.793 11.86-22.325 24.795.799 22.102-27.866 31.416-40.21 13.065-7.225-10.74-21.668-13.809-32.636-6.937-18.741 11.744-41.14-8.424-31.42-28.29 5.689-11.627 1.126-25.67-10.31-31.732z" stroke="url(#paint2_linear_408_52875)" stroke-width="2"/><path opacity=".138" d="M23.36 97.768C4.64 86.55 12.338 57.82 34.16 57.467c12.785-.207 23.1-10.522 23.307-23.307.353-21.823 29.083-29.521 40.3-10.799 6.572 10.969 20.662 14.744 31.839 8.531 19.075-10.605 40.107 10.427 29.502 29.502-6.214 11.176-2.438 25.267 8.531 31.839 18.722 11.217 11.024 39.947-10.799 40.3-12.785.207-23.1 10.522-23.307 23.308-.353 21.822-29.083 29.52-40.3 10.798-6.573-10.969-20.663-14.744-31.839-8.531-19.076 10.605-40.107-10.426-29.502-29.502 6.213-11.176 2.438-25.266-8.531-31.838z" stroke="url(#paint3_linear_408_52875)" stroke-width="2"/><path opacity=".172" d="M24.269 93.998c-17.868-12.02-8.8-39.93 12.72-39.15 12.623.456 23.33-9.186 24.196-21.787 1.475-21.483 30.18-27.584 40.266-8.558 5.916 11.16 19.619 15.612 30.965 10.06 19.343-9.464 38.979 12.345 27.545 30.592-6.707 10.704-3.711 24.797 6.769 31.847 17.868 12.02 8.799 39.929-12.721 39.151-12.622-.457-23.33 9.185-24.195 21.786-1.476 21.483-30.18 27.584-40.266 8.558-5.916-11.159-19.62-15.612-30.965-10.061-19.343 9.464-38.98-12.344-27.545-30.591 6.707-10.704 3.711-24.797-6.77-31.847z" stroke="url(#paint4_linear_408_52875)" stroke-width="2"/><path opacity=".207" d="M25.372 90.33C8.39 77.565 18.765 50.54 39.925 52.417c12.425 1.103 23.484-7.852 24.989-20.236 2.562-21.087 31.155-25.616 40.108-6.352 5.258 11.312 18.543 16.412 30.02 11.523 19.543-8.325 37.761 14.173 25.555 31.559-7.168 10.209-4.941 24.264 5.03 31.759 16.982 12.763 6.607 39.789-14.552 37.911-12.426-1.103-23.485 7.853-24.99 20.236-2.562 21.087-31.154 25.616-40.108 6.353-5.258-11.313-18.543-16.412-30.02-11.524-19.543 8.325-37.76-14.173-25.555-31.558 7.168-10.21 4.942-24.265-5.03-31.76z" stroke="url(#paint5_linear_408_52875)" stroke-width="2"/><path opacity=".241" d="M26.661 86.772c-16.066-13.447-4.453-39.53 16.29-36.589 12.196 1.73 23.565-6.53 25.689-18.663 3.612-20.637 32.007-23.622 39.831-4.187 4.6 11.427 17.437 17.143 29.007 12.915 19.679-7.19 36.461 15.909 23.542 32.402-7.596 9.697-6.127 23.672 3.319 31.579 16.066 13.446 4.453 39.53-16.291 36.588-12.196-1.73-23.564 6.53-25.688 18.663-3.612 20.638-32.007 23.622-39.831 4.187-4.6-11.427-17.438-17.143-29.007-12.915-19.679 7.19-36.461-15.908-23.542-32.402 7.596-9.697 6.127-23.672-3.319-31.578z" stroke="url(#paint6_linear_408_52875)" stroke-width="2"/><path opacity=".276" d="M28.128 83.335c-15.127-14.07-2.345-39.157 17.93-35.19 11.935 2.336 23.57-5.22 26.292-17.073 4.622-20.136 32.738-21.61 39.439-2.067 3.945 11.504 16.307 17.803 27.933 14.232 19.749-6.065 35.083 17.547 21.51 33.122-7.991 9.169-7.265 23.024 1.64 31.307 15.127 14.071 2.346 39.156-17.929 35.189-11.936-2.336-23.571 5.221-26.292 17.074-4.622 20.136-32.738 21.609-39.44 2.067-3.945-11.504-16.306-17.803-27.932-14.232-19.75 6.065-35.084-17.548-21.51-33.123 7.99-9.168 7.264-23.023-1.64-31.306z" stroke="url(#paint7_linear_408_52875)" stroke-width="2"/><path opacity=".31" d="M29.763 80.027c-14.167-14.634-.288-38.672 19.468-33.72 11.646 2.919 23.506-3.929 26.8-15.473 5.59-19.586 33.348-19.586 38.937 0 3.295 11.544 15.155 18.392 26.801 15.473 19.756-4.952 33.635 19.086 19.468 33.72-8.351 8.626-8.351 22.321 0 30.946 14.167 14.634.288 38.673-19.468 33.72-11.646-2.919-23.506 3.929-26.801 15.474-5.589 19.586-33.347 19.586-38.936-.001-3.295-11.544-15.155-18.392-26.8-15.473-19.758 4.953-33.636-19.086-19.469-33.72 8.35-8.625 8.35-22.32 0-30.946z" stroke="url(#paint8_linear_408_52875)" stroke-width="2"/><path opacity=".345" d="M31.558 76.856c-13.19-15.135 1.71-38.081 20.903-32.187 11.327 3.478 23.37-2.658 27.214-13.866 6.512-18.992 33.835-17.56 38.327 2.008 2.651 11.549 13.987 18.91 25.615 16.635 19.703-3.855 32.125 20.523 17.424 34.197-8.676 8.07-9.383 21.568-1.598 30.501 13.19 15.135-1.711 38.082-20.903 32.188-11.327-3.479-23.371 2.658-27.214 13.866-6.513 18.991-33.835 17.559-38.327-2.009-2.651-11.548-13.987-18.91-25.616-16.635-19.703 3.856-32.124-20.522-17.424-34.196 8.676-8.07 9.384-21.569 1.599-30.502z" stroke="url(#paint9_linear_408_52875)" stroke-width="2"/><path opacity=".379" d="M33.501 73.83c-12.2-15.575 3.648-37.388 22.231-30.598 10.983 4.013 23.168-1.413 27.535-12.26 7.388-18.353 34.204-15.535 37.615 3.954 2.016 11.518 12.807 19.358 24.384 17.716 19.589-2.778 30.556 21.854 15.383 34.553-8.966 7.504-10.36 20.77-3.15 29.975 12.2 15.575-3.648 37.389-22.231 30.598-10.983-4.012-23.168 1.413-27.535 12.26-7.388 18.353-34.204 15.535-37.615-3.954-2.016-11.517-12.807-19.358-24.384-17.716-19.589 2.778-30.556-21.854-15.384-34.552 8.967-7.505 10.361-20.77 3.151-29.975z" stroke="url(#paint10_linear_408_52875)" stroke-width="2"/><path opacity=".414" d="M35.584 70.957c-11.202-15.955 5.517-36.6 23.451-28.96 10.614 4.52 22.9-.196 27.762-10.658 8.216-17.677 34.455-13.521 36.806 5.83 1.392 11.452 11.619 19.734 23.111 18.714 19.417-1.723 28.937 23.078 13.354 34.79-9.222 6.931-11.281 19.929-4.652 29.371 11.201 15.954-5.517 36.6-23.451 28.96-10.614-4.52-22.9.196-27.762 10.657-8.217 17.678-34.455 13.522-36.807-5.829-1.391-11.452-11.619-19.734-23.11-18.714-19.417 1.723-28.938-23.078-13.355-34.79 9.223-6.931 11.281-19.93 4.652-29.371z" stroke="url(#paint11_linear_408_52875)" stroke-width="2"/><path opacity=".448" d="M37.795 68.24C27.6 51.968 45.11 32.52 62.357 40.96c10.222 5.002 22.569.99 27.899-9.064 8.993-16.966 34.59-11.525 35.906 7.632.779 11.353 10.427 20.04 21.799 19.628 19.19-.694 27.276 24.194 11.344 34.911-9.443 6.352-12.142 19.05-6.099 28.694 10.196 16.271-7.314 35.718-24.563 27.279-10.222-5.002-22.568-.99-27.898 9.065-8.994 16.965-34.59 11.525-35.906-7.632-.78-11.354-10.427-20.04-21.8-19.629-19.19.694-27.276-24.193-11.343-34.911 9.443-6.352 12.142-19.05 6.1-28.693z" stroke="url(#paint12_linear_408_52875)" stroke-width="2"/><path opacity=".483" d="M40.123 65.686c-9.189-16.528 9.034-34.751 25.563-25.562 9.81 5.453 22.176 2.14 27.945-7.488 9.719-16.222 34.613-9.552 34.919 9.356.182 11.222 9.235 20.276 20.457 20.458 18.909.306 25.579 25.2 9.357 34.919-9.628 5.768-12.942 18.135-7.488 27.945 9.189 16.528-9.034 34.751-25.563 25.562-9.809-5.453-22.176-2.14-27.945 7.488-9.72 16.222-34.612 9.552-34.919-9.356-.182-11.222-9.235-20.276-20.457-20.458-18.908-.306-25.579-25.199-9.357-34.919 9.628-5.768 12.942-18.135 7.488-27.945z" stroke="url(#paint13_linear_408_52875)" stroke-width="2"/><path opacity=".517" d="M42.56 63.3c-8.183-16.724 10.673-33.702 26.451-23.816 9.378 5.877 21.728 3.252 27.905-5.931 10.392-15.45 34.525-7.608 33.851 10.999-.4 11.06 8.048 20.442 19.089 21.2 18.576 1.276 23.852 26.095 7.401 34.816-9.779 5.184-13.68 17.191-8.816 27.132 8.183 16.725-10.673 33.703-26.451 23.817-9.378-5.877-21.728-3.252-27.905 5.931-10.392 15.449-34.524 7.608-33.851-10.999.4-11.06-8.048-20.442-19.09-21.201-18.575-1.275-23.85-26.095-7.4-34.815 9.779-5.184 13.68-17.191 8.816-27.132z" stroke="url(#paint14_linear_408_52875)" stroke-width="2"/><path opacity=".552" d="M45.09 61.087c-7.182-16.862 12.229-32.58 27.229-22.05 8.93 6.27 21.223 4.323 27.779-4.4 11.011-14.65 34.329-5.7 32.709 12.557-.965 10.868 6.869 20.541 17.7 21.857 18.194 2.21 22.101 26.88 5.481 34.605-9.895 4.599-14.355 16.219-10.079 26.257 7.182 16.862-12.229 32.58-27.229 22.049-8.93-6.269-21.223-4.322-27.779 4.4-11.011 14.651-34.33 5.7-32.709-12.556.965-10.868-6.868-20.541-17.7-21.857-18.194-2.211-22.1-26.88-5.48-34.605 9.894-4.599 14.355-16.22 10.079-26.257z" stroke="url(#paint15_linear_408_52875)" stroke-width="2"/><path opacity=".586" d="M47.708 59.049c-6.19-16.941 13.695-31.389 27.894-20.267 8.466 6.632 20.668 5.35 27.57-2.897 11.576-13.832 34.031-3.834 31.498 14.023-1.51 10.649 5.702 20.574 16.295 22.428 17.766 3.11 20.336 27.555 3.604 34.29-9.976 4.017-14.966 15.224-11.276 25.326 6.191 16.941-13.695 31.388-27.894 20.266-8.466-6.632-20.667-5.349-27.57 2.898-11.576 13.831-34.03 3.834-31.498-14.024 1.51-10.648-5.701-20.573-16.295-22.428-17.766-3.109-20.335-27.554-3.604-34.29C46.41 80.358 51.4 69.15 47.708 59.05z" stroke="url(#paint16_linear_408_52875)" stroke-width="2"/><path opacity=".621" d="M50.396 57.188c-5.21-16.963 15.072-30.134 28.45-18.475 7.99 6.963 20.063 6.33 27.281-1.43 12.086-12.993 33.633-2.014 30.225 15.4-2.035 10.401 4.549 20.541 14.879 22.912 17.295 3.97 18.561 28.12 1.775 33.876-10.025 3.437-15.514 14.21-12.402 24.341 5.209 16.963-15.072 30.134-28.45 18.475-7.99-6.963-20.063-6.33-27.281 1.43-12.086 12.993-33.633 2.014-30.225-15.4 2.035-10.401-4.55-20.541-14.88-22.912-17.294-3.97-18.56-28.12-1.774-33.875 10.025-3.438 15.514-14.21 12.402-24.342z" stroke="url(#paint17_linear_408_52875)" stroke-width="2"/><path opacity=".655" d="M53.147 55.508c-4.244-16.93 16.355-28.823 28.895-16.683 7.502 7.263 19.414 7.263 26.916 0 12.54-12.14 33.138-.247 28.895 16.683-2.539 10.128 3.417 20.444 13.458 23.31 16.783 4.79 16.783 28.575 0 33.365-10.041 2.865-15.997 13.181-13.458 23.31 4.243 16.929-16.355 28.822-28.895 16.682-7.502-7.263-19.414-7.263-26.916 0-12.54 12.14-33.139.247-28.895-16.682 2.539-10.129-3.417-20.445-13.458-23.31-16.783-4.79-16.783-28.576 0-33.365 10.041-2.866 15.997-13.182 13.458-23.31z" stroke="url(#paint18_linear_408_52875)" stroke-width="2"/><path opacity=".69" d="M55.95 54.005c-3.298-16.843 17.541-27.46 29.23-14.895 7.005 7.53 18.723 8.145 26.477 1.387 12.938-11.275 32.553 1.463 27.515 17.868-3.02 9.833 2.307 20.287 12.036 23.624 16.234 5.567 15.01 28.923-1.717 32.762-10.025 2.302-16.415 12.142-14.44 22.236 3.296 16.843-17.543 27.461-29.232 14.894-7.005-7.531-18.722-8.145-26.476-1.387-12.938 11.275-32.553-1.463-27.515-17.868 3.02-9.833-2.307-20.287-12.037-23.624-16.234-5.567-15.01-28.923 1.717-32.762 10.025-2.302 16.416-12.142 14.44-22.236z" stroke="url(#paint19_linear_408_52875)" stroke-width="2"/><path opacity=".724" d="M58.79 52.688C56.42 35.983 77.424 26.633 88.252 39.57c6.501 7.768 17.993 8.975 25.967 2.73C127.5 31.895 146.1 45.41 140.31 61.255c-3.476 9.514 1.224 20.07 10.62 23.852 15.65 6.3 13.247 29.165-3.371 32.074-9.978 1.746-16.77 11.095-15.347 21.123 2.369 16.704-18.635 26.055-29.462 13.118-6.502-7.768-17.993-8.975-25.967-2.729-13.283 10.404-31.883-3.11-26.093-18.956 3.477-9.514-1.223-20.07-10.62-23.852-15.65-6.3-13.246-29.165 3.372-32.074 9.977-1.746 16.769-11.095 15.347-21.124z" stroke="url(#paint20_linear_408_52875)" stroke-width="2"/><path opacity=".759" d="M61.657 51.552c-1.466-16.514 19.627-24.61 29.588-11.358 5.992 7.972 17.229 9.752 25.391 4.022 13.568-9.527 31.127 4.692 24.63 19.945-3.908 9.175.169 19.796 9.212 24 15.035 6.987 11.501 29.303-4.957 31.303-9.9 1.203-17.06 10.044-16.178 19.978 1.465 16.514-19.628 24.611-29.589 11.357-5.991-7.972-17.228-9.751-25.39-4.021-13.569 9.526-31.127-4.692-24.63-19.945 3.908-9.175-.17-19.796-9.213-24-15.034-6.987-11.5-29.303 4.958-31.303 9.9-1.203 17.06-10.044 16.178-19.978z" stroke="url(#paint21_linear_408_52875)" stroke-width="2"/><path opacity=".793" d="M64.542 50.597c-.589-16.277 20.522-23.136 29.612-9.622 5.48 8.145 16.433 10.474 24.751 5.261 13.802-8.648 30.297 6.204 23.139 20.834-4.314 8.818-.854 19.468 7.819 24.066 14.391 7.628 9.776 29.34-6.473 30.455-9.794.673-17.287 8.995-16.932 18.805.589 16.277-20.521 23.136-29.612 9.622-5.479-8.146-16.433-10.474-24.75-5.261-13.803 8.648-30.298-6.204-23.14-20.835 4.315-8.817.854-19.467-7.819-24.065-14.39-7.629-9.776-29.34 6.474-30.456 9.793-.672 17.286-8.994 16.931-18.804z" stroke="url(#paint22_linear_408_52875)" stroke-width="2"/><path opacity=".828" d="M67.433 49.822c.259-15.994 21.315-21.636 29.537-7.915 4.965 8.287 15.609 11.139 24.052 6.445 13.981-7.772 29.395 7.642 21.623 21.623-4.694 8.443-1.842 19.087 6.445 24.052 13.721 8.221 8.079 29.278-7.915 29.537-9.659.156-17.451 7.949-17.607 17.608-.259 15.994-21.316 21.636-29.537 7.914-4.965-8.287-15.61-11.139-24.053-6.445-13.98 7.773-29.395-7.642-21.622-21.622 4.694-8.443 1.841-19.088-6.445-24.053-13.722-8.221-8.08-29.278 7.914-29.537 9.66-.156 17.451-7.949 17.608-17.607z" stroke="url(#paint23_linear_408_52875)" stroke-width="2"/><path opacity=".862" d="M70.318 49.224c1.076-15.668 22.01-20.118 29.366-6.242 4.451 8.397 14.762 11.747 23.299 7.57 14.106-6.902 28.427 9.003 20.088 22.31-5.046 8.054-2.792 18.659 5.094 23.963 13.03 8.766 6.417 29.12-9.278 28.552-9.497-.343-17.554 6.911-18.205 16.393-1.076 15.667-22.01 20.117-29.366 6.242-4.451-8.397-14.762-11.748-23.299-7.571-14.106 6.903-28.427-9.002-20.088-22.31 5.046-8.053 2.792-18.658-5.094-23.963-13.03-8.765-6.417-29.12 9.278-28.552 9.497.344 17.554-6.91 18.205-16.392z" stroke="url(#paint24_linear_408_52875)" stroke-width="2"/><path opacity=".897" d="M73.188 48.8c1.86-15.3 22.606-18.586 29.102-4.609 3.94 8.477 13.895 12.298 22.494 8.635 14.181-6.04 27.4 10.283 18.543 22.898-5.371 7.65-3.703 18.182 3.769 23.798 12.321 9.261 4.794 28.871-10.559 27.508-9.311-.826-17.598 5.884-18.725 15.163-1.859 15.301-22.605 18.587-29.102 4.61-3.94-8.477-13.895-12.298-22.494-8.635-14.18 6.04-27.4-10.284-18.543-22.899 5.371-7.65 3.703-18.182-3.77-23.798-12.32-9.26-4.793-28.87 10.56-27.507 9.31.826 17.598-5.884 18.725-15.164z" stroke="url(#paint25_linear_408_52875)" stroke-width="2"/><path opacity=".931" d="M76.032 48.548c2.608-14.895 23.102-17.05 28.749-3.022 3.433 8.527 13.011 12.791 21.644 9.637 14.203-5.19 26.316 11.482 16.991 23.386-5.667 7.236-4.571 17.663 2.477 23.562 11.596 9.706 3.214 28.532-11.758 26.409-9.1-1.291-17.582 4.872-19.167 13.925-2.607 14.896-23.102 17.05-28.749 3.022-3.432-8.526-13.01-12.791-21.644-9.636-14.203 5.189-26.316-11.483-16.99-23.387 5.667-7.235 4.57-17.663-2.477-23.562-11.596-9.706-3.214-28.532 11.757-26.408 9.1 1.29 17.583-4.872 19.167-13.926z" stroke="url(#paint26_linear_408_52875)" stroke-width="2"/><path opacity=".966" d="M78.84 48.464c3.319-14.455 23.501-15.512 28.312-1.484 2.931 8.546 12.114 13.225 20.751 10.573 14.176-4.354 25.184 12.596 15.44 23.776-5.936 6.811-5.396 17.104 1.219 23.257 10.859 10.101 1.684 28.108-12.871 25.26-8.866-1.735-17.51 3.879-19.531 12.684-3.318 14.455-23.501 15.512-28.312 1.484-2.93-8.546-12.114-13.225-20.75-10.573-14.177 4.354-25.184-12.596-15.44-23.776 5.935-6.811 5.396-17.104-1.22-23.257-10.858-10.1-1.683-28.108 12.871-25.26 8.867 1.735 17.51-3.879 19.532-12.684z" stroke="url(#paint27_linear_408_52875)" stroke-width="2"/><path d="M81.603 48.542c3.99-13.981 23.803-13.981 27.793 0 2.437 8.537 11.208 13.601 19.82 11.442 14.102-3.535 24.009 13.624 13.896 24.07-6.175 6.379-6.175 16.507 0 22.886 10.113 10.445.206 27.604-13.896 24.069-8.612-2.159-17.383 2.906-19.82 11.443-3.99 13.981-23.803 13.981-27.793 0-2.436-8.537-11.207-13.602-19.82-11.443-14.102 3.535-24.009-13.624-13.896-24.069 6.175-6.379 6.175-16.507 0-22.886-10.113-10.446-.206-27.605 13.896-24.07 8.612 2.16 17.384-2.905 19.82-11.442z" stroke="url(#paint28_linear_408_52875)" stroke-width="2"/><defs><linearGradient id="paint0_linear_408_52875" x1="86.576" y1="183.402" x2="105.403" y2="4.274" gradientUnits="userSpaceOnUse"><stop stop-color="#FF1CF7"/><stop offset="1" stop-color="#00F0FF"/></linearGradient><linearGradient id="paint1_linear_408_52875" x1="82.155" y1="181.74" x2="109.984" y2="6.03" gradientUnits="userSpaceOnUse"><stop stop-color="#FF1CF7"/><stop offset="1" stop-color="#00F0FF"/></linearGradient><linearGradient id="paint2_linear_408_52875" x1="77.881" y1="179.861" x2="114.408" y2="8.014" gradientUnits="userSpaceOnUse"><stop stop-color="#FF1CF7"/><stop offset="1" stop-color="#00F0FF"/></linearGradient><linearGradient id="paint3_linear_408_52875" x1="73.767" y1="177.773" x2="118.665" y2="10.212" gradientUnits="userSpaceOnUse"><stop stop-color="#FF1CF7"/><stop offset="1" stop-color="#00F0FF"/></linearGradient><linearGradient id="paint4_linear_408_52875" x1="69.823" y1="175.488" x2="122.744" y2="12.613" gradientUnits="userSpaceOnUse"><stop stop-color="#FF1CF7"/><stop offset="1" stop-color="#00F0FF"/></linearGradient><linearGradient id="paint5_linear_408_52875" x1="66.058" y1="173.019" x2="126.637" y2="15.205" gradientUnits="userSpaceOnUse"><stop stop-color="#FF1CF7"/><stop offset="1" stop-color="#00F0FF"/></linearGradient><linearGradient id="paint6_linear_408_52875" x1="62.48" y1="170.378" x2="130.335" y2="17.974" gradientUnits="userSpaceOnUse"><stop stop-color="#FF1CF7"/><stop offset="1" stop-color="#00F0FF"/></linearGradient><linearGradient id="paint7_linear_408_52875" x1="59.096" y1="167.578" x2="133.829" y2="20.907" gradientUnits="userSpaceOnUse"><stop stop-color="#FF1CF7"/><stop offset="1" stop-color="#00F0FF"/></linearGradient><linearGradient id="paint8_linear_408_52875" x1="55.914" y1="164.631" x2="137.113" y2="23.99" gradientUnits="userSpaceOnUse"><stop stop-color="#FF1CF7"/><stop offset="1" stop-color="#00F0FF"/></linearGradient><linearGradient id="paint9_linear_408_52875" x1="52.938" y1="161.552" x2="140.181" y2="27.21" gradientUnits="userSpaceOnUse"><stop stop-color="#FF1CF7"/><stop offset="1" stop-color="#00F0FF"/></linearGradient><linearGradient id="paint10_linear_408_52875" x1="50.175" y1="158.352" x2="143.027" y2="30.552" gradientUnits="userSpaceOnUse"><stop stop-color="#FF1CF7"/><stop offset="1" stop-color="#00F0FF"/></linearGradient><linearGradient id="paint11_linear_408_52875" x1="47.628" y1="155.048" x2="145.648" y2="34.003" gradientUnits="userSpaceOnUse"><stop stop-color="#FF1CF7"/><stop offset="1" stop-color="#00F0FF"/></linearGradient><linearGradient id="paint12_linear_408_52875" x1="45.302" y1="151.651" x2="148.041" y2="37.548" gradientUnits="userSpaceOnUse"><stop stop-color="#FF1CF7"/><stop offset="1" stop-color="#00F0FF"/></linearGradient><linearGradient id="paint13_linear_408_52875" x1="43.197" y1="148.175" x2="150.2" y2="41.172" gradientUnits="userSpaceOnUse"><stop stop-color="#FF1CF7"/><stop offset="1" stop-color="#00F0FF"/></linearGradient><linearGradient id="paint14_linear_408_52875" x1="41.317" y1="144.636" x2="152.129" y2="44.861" gradientUnits="userSpaceOnUse"><stop stop-color="#FF1CF7"/><stop offset="1" stop-color="#00F0FF"/></linearGradient><linearGradient id="paint15_linear_408_52875" x1="39.661" y1="141.046" x2="153.821" y2="48.601" gradientUnits="userSpaceOnUse"><stop stop-color="#FF1CF7"/><stop offset="1" stop-color="#00F0FF"/></linearGradient><linearGradient id="paint16_linear_408_52875" x1="38.231" y1="137.42" x2="155.282" y2="52.378" gradientUnits="userSpaceOnUse"><stop stop-color="#FF1CF7"/><stop offset="1" stop-color="#00F0FF"/></linearGradient><linearGradient id="paint17_linear_408_52875" x1="37.024" y1="133.771" x2="156.507" y2="56.177" gradientUnits="userSpaceOnUse"><stop stop-color="#FF1CF7"/><stop offset="1" stop-color="#00F0FF"/></linearGradient><linearGradient id="paint18_linear_408_52875" x1="36.04" y1="130.111" x2="157.503" y2="59.985" gradientUnits="userSpaceOnUse"><stop stop-color="#FF1CF7"/><stop offset="1" stop-color="#00F0FF"/></linearGradient><linearGradient id="paint19_linear_408_52875" x1="35.277" y1="126.452" x2="158.27" y2="63.783" gradientUnits="userSpaceOnUse"><stop stop-color="#FF1CF7"/><stop offset="1" stop-color="#00F0FF"/></linearGradient><linearGradient id="paint20_linear_408_52875" x1="34.73" y1="122.812" x2="158.812" y2="67.567" gradientUnits="userSpaceOnUse"><stop stop-color="#FF1CF7"/><stop offset="1" stop-color="#00F0FF"/></linearGradient><linearGradient id="paint21_linear_408_52875" x1="34.396" y1="119.202" x2="159.131" y2="71.32" gradientUnits="userSpaceOnUse"><stop stop-color="#FF1CF7"/><stop offset="1" stop-color="#00F0FF"/></linearGradient><linearGradient id="paint22_linear_408_52875" x1="34.271" y1="115.631" x2="159.236" y2="75.028" gradientUnits="userSpaceOnUse"><stop stop-color="#FF1CF7"/><stop offset="1" stop-color="#00F0FF"/></linearGradient><linearGradient id="paint23_linear_408_52875" x1="34.35" y1="112.115" x2="159.129" y2="78.68" gradientUnits="userSpaceOnUse"><stop stop-color="#FF1CF7"/><stop offset="1" stop-color="#00F0FF"/></linearGradient><linearGradient id="paint24_linear_408_52875" x1="34.625" y1="108.662" x2="158.817" y2="82.264" gradientUnits="userSpaceOnUse"><stop stop-color="#FF1CF7"/><stop offset="1" stop-color="#00F0FF"/></linearGradient><linearGradient id="paint25_linear_408_52875" x1="35.092" y1="105.284" x2="158.308" y2="85.769" gradientUnits="userSpaceOnUse"><stop stop-color="#FF1CF7"/><stop offset="1" stop-color="#00F0FF"/></linearGradient><linearGradient id="paint26_linear_408_52875" x1="35.743" y1="101.992" x2="157.609" y2="89.183" gradientUnits="userSpaceOnUse"><stop stop-color="#FF1CF7"/><stop offset="1" stop-color="#00F0FF"/></linearGradient><linearGradient id="paint27_linear_408_52875" x1="36.569" y1="98.795" x2="156.727" y2="92.498" gradientUnits="userSpaceOnUse"><stop stop-color="#FF1CF7"/><stop offset="1" stop-color="#00F0FF"/></linearGradient><linearGradient id="paint28_linear_408_52875" x1="37.563" y1="95.702" x2="155.671" y2="95.702" gradientUnits="userSpaceOnUse"><stop stop-color="#FF1CF7"/><stop offset="1" stop-color="#00F0FF"/></linearGradient></defs></svg>