<svg width="188" height="190" fill="none" xmlns="http://www.w3.org/2000/svg"><path opacity=".034" d="M27.76 45.82c.709-.844 1.818-1.422 3.414-1.661 1.605-.241 3.64-.128 6.079.36 4.878.974 11.168 3.403 18.459 7.112 14.566 7.41 32.927 19.828 51.608 35.503 18.681 15.676 34.098 31.601 43.925 44.659 4.919 6.536 8.403 12.309 10.21 16.944.904 2.317 1.369 4.301 1.41 5.923.042 1.615-.335 2.807-1.043 3.651-.709.845-1.818 1.423-3.415 1.662-1.605.241-3.639.128-6.078-.36-4.878-.975-11.168-3.404-18.459-7.113-14.567-7.41-32.927-19.827-51.608-35.503-18.681-15.675-34.098-31.6-43.925-44.659-4.92-6.536-8.403-12.309-10.21-16.943-.904-2.318-1.369-4.301-1.41-5.924-.042-1.614.335-2.806 1.043-3.65z" stroke="#00F0FF" stroke-width="2"/><path opacity=".069" d="M32.916 39.486c.78-.78 1.935-1.258 3.546-1.358 1.62-.1 3.637.19 6.024.889 4.775 1.396 10.83 4.364 17.77 8.694 13.865 8.652 31.073 22.622 48.317 39.866 17.243 17.244 31.214 34.452 39.866 48.318 4.33 6.939 7.298 12.994 8.694 17.768.698 2.388.988 4.404.888 6.024-.099 1.612-.578 2.767-1.358 3.546-.779.78-1.934 1.259-3.546 1.358-1.62.1-3.636-.19-6.024-.888-4.774-1.397-10.829-4.364-17.768-8.695-13.866-8.652-31.074-22.622-48.318-39.866C63.763 97.899 49.793 80.69 41.141 66.825c-4.33-6.94-7.298-12.995-8.694-17.769-.699-2.387-.988-4.404-.889-6.024.1-1.611.579-2.766 1.358-3.546z" stroke="#00F0FF" stroke-width="2"/><path opacity=".103" d="M38.544 33.622c.845-.708 2.037-1.085 3.651-1.043 1.623.041 3.606.506 5.924 1.41 4.634 1.807 10.407 5.29 16.943 10.21 13.059 9.827 28.984 25.244 44.659 43.925 15.675 18.681 28.093 37.041 35.503 51.608 3.709 7.291 6.138 13.581 7.113 18.459.488 2.439.601 4.473.36 6.079-.24 1.596-.817 2.705-1.662 3.414-.844.708-2.037 1.085-3.651 1.043-1.622-.041-3.606-.506-5.923-1.41-4.635-1.807-10.408-5.291-16.944-10.21-13.058-9.827-28.983-25.244-44.659-43.925-15.675-18.681-28.092-37.041-35.503-51.608-3.709-7.29-6.138-13.581-7.113-18.459-.487-2.44-.6-4.474-.36-6.079.24-1.596.818-2.705 1.662-3.414z" stroke="#00F0FF" stroke-width="2"/><path opacity=".138" d="M44.601 28.268c.903-.632 2.124-.903 3.728-.72 1.613.182 3.548.818 5.778 1.92 4.46 2.204 9.907 6.178 15.99 11.648 12.152 10.928 26.672 27.674 40.66 47.65 13.988 19.977 24.757 39.349 30.87 54.506 3.06 7.587 4.931 14.065 5.477 19.009.273 2.472.208 4.509-.171 6.087-.378 1.57-1.05 2.624-1.953 3.256-.903.632-2.124.903-3.728.722-1.613-.183-3.548-.819-5.779-1.921-4.459-2.205-9.906-6.179-15.988-11.648-12.153-10.928-26.674-27.674-40.661-47.651C64.836 91.15 54.066 71.777 47.954 56.62c-3.06-7.586-4.931-14.064-5.477-19.008-.273-2.473-.209-4.51.171-6.087.378-1.57 1.05-2.624 1.953-3.257z" stroke="#00F0FF" stroke-width="2"/><path opacity=".172" d="M51.039 23.46c.954-.55 2.194-.715 3.776-.393 1.591.322 3.464 1.124 5.59 2.417 4.25 2.584 9.33 7.018 14.912 12.997 11.154 11.945 24.16 29.893 36.353 51.013 12.193 21.119 21.234 41.357 26.002 56.989 2.387 7.824 3.686 14.441 3.8 19.414.056 2.486-.186 4.509-.702 6.048-.513 1.531-1.274 2.523-2.229 3.074-.955.551-2.194.715-3.776.394-1.591-.323-3.464-1.125-5.589-2.417-4.251-2.585-9.331-7.019-14.913-12.997-11.154-11.946-24.16-29.894-36.353-51.014-12.194-21.119-21.234-41.356-26.002-56.989-2.387-7.824-3.687-14.44-3.8-19.413-.056-2.487.186-4.51.701-6.049.514-1.53 1.275-2.522 2.23-3.074z" stroke="#00F0FF" stroke-width="2"/><path opacity=".207" d="M57.81 19.229c.999-.466 2.248-.52 3.796-.063 1.557.46 3.353 1.422 5.357 2.895 4.01 2.945 8.684 7.805 13.724 14.247 10.07 12.873 21.462 31.886 31.768 53.988 10.307 22.101 17.549 43.05 20.937 59.038 1.695 8.002 2.413 14.707 2.093 19.671-.161 2.482-.578 4.476-1.226 5.965-.645 1.48-1.49 2.401-2.489 2.867-.999.466-2.248.521-3.796.063-1.557-.46-3.353-1.422-5.357-2.895-4.009-2.945-8.684-7.804-13.724-14.247-10.07-12.872-21.462-31.886-31.768-53.987-10.307-22.102-17.549-43.05-20.937-59.039-1.695-8.002-2.413-14.707-2.093-19.67.16-2.483.578-4.477 1.226-5.965.645-1.48 1.49-2.402 2.489-2.868z" stroke="#00F0FF" stroke-width="2"/><path opacity=".241" d="M64.862 15.6c1.036-.376 2.285-.322 3.788.269 1.51.594 3.215 1.709 5.084 3.35 3.737 3.284 7.97 8.533 12.43 15.39 8.91 13.701 18.601 33.635 26.942 56.55 8.341 22.917 13.73 44.417 15.711 60.639.992 8.12 1.123 14.862.37 19.779-.376 2.459-.965 4.409-1.74 5.835-.771 1.418-1.694 2.263-2.73 2.64-1.035.377-2.285.323-3.787-.268-1.511-.594-3.216-1.709-5.084-3.351-3.737-3.283-7.97-8.532-12.43-15.389-8.91-13.702-18.602-33.635-26.942-56.551-8.34-22.916-13.73-44.416-15.711-60.639-.992-8.12-1.123-14.861-.37-19.778.375-2.46.965-4.41 1.74-5.835.771-1.419 1.693-2.263 2.73-2.64z" stroke="#00F0FF" stroke-width="2"/><path opacity=".276" d="M72.143 12.6c1.065-.286 2.305-.123 3.75.596 1.453.724 3.054 1.983 4.773 3.782 3.436 3.596 7.196 9.194 11.04 16.414 7.683 14.425 15.6 35.128 21.912 58.683 6.312 23.556 9.806 45.444 10.366 61.778.281 8.175-.177 14.902-1.354 19.735-.59 2.417-1.347 4.308-2.243 5.661-.892 1.346-1.884 2.107-2.949 2.392-1.065.285-2.305.123-3.75-.597-1.453-.723-3.054-1.983-4.773-3.781-3.436-3.597-7.196-9.194-11.04-16.414-7.683-14.426-15.6-35.128-21.912-58.684-6.312-23.556-9.806-45.443-10.366-61.777-.28-8.175.177-14.903 1.355-19.735.589-2.417 1.346-4.309 2.242-5.662.892-1.346 1.884-2.106 2.95-2.392z" stroke="#00F0FF" stroke-width="2"/><path opacity=".31" d="M79.596 10.24c1.085-.19 2.306.08 3.683.922 1.385.847 2.87 2.242 4.425 4.183 3.11 3.882 6.368 9.786 9.569 17.314 6.395 15.04 12.478 36.354 16.713 60.37 4.235 24.016 5.808 46.125 4.943 62.445-.434 8.169-1.476 14.831-3.07 19.543-.798 2.356-1.717 4.174-2.728 5.444-1.005 1.263-2.06 1.934-3.146 2.126-1.085.191-2.306-.079-3.683-.922-1.385-.847-2.87-2.241-4.426-4.183-3.11-3.882-6.367-9.786-9.568-17.314-6.395-15.04-12.478-36.354-16.713-60.37-4.235-24.016-5.808-46.125-4.942-62.445.433-8.169 1.474-14.83 3.07-19.542.796-2.357 1.716-4.175 2.727-5.444 1.005-1.264 2.06-1.935 3.146-2.127z" stroke="#00F0FF" stroke-width="2"/><path opacity=".345" d="M87.165 8.538c1.098-.097 2.29.279 3.589 1.239 1.305.965 2.663 2.483 4.043 4.552 2.76 4.139 5.491 10.304 8.023 18.082 5.061 15.54 9.263 37.303 11.388 61.597 2.126 24.294 1.766 46.456-.518 62.639-1.144 8.1-2.762 14.645-4.762 19.2-.999 2.278-2.073 4.009-3.191 5.186-1.112 1.17-2.222 1.747-3.32 1.844-1.098.096-2.29-.28-3.589-1.24-1.305-.964-2.663-2.483-4.044-4.552-2.76-4.139-5.49-10.304-8.023-18.082-5.06-15.54-9.262-37.303-11.387-61.597-2.126-24.294-1.767-46.456.518-62.639 1.144-8.1 2.762-14.645 4.761-19.2 1-2.278 2.074-4.01 3.192-5.186 1.112-1.17 2.221-1.747 3.32-1.843z" stroke="#00F0FF" stroke-width="2"/><path opacity=".379" d="M94.79 7.497c1.103 0 2.258.479 3.468 1.548 1.216 1.075 2.437 2.706 3.632 4.888 2.388 4.363 4.571 10.743 6.416 18.712 3.687 15.922 5.976 37.968 5.976 62.355 0 24.387-2.289 46.433-5.976 62.355-1.845 7.969-4.028 14.349-6.416 18.712-1.195 2.182-2.416 3.813-3.632 4.888-1.21 1.069-2.365 1.547-3.468 1.547-1.102 0-2.257-.478-3.467-1.547-1.216-1.075-2.437-2.706-3.632-4.888-2.388-4.363-4.571-10.743-6.416-18.712-3.687-15.922-5.976-37.968-5.976-62.355 0-24.387 2.29-46.433 5.976-62.355 1.845-7.97 4.028-14.35 6.416-18.712 1.195-2.182 2.416-3.813 3.632-4.888 1.21-1.07 2.365-1.548 3.467-1.548z" stroke="#00F0FF" stroke-width="2"/><path opacity=".414" d="M102.417 7.124c1.098.096 2.207.673 3.319 1.844 1.118 1.177 2.192 2.908 3.192 5.185 1.999 4.555 3.617 11.101 4.761 19.2 2.285 16.184 2.644 38.346.519 62.64-2.126 24.293-6.328 46.056-11.388 61.596-2.533 7.778-5.263 13.944-8.023 18.082-1.38 2.07-2.739 3.588-4.044 4.553-1.298.96-2.491 1.335-3.59 1.239-1.097-.096-2.207-.673-3.319-1.844-1.117-1.176-2.192-2.907-3.191-5.185-2-4.555-3.618-11.101-4.762-19.201-2.284-16.182-2.644-38.344-.518-62.638C77.498 68.3 81.7 46.538 86.76 30.998c2.532-7.778 5.263-13.944 8.023-18.082 1.38-2.07 2.738-3.588 4.043-4.553 1.299-.96 2.491-1.335 3.59-1.239z" stroke="#00F0FF" stroke-width="2"/><path opacity=".448" d="M109.985 7.414c1.086.191 2.141.862 3.147 2.126 1.011 1.27 1.93 3.087 2.727 5.444 1.595 4.711 2.637 11.373 3.07 19.542.866 16.32-.708 38.43-4.943 62.445-4.234 24.016-10.317 45.33-16.713 60.37-3.2 7.528-6.458 13.432-9.568 17.314-1.555 1.942-3.041 3.336-4.425 4.183-1.377.843-2.598 1.113-3.684.922-1.086-.192-2.14-.863-3.146-2.126-1.011-1.27-1.93-3.088-2.728-5.444-1.594-4.712-2.636-11.374-3.07-19.542-.865-16.321.709-38.43 4.943-62.446 4.235-24.016 10.318-45.33 16.713-60.37 3.201-7.528 6.459-13.432 9.569-17.314 1.555-1.941 3.041-3.335 4.425-4.183 1.377-.843 2.598-1.113 3.683-.921z" stroke="#00F0FF" stroke-width="2"/><path opacity=".483" d="M117.438 8.36c1.064.285 2.057 1.045 2.949 2.391.896 1.353 1.653 3.245 2.242 5.662 1.178 4.832 1.635 11.56 1.355 19.735-.56 16.334-4.055 38.221-10.366 61.777-6.312 23.556-14.23 44.258-21.911 58.684-3.845 7.22-7.605 12.817-11.041 16.414-1.719 1.798-3.32 3.058-4.773 3.781-1.445.72-2.685.882-3.75.597-1.065-.285-2.057-1.046-2.949-2.392-.896-1.353-1.654-3.244-2.243-5.661-1.177-4.833-1.635-11.56-1.354-19.735.56-16.334 4.054-38.222 10.366-61.778 6.312-23.555 14.23-44.258 21.911-58.683 3.845-7.22 7.604-12.818 11.041-16.414 1.718-1.799 3.32-3.058 4.773-3.781 1.445-.72 2.685-.883 3.75-.598z" stroke="#00F0FF" stroke-width="2"/><path opacity=".517" d="M124.718 9.948c1.036.377 1.958 1.222 2.729 2.64.775 1.426 1.365 3.376 1.741 5.835.752 4.917.621 11.66-.371 19.779-1.981 16.223-7.37 37.722-15.711 60.638-8.341 22.916-18.032 42.85-26.942 56.551-4.46 6.857-8.693 12.106-12.43 15.389-1.868 1.642-3.573 2.757-5.084 3.351-1.503.591-2.752.645-3.788.268-1.035-.377-1.957-1.221-2.729-2.64-.775-1.426-1.364-3.376-1.74-5.835-.753-4.917-.622-11.659.37-19.778 1.981-16.223 7.37-37.723 15.711-60.639 8.34-22.916 18.032-42.85 26.942-56.55 4.46-6.858 8.693-12.107 12.43-15.39 1.869-1.642 3.574-2.757 5.084-3.35 1.503-.592 2.752-.646 3.788-.269z" stroke="#00F0FF" stroke-width="2"/><path opacity=".552" d="M131.77 12.163c.999.466 1.844 1.387 2.489 2.868.648 1.488 1.065 3.482 1.225 5.964.321 4.964-.397 11.669-2.092 19.671-3.388 15.989-10.631 36.937-20.937 59.039-10.306 22.101-21.698 41.115-31.768 53.987-5.04 6.443-9.715 11.302-13.724 14.247-2.004 1.473-3.8 2.435-5.357 2.895-1.548.458-2.797.403-3.796-.063-1-.465-1.844-1.387-2.489-2.867-.648-1.489-1.065-3.483-1.226-5.965-.32-4.964.398-11.668 2.093-19.671 3.388-15.988 10.63-36.937 20.936-59.038 10.307-22.102 21.699-41.115 31.769-53.988 5.04-6.442 9.715-11.302 13.723-14.247 2.005-1.473 3.801-2.435 5.357-2.895 1.549-.458 2.798-.403 3.797.063z" stroke="#00F0FF" stroke-width="2"/><path opacity=".586" d="M138.542 14.981c.954.551 1.716 1.543 2.229 3.074.516 1.539.758 3.562.701 6.049-.113 4.973-1.413 11.59-3.799 19.413-4.769 15.633-13.809 35.87-26.002 56.989-12.194 21.12-25.2 39.068-36.353 51.013-5.583 5.979-10.663 10.413-14.913 12.997-2.126 1.293-3.998 2.095-5.59 2.418-1.581.321-2.821.157-3.776-.394-.955-.551-1.716-1.543-2.23-3.074-.515-1.539-.757-3.562-.7-6.049.113-4.973 1.413-11.589 3.8-19.413 4.767-15.632 13.808-35.87 26.001-56.99 12.194-21.119 25.199-39.067 36.353-51.012 5.583-5.98 10.663-10.413 14.913-12.997 2.126-1.293 3.998-2.095 5.589-2.417 1.582-.322 2.822-.158 3.777.393z" stroke="#00F0FF" stroke-width="2"/><path opacity=".621" d="M144.98 18.376c.903.633 1.575 1.687 1.953 3.257.38 1.578.445 3.614.171 6.087-.546 4.944-2.417 11.422-5.476 19.008-6.113 15.157-16.883 34.53-30.871 54.506-13.987 19.976-28.508 36.722-40.66 47.651-6.083 5.469-11.53 9.443-15.99 11.647-2.23 1.103-4.165 1.738-5.777 1.921-1.605.182-2.825-.089-3.728-.721s-1.576-1.687-1.953-3.256c-.38-1.578-.445-3.615-.172-6.087.546-4.944 2.418-11.422 5.477-19.009 6.113-15.157 16.883-34.53 30.87-54.506 13.988-19.976 28.509-36.722 40.661-47.65 6.082-5.47 11.53-9.444 15.989-11.648 2.23-1.103 4.166-1.738 5.778-1.921 1.605-.182 2.825.089 3.728.721z" stroke="#00F0FF" stroke-width="2"/><path opacity=".655" d="M151.036 22.317c.845.708 1.423 1.817 1.662 3.414.241 1.605.128 3.639-.36 6.078-.975 4.878-3.404 11.168-7.113 18.46-7.41 14.566-19.827 32.926-35.503 51.607-15.675 18.681-31.6 34.098-44.659 43.926-6.536 4.918-12.309 8.403-16.943 10.21-2.318.903-4.301 1.368-5.924 1.41-1.614.041-2.806-.335-3.65-1.044-.845-.708-1.423-1.817-1.662-3.414-.241-1.605-.128-3.639.36-6.079.974-4.877 3.403-11.168 7.112-18.458C51.766 113.86 64.184 95.5 79.86 76.818c15.676-18.68 31.601-34.098 44.659-43.925 6.536-4.919 12.309-8.403 16.944-10.21 2.317-.904 4.301-1.368 5.923-1.41 1.615-.041 2.807.335 3.651 1.044z" stroke="#00F0FF" stroke-width="2"/><path opacity=".69" d="M156.664 26.767c.779.78 1.258 1.935 1.358 3.546.099 1.62-.19 3.637-.889 6.024-1.396 4.774-4.364 10.83-8.694 17.769-8.652 13.865-22.622 31.074-39.866 48.317-17.244 17.244-34.452 31.214-48.318 39.866-6.94 4.331-12.994 7.298-17.768 8.695-2.388.698-4.404.988-6.024.888-1.612-.099-2.767-.578-3.546-1.358-.78-.779-1.259-1.934-1.358-3.546-.1-1.62.19-3.636.888-6.024 1.396-4.774 4.364-10.829 8.694-17.768 8.652-13.866 22.623-31.074 39.866-48.318 17.244-17.244 34.453-31.214 48.318-39.866 6.94-4.33 12.994-7.298 17.769-8.694 2.387-.699 4.404-.989 6.024-.889 1.611.1 2.766.579 3.546 1.358z" stroke="#00F0FF" stroke-width="2"/><path opacity=".724" d="M161.822 31.689c.708.844 1.085 2.036 1.043 3.65-.041 1.623-.506 3.607-1.41 5.924-1.807 4.635-5.291 10.408-10.21 16.944-9.827 13.058-25.244 28.983-43.925 44.659-18.681 15.675-37.041 28.092-51.608 35.503-7.291 3.709-13.581 6.138-18.46 7.112-2.439.488-4.473.601-6.078.36-1.596-.239-2.705-.817-3.414-1.661-.709-.845-1.085-2.037-1.044-3.651.042-1.623.507-3.606 1.41-5.924 1.808-4.634 5.292-10.407 10.21-16.943 9.828-13.059 25.245-28.984 43.926-44.66C100.943 57.328 119.303 44.91 133.87 37.5c7.291-3.71 13.581-6.138 18.459-7.113 2.439-.488 4.473-.6 6.078-.36 1.597.24 2.706.817 3.415 1.662z" stroke="#00F0FF" stroke-width="2"/><path opacity=".759" d="M166.468 37.038c.633.903.904 2.124.722 3.728-.183 1.613-.819 3.548-1.921 5.778-2.204 4.46-6.178 9.907-11.648 15.99-10.928 12.152-27.674 26.672-47.651 40.66-19.976 13.988-39.348 24.757-54.506 30.87-7.586 3.06-14.064 4.931-19.008 5.477-2.473.273-4.509.208-6.087-.171-1.57-.378-2.624-1.05-3.256-1.953-.633-.903-.904-2.124-.722-3.728.183-1.613.819-3.548 1.921-5.779 2.204-4.459 6.178-9.906 11.648-15.988 10.928-12.153 27.674-26.674 47.65-40.661 19.977-13.988 39.349-24.758 54.507-30.87 7.586-3.06 14.064-4.931 19.008-5.477 2.473-.273 4.509-.209 6.087.171 1.57.378 2.624 1.05 3.256 1.953z" stroke="#00F0FF" stroke-width="2"/><path opacity=".793" d="M170.57 42.77c.551.954.715 2.194.394 3.776-.323 1.59-1.125 3.464-2.417 5.59-2.585 4.25-7.019 9.33-12.997 14.912-11.946 11.154-29.894 24.16-51.014 36.353-21.119 12.193-41.356 21.234-56.989 26.002-7.824 2.387-14.44 3.686-19.413 3.8-2.487.056-4.51-.186-6.049-.702-1.53-.513-2.523-1.274-3.074-2.229-.551-.955-.715-2.194-.393-3.777.322-1.59 1.124-3.463 2.417-5.588 2.584-4.251 7.018-9.331 12.997-14.913 11.946-11.154 29.893-24.16 51.013-36.353 21.119-12.194 41.357-21.234 56.989-26.003 7.824-2.386 14.441-3.686 19.413-3.799 2.487-.056 4.51.186 6.049.701 1.531.514 2.523 1.275 3.074 2.23z" stroke="#00F0FF" stroke-width="2"/><path opacity=".828" d="M174.095 48.834c.466 1 .521 2.248.063 3.797-.46 1.556-1.422 3.352-2.895 5.357-2.945 4.008-7.805 8.683-14.248 13.723-12.872 10.07-31.885 21.462-53.987 31.769-22.102 10.306-43.05 17.548-59.039 20.936-8.002 1.695-14.706 2.413-19.67 2.093-2.483-.161-4.477-.578-5.965-1.226-1.48-.645-2.402-1.49-2.868-2.489-.466-.999-.52-2.248-.063-3.796.46-1.557 1.423-3.352 2.895-5.357 2.945-4.009 7.805-8.683 14.248-13.724C45.438 89.847 64.45 78.455 86.553 68.15c22.102-10.306 43.05-17.549 59.039-20.937 8.002-1.695 14.706-2.413 19.67-2.092 2.483.16 4.477.577 5.965 1.225 1.48.645 2.402 1.49 2.868 2.489z" stroke="#00F0FF" stroke-width="2"/><path opacity=".862" d="M177.016 55.18c.377 1.036.323 2.285-.268 3.788-.594 1.51-1.709 3.215-3.351 5.084-3.283 3.737-8.531 7.97-15.389 12.43-13.701 8.91-33.635 18.601-56.551 26.942-22.915 8.341-44.415 13.729-60.638 15.711-8.12.992-14.862 1.123-19.779.37-2.459-.376-4.409-.965-5.835-1.74-1.418-.772-2.262-1.694-2.64-2.73-.377-1.036-.322-2.285.269-3.787.594-1.511 1.709-3.216 3.35-5.085 3.284-3.736 8.532-7.97 15.39-12.429 13.7-8.91 33.635-18.602 56.55-26.942 22.916-8.341 44.416-13.73 60.639-15.711 8.12-.992 14.861-1.123 19.778-.37 2.459.375 4.409.965 5.835 1.74 1.419.771 2.263 1.693 2.64 2.73z" stroke="#00F0FF" stroke-width="2"/><path opacity=".897" d="M179.311 61.754c.286 1.065.123 2.304-.597 3.75-.723 1.453-1.983 3.054-3.781 4.773-3.596 3.436-9.194 7.196-16.414 11.04-14.426 7.682-35.128 15.6-58.684 21.912-23.555 6.311-45.443 9.806-61.777 10.366-8.175.28-14.902-.177-19.735-1.355-2.417-.589-4.308-1.346-5.661-2.243-1.346-.892-2.107-1.884-2.393-2.949-.285-1.064-.122-2.304.598-3.749.723-1.453 1.982-3.055 3.781-4.773 3.596-3.437 9.194-7.196 16.414-11.041 14.425-7.682 35.128-15.6 58.684-21.911 23.555-6.312 45.443-9.806 61.777-10.366 8.175-.28 14.902.176 19.735 1.354 2.417.59 4.308 1.346 5.661 2.243 1.346.892 2.107 1.884 2.392 2.949z" stroke="#00F0FF" stroke-width="2"/><path opacity=".931" d="M180.964 68.5c.191 1.085-.079 2.306-.922 3.683-.847 1.384-2.242 2.87-4.183 4.425-3.882 3.11-9.786 6.368-17.314 9.569-15.04 6.395-36.354 12.478-60.37 16.713-24.016 4.234-46.125 5.808-62.445 4.942-8.169-.433-14.83-1.475-19.542-3.069-2.357-.798-4.175-1.717-5.445-2.728-1.263-1.006-1.934-2.06-2.126-3.146-.191-1.086.08-2.306.922-3.684.847-1.384 2.242-2.87 4.183-4.425 3.882-3.11 9.786-6.367 17.314-9.568 15.04-6.395 36.354-12.478 60.37-16.713 24.016-4.235 46.125-5.808 62.445-4.943 8.169.434 14.831 1.475 19.543 3.07 2.356.797 4.174 1.717 5.444 2.727 1.263 1.006 1.934 2.061 2.126 3.147z" stroke="#00F0FF" stroke-width="2"/><path opacity=".966" d="M181.96 75.362c.096 1.098-.279 2.29-1.239 3.589-.965 1.305-2.483 2.663-4.553 4.044-4.138 2.76-10.304 5.49-18.082 8.022-15.54 5.06-37.303 9.263-61.597 11.388-24.293 2.126-46.455 1.766-62.638-.518-8.1-1.144-14.646-2.762-19.2-4.761-2.278-1-4.01-2.074-5.186-3.192-1.17-1.112-1.748-2.221-1.844-3.32-.096-1.098.28-2.29 1.24-3.589.964-1.305 2.482-2.663 4.552-4.044 4.138-2.76 10.304-5.49 18.082-8.022 15.54-5.06 37.303-9.263 61.597-11.389 24.293-2.125 46.456-1.766 62.638.52 8.1 1.143 14.646 2.761 19.201 4.76 2.278 1 4.009 2.074 5.185 3.192 1.171 1.112 1.748 2.221 1.844 3.32z" stroke="#00F0FF" stroke-width="2"/><path d="M182.293 82.281c0 1.102-.478 2.258-1.547 3.468-1.075 1.216-2.706 2.437-4.888 3.631-4.363 2.389-10.743 4.572-18.712 6.417-15.923 3.686-37.969 5.976-62.355 5.976-24.387 0-46.433-2.29-62.356-5.976-7.969-1.846-14.349-4.028-18.712-6.417-2.182-1.194-3.813-2.415-4.888-3.631-1.069-1.21-1.547-2.365-1.547-3.468 0-1.102.478-2.258 1.547-3.467 1.075-1.216 2.706-2.437 4.888-3.632 4.364-2.388 10.743-4.571 18.712-6.416 15.923-3.687 37.969-5.976 62.356-5.976 24.386 0 46.432 2.289 62.355 5.976 7.969 1.845 14.349 4.028 18.712 6.416 2.182 1.195 3.813 2.415 4.888 3.632 1.069 1.21 1.547 2.365 1.547 3.467z" stroke="#00F0FF" stroke-width="2"/></svg>