<svg width="190" height="192" fill="none" xmlns="http://www.w3.org/2000/svg"><path opacity=".053" d="M14.762 155.368c4.01 5.502 16.822 14.708 36.003 7.52 23.976-8.985 33.249-32.802 54.648-45.152 15.794-9.115 58.233-22.797 82.636-7.678" stroke="#FF1CF7" stroke-width="3"/><path opacity=".105" d="M10.808 143.834c3.43 5.904 15.24 16.442 35.043 11.361 24.755-6.351 36.391-29.038 58.924-39.012 16.631-7.362 60.224-16.393 82.962 1.274" stroke="#FF1CF7" stroke-width="3"/><path opacity=".158" d="M7.82 132.144c2.813 6.241 13.49 17.995 33.7 15.078 25.264-3.647 39.134-24.955 62.555-32.446 17.286-5.528 61.555-9.809 82.378 10.213" stroke="#FF1CF7" stroke-width="3"/><path opacity=".211" d="M5.81 120.403c2.165 6.511 11.593 19.351 31.988 18.629 25.495-.902 41.449-20.598 65.5-25.522 17.751-3.634 62.212-3.119 80.892 19.039" stroke="#FF1CF7" stroke-width="3"/><path opacity=".263" d="M4.777 108.718c1.493 6.709 9.569 20.495 29.925 21.976 25.446 1.851 43.309-16.016 67.727-18.32 18.023-1.7 62.187 3.607 78.52 27.657" stroke="#FF1CF7" stroke-width="3"/><path opacity=".316" d="M4.712 97.194c.805 6.832 7.439 21.414 27.534 25.082 25.119 4.585 44.694-11.259 69.212-10.917 18.096.252 61.481 10.292 75.287 35.972" stroke="#FF1CF7" stroke-width="3"/><path opacity=".368" d="M5.59 85.932c.108 6.882 5.228 22.1 24.841 27.914 24.517 7.268 45.59-6.378 69.939-3.394 17.972 2.202 60.102 16.865 71.229 43.893" stroke="#FF1CF7" stroke-width="3"/><path opacity=".421" d="M7.381 75.035c-.59 6.856 2.96 22.542 21.877 30.439 23.646 9.872 45.987-1.427 69.9 4.166 17.65 4.128 58.064 23.253 66.392 51.333" stroke="#FF1CF7" stroke-width="3"/><path opacity=".474" d="M10.042 64.598c-1.281 6.755.66 22.738 18.673 32.632 22.516 12.367 45.879 3.539 69.094 11.679 17.135 6.009 55.389 29.387 60.826 58.211" stroke="#FF1CF7" stroke-width="3"/><path opacity=".526" d="M13.524 54.713c-1.958 6.58-1.648 22.684 15.264 34.466 21.14 14.728 45.27 8.467 67.533 19.066 16.432 7.823 52.108 35.198 54.594 64.45" stroke="#FF1CF7" stroke-width="3"/><path opacity=".579" d="M17.764 45.465c-2.614 6.332-3.937 22.382 11.688 35.923 19.531 16.926 44.163 13.301 65.23 26.243 15.55 9.552 48.256 40.624 47.765 69.984" stroke="#FF1CF7" stroke-width="3"/><path opacity=".632" d="M22.696 36.932c-3.242 6.016-6.184 21.835 7.983 36.987 17.71 18.94 42.574 17.99 62.214 33.133 14.497 11.176 43.875 45.605 40.411 74.751" stroke="#FF1CF7" stroke-width="3"/><path opacity=".684" d="M28.24 29.186c-3.833 5.633-8.362 21.048 4.192 37.645C48.126 87.576 72.95 89.313 90.948 106.49c13.285 12.679 39.014 50.086 32.616 78.699" stroke="#FF1CF7" stroke-width="3"/><path opacity=".737" d="M34.317 22.287c-4.384 5.189-10.45 20.032.354 37.89 13.505 22.324 38.017 26.729 54.177 45.753 11.926 14.041 33.724 54.018 24.461 81.784" stroke="#FF1CF7" stroke-width="3"/><path opacity=".789" d="M40.835 16.289c-4.885 4.688-12.422 18.795-3.487 37.721 11.169 23.658 35.1 30.681 49.244 51.343 10.439 15.251 28.066 57.358 16.04 83.974" stroke="#FF1CF7" stroke-width="3"/><path opacity=".842" d="M47.702 11.234c-5.333 4.136-14.259 17.353-7.29 37.139 8.71 24.732 31.8 34.298 43.771 56.371 8.836 16.293 22.1 60.071 7.443 85.244" stroke="#FF1CF7" stroke-width="3"/><path opacity=".895" d="M54.82 7.155c-5.723 3.538-15.939 15.72-11.014 36.15 6.157 25.535 28.15 37.538 37.82 60.782 7.136 17.155 15.891 62.124-1.236 85.578" stroke="#FF1CF7" stroke-width="3"/><path opacity=".947" d="M62.089 4.073c-6.05 2.902-17.445 13.916-14.617 34.764 3.536 26.06 24.192 40.368 31.453 64.527 5.36 17.832 9.51 63.498-9.9 84.977" stroke="#FF1CF7" stroke-width="3"/><path d="M69.407 2c-6.312 2.233-18.76 11.958-18.06 32.997.876 26.298 19.97 42.756 24.743 67.566 3.523 18.311 3.023 64.174-18.457 83.443" stroke="#FF1CF7" stroke-width="3"/></svg>