<svg width="47" height="40" fill="none" xmlns="http://www.w3.org/2000/svg"><g clip-path="url(#clip0_714_54796)"><path d="M35.225 0c-5.57 9.475-8.648 14.2-11.75 14.2-3.103 0-6.18-4.725-11.725-14.2 5.544 9.475 8.19 14.475 6.638 17.1C16.837 19.725 11.114 20 0 20c11.521 0 17.244.275 18.54 3.175 1.221 2.7-1.424 7.675-6.79 16.825 5.57-9.475 8.647-14.2 11.75-14.2 3.103 0 6.18 4.725 11.75 14.2-5.9-10.075-8.495-15.075-6.307-17.575C30.875 20.225 36.573 20 47 20c-11.75 0-17.472-.3-18.617-3.375-1.043-2.75 1.602-7.7 6.842-16.625z" fill="#fff"/></g><defs><clipPath id="clip0_714_54796"><path fill="#fff" d="M0 0h47v40H0z"/></clipPath></defs></svg>