<svg width="21" height="18" fill="none" xmlns="http://www.w3.org/2000/svg"><g clip-path="url(#clip0_714_56629)"><path d="M15.276 0c-2.415 4.11-3.75 6.158-5.096 6.158C8.835 6.158 7.5 4.11 5.096 0 7.5 4.11 8.647 6.277 7.974 7.416 7.302 8.554 4.82 8.673 0 8.673c4.996 0 7.478.12 8.04 1.377.53 1.171-.617 3.329-2.944 7.297 2.415-4.11 3.75-6.158 5.095-6.158 1.346 0 2.68 2.049 5.096 6.158-2.559-4.37-3.684-6.538-2.735-7.622.838-.954 3.309-1.052 7.83-1.052-5.095 0-7.577-.13-8.073-1.463-.452-1.193.695-3.34 2.967-7.21z" fill="#fff"/></g><defs><clipPath id="clip0_714_56629"><path fill="#fff" d="M0 0h20.383v17.347H0z"/></clipPath></defs></svg>