<svg width="790" height="740" fill="none" xmlns="http://www.w3.org/2000/svg"><path opacity=".053" d="M82.696 417.2c3.638 19.622 25.482 60.395 83.747 66.51 72.831 7.643 125.8-42.675 196.082-47.194 51.873-3.335 178.08 16.016 222.627 87.342" stroke="#00F0FF" stroke-width="3"/><path opacity=".105" d="M86.472 382.099c1.653 19.874 19.29 62.725 76.608 75.14 71.649 15.519 129.352-28.661 199.683-25.492 51.91 2.339 175.456 35.291 212.607 110.943" stroke="#00F0FF" stroke-width="3"/><path opacity=".158" d="M92.945 347.867c-.351 19.926 12.882 64.421 68.627 82.989 69.68 23.209 131.487-14.415 201.098-3.62 51.378 7.968 170.909 54.141 200.252 133.349" stroke="#00F0FF" stroke-width="3"/><path opacity=".211" d="M101.999 314.786c-2.353 19.771 6.331 65.439 59.889 89.95 66.948 30.639 132.186-.052 200.313 18.239 50.283 13.499 164.488 72.379 185.698 154.304" stroke="#00F0FF" stroke-width="3"/><path opacity=".263" d="M113.512 283.121c-4.331 19.403-.294 65.755 50.491 95.937 63.482 37.728 131.438 14.289 197.336 39.866 48.638 18.877 156.263 89.812 169.105 173.575" stroke="#00F0FF" stroke-width="3"/><path opacity=".316" d="M127.326 253.129c-6.261 18.827-6.92 65.361 40.536 100.881 59.32 44.401 129.253 28.457 192.2 61.036 46.459 24.045 146.326 106.255 150.652 190.947" stroke="#00F0FF" stroke-width="3"/><path opacity=".368" d="M143.268 225.046c-8.125 18.047-13.473 64.258 30.132 104.726 54.507 50.585 125.655 42.301 184.961 81.521 43.772 28.948 134.783 121.529 130.543 206.232" stroke="#00F0FF" stroke-width="3"/><path opacity=".421" d="M161.131 199.094c-9.901 17.071-19.886 62.456 19.391 107.427 49.097 56.214 120.684 55.675 175.7 101.104 40.606 33.53 121.763 135.466 108.994 219.257" stroke="#00F0FF" stroke-width="3"/><path opacity=".474" d="M180.687 175.465c-11.573 15.91-26.088 59.974 8.429 108.955 43.146 61.225 114.396 68.431 164.519 119.569 36.995 37.744 107.406 147.917 86.24 229.883" stroke="#00F0FF" stroke-width="3"/><path opacity=".526" d="M201.7 154.33c-13.12 14.576-32.015 56.839-2.637 109.292 36.723 65.565 106.862 80.432 151.544 136.717 32.979 41.543 91.87 158.745 62.526 237.991" stroke="#00F0FF" stroke-width="3"/><path opacity=".579" d="M223.912 135.833c-14.528 13.083-37.605 53.085-13.69 108.434 29.894 69.186 98.166 91.547 136.919 152.361 28.603 44.885 75.322 167.83 38.104 243.493" stroke="#00F0FF" stroke-width="3"/><path opacity=".632" d="M247.061 120.089c-15.786 11.447-42.81 48.751-24.622 106.39 22.735 72.048 88.413 101.655 120.813 166.33 23.913 47.735 57.94 175.074 13.228 246.328" stroke="#00F0FF" stroke-width="3"/><path opacity=".684" d="M270.878 107.179c-16.885 9.688-47.591 43.887-35.335 103.183 15.319 74.119 77.721 110.644 103.416 178.47 18.965 50.061 39.911 180.399-11.862 246.466" stroke="#00F0FF" stroke-width="3"/><path opacity=".737" d="M295.131 97.158c-17.835 7.822-51.961 38.543-45.784 98.846 7.721 75.379 66.253 118.419 84.968 188.651 13.813 51.837 21.412 183.746-36.985 243.904" stroke="#00F0FF" stroke-width="3"/><path opacity=".789" d="M318.988 89.857c-18.082 5.877-54.247 32.805-54.262 93.498-.018 75.865 52.479 124.979 63.639 196.899 8.237 53.082 2.47 185.21-60.174 238.843" stroke="#00F0FF" stroke-width="3"/><path opacity=".842" d="M342.75 85.643c-18.652 3.863-57.478 26.683-63.566 87.057-7.609 75.467 39.921 130.084 43.873 202.852 2.917 53.709-16.067 184.513-84.018 230.993" stroke="#00F0FF" stroke-width="3"/><path opacity=".895" d="M366.037 84.286c-18.972 1.808-59.946 20.271-72.07 79.665-15.154 74.242 26.724 133.761 23.361 206.58-2.483 53.747-34.523 181.796-106.891 220.618" stroke="#00F0FF" stroke-width="3"/><path opacity=".947" d="M388.529 85.712c-19.067-.268-61.709 13.64-79.747 71.403-22.546 72.205 13.159 135.97 2.492 208.043-7.873 53.196-52.635 177.088-128.573 207.83" stroke="#00F0FF" stroke-width="3"/><path d="M409.931 89.813c-18.944-2.338-62.77 6.863-86.529 62.364-29.699 69.377-.59 136.688-18.455 207.224-13.186 52.061-70.189 170.44-148.838 192.77" stroke="#00F0FF" stroke-width="3"/><path opacity=".053" d="M707.323 418.108c-3.639 19.622-25.482 60.394-83.747 66.509-72.831 7.644-125.8-42.675-196.082-47.193-51.874-3.335-178.08 16.015-222.627 87.342" stroke="#00F0FF" stroke-width="3"/><path opacity=".105" d="M703.545 383.007c-1.653 19.873-19.289 62.725-76.608 75.14-71.648 15.519-129.351-28.661-199.683-25.492-51.91 2.339-175.456 35.291-212.606 110.943" stroke="#00F0FF" stroke-width="3"/><path opacity=".158" d="M697.056 348.766c.352 19.927-12.882 64.422-68.626 82.989-69.68 23.21-131.488-14.415-201.099-3.62-51.378 7.968-170.908 54.141-200.252 133.35" stroke="#00F0FF" stroke-width="3"/><path opacity=".211" d="M688.001 315.686c2.353 19.77-6.331 65.439-59.889 89.949-66.948 30.639-132.186-.051-200.313 18.239-50.283 13.499-164.488 72.379-185.699 154.304" stroke="#00F0FF" stroke-width="3"/><path opacity=".263" d="M676.489 284.02c4.33 19.404.294 65.755-50.492 95.937-63.482 37.728-131.438 14.289-197.336 39.866-48.637 18.878-156.263 89.813-169.104 173.575" stroke="#00F0FF" stroke-width="3"/><path opacity=".316" d="M662.675 254.029c6.261 18.827 6.919 65.36-40.537 100.881-59.32 44.4-129.253 28.456-192.199 61.035-46.46 24.045-146.326 106.255-150.653 190.948" stroke="#00F0FF" stroke-width="3"/><path opacity=".368" d="M646.732 225.946c8.125 18.047 13.473 64.257-30.132 104.725-54.507 50.585-125.655 42.302-184.961 81.522-43.772 28.947-134.783 121.528-130.543 206.231" stroke="#00F0FF" stroke-width="3"/><path opacity=".421" d="M628.87 199.993c9.901 17.071 19.886 62.456-19.391 107.427-49.097 56.214-120.684 55.675-175.7 101.104-40.606 33.53-121.763 135.466-108.994 219.257" stroke="#00F0FF" stroke-width="3"/><path opacity=".474" d="M609.314 176.364c11.573 15.91 26.088 59.975-8.429 108.955-43.146 61.226-114.396 68.431-164.519 119.569-36.995 37.744-107.406 147.917-86.24 229.883" stroke="#00F0FF" stroke-width="3"/><path opacity=".526" d="M588.3 155.23c13.119 14.575 32.014 56.839 2.636 109.291-36.722 65.566-106.861 80.433-151.543 136.718-32.979 41.542-91.87 158.744-62.526 237.991" stroke="#00F0FF" stroke-width="3"/><path opacity=".579" d="M566.087 136.733c14.529 13.082 37.606 53.084 13.691 108.433-29.894 69.186-98.167 91.548-136.919 152.362-28.603 44.885-75.322 167.829-38.104 243.493" stroke="#00F0FF" stroke-width="3"/><path opacity=".632" d="M542.941 120.989c15.785 11.447 42.809 48.751 24.621 106.389-22.734 72.048-88.412 101.655-120.812 166.33-23.914 47.735-57.941 175.075-13.228 246.328" stroke="#00F0FF" stroke-width="3"/><path opacity=".684" d="M519.122 108.078c16.885 9.688 47.591 43.887 35.335 103.183-15.319 74.12-77.721 110.645-103.416 178.471-18.965 50.06-39.911 180.399 11.862 246.465" stroke="#00F0FF" stroke-width="3"/><path opacity=".737" d="M494.87 98.057c17.835 7.823 51.96 38.544 45.783 98.847-7.721 75.379-66.253 118.418-84.968 188.651-13.813 51.837-21.411 183.745 36.985 243.904" stroke="#00F0FF" stroke-width="3"/><path opacity=".789" d="M471.012 90.756c18.082 5.877 54.247 32.805 54.262 93.498.018 75.866-52.479 124.979-63.639 196.899-8.237 53.083-2.47 185.21 60.174 238.843" stroke="#00F0FF" stroke-width="3"/><path opacity=".842" d="M447.252 86.543c18.651 3.863 57.477 26.682 63.565 87.056 7.61 75.467-39.921 130.084-43.873 202.852-2.917 53.709 16.068 184.513 84.018 230.994" stroke="#00F0FF" stroke-width="3"/><path opacity=".895" d="M423.962 85.186c18.972 1.807 59.946 20.27 72.07 79.664 15.154 74.243-26.724 133.761-23.361 206.581 2.483 53.746 34.523 181.795 106.891 220.617" stroke="#00F0FF" stroke-width="3"/><path opacity=".947" d="M401.471 86.61c19.066-.266 61.708 13.64 79.746 71.404 22.546 72.205-13.158 135.971-2.492 208.044 7.873 53.195 52.635 177.087 128.573 207.829" stroke="#00F0FF" stroke-width="3"/><path d="M380.069 90.712c18.944-2.337 62.77 6.863 86.529 62.364 29.699 69.377.59 136.688 18.455 207.224 13.186 52.061 70.19 170.44 148.838 192.77" stroke="#00F0FF" stroke-width="3"/></svg>